M48
; DRILL file {KiCad 5.1.0-rc2-unknown-036be7d~80~ubuntu16.04.1} date 21.04.2023 (пт) 13:27:19 EEST
; FORMAT={-:-/ absolute / inch / decimal}
; #@! TF.CreationDate,2023-04-21T13:27:19+03:00*
; #@! TF.GenerationSoftware,Kicad,Pcbnew,5.1.0-rc2-unknown-036be7d~80~ubuntu16.04.1
; #@! TF.FileFunction,Plated,1,6,PTH
FMAT,2
INCH
T1C0.0079
T2C0.0118
T3C0.0157
T4C0.0197
T5C0.0236
T6C0.0472
%
G90
G05
T1
X3.415Y-3.645
X3.415Y-3.675
X3.425Y-3.145
X3.425Y-3.17
X3.425Y-3.215
X3.425Y-3.325
X3.425Y-3.35
X3.425Y-3.375
X3.435Y-3.43
X3.435Y-3.485
X3.435Y-3.51
X3.445Y-3.535
X3.455Y-3.605
X3.46Y-3.18
X3.46Y-3.285
X3.46Y-3.31
X3.465Y-3.365
X3.47Y-3.48
X3.47Y-3.505
X3.475Y-3.2
X3.475Y-3.225
X3.475Y-3.265
X3.475Y-3.345
X3.475Y-3.535
X3.475Y-3.575
X3.475Y-3.61
X3.475Y-3.63
X3.475Y-3.65
X3.475Y-3.69
X3.475Y-3.715
X3.48Y-3.385
X3.48Y-3.795
X3.65Y-2.68
X3.65Y-3.36
X3.65Y-3.385
X3.65Y-3.425
X3.65Y-3.45
X3.65Y-3.475
X3.655Y-3.24
X3.655Y-3.26
X3.67Y-3.32
X3.67Y-3.345
X3.67Y-3.415
X3.675Y-3.2
X3.695Y-2.985
X3.71Y-2.935
X3.71Y-3.21
X3.71Y-3.23
X3.72Y-2.985
X3.72Y-3.575
X3.72Y-3.655
X3.73Y-3.555
X3.745Y-4.035
X3.745Y-4.06
X3.76Y-2.63
X3.76Y-3.2
X3.77Y-3.445
X3.77Y-3.47
X3.77Y-3.49
X3.785Y-2.665
X3.81Y-2.625
X3.82Y-3.66
X3.835Y-3.9
X3.8386Y-2.67
X3.84Y-3.66
X3.85Y-3.92
X3.855Y-2.625
X3.8614Y-2.67
X3.865Y-3.66
X3.865Y-3.89
X3.87Y-4.025
X3.87Y-4.05
X3.87Y-4.075
X3.875Y-3.915
X3.885Y-3.66
X3.89Y-2.62
X3.89Y-4.06
X3.91Y-3.92
X3.92Y-4.03
X3.92Y-4.07
X3.925Y-2.62
X3.935Y-3.92
X3.935Y-4.045
X3.9386Y-2.67
X3.95Y-4.02
X3.9614Y-2.67
X3.97Y-3.925
X3.975Y-2.62
X3.9869Y-2.8131
X3.995Y-4.02
X3.995Y-4.04
X4.0031Y-2.7969
X4.0386Y-2.67
X4.045Y-2.625
X4.0614Y-2.67
X4.0619Y-4.0219
X4.075Y-2.625
X4.075Y-3.135
X4.0781Y-4.0381
X4.1Y-2.67
X4.115Y-4.08
X4.125Y-2.68
X4.13Y-3.87
X4.1319Y-4.0219
X4.145Y-2.625
X4.1481Y-4.0381
X4.15Y-2.68
X4.15Y-3.87
X4.17Y-3.87
X4.175Y-2.625
X4.175Y-2.68
X4.19Y-3.87
X4.2Y-2.67
X4.2Y-3.485
X4.2Y-4.08
X4.205Y-2.945
X4.205Y-3.125
X4.2067Y-4.035
X4.21Y-3.87
X4.215Y-3.085
X4.225Y-2.62
X4.225Y-3.12
X4.225Y-3.48
X4.225Y-4.08
X4.2295Y-4.035
X4.23Y-2.935
X4.235Y-3.075
X4.24Y-3.88
X4.245Y-3.13
X4.25Y-2.68
X4.25Y-4.08
X4.252Y-4.0281
X4.255Y-2.935
X4.255Y-2.98
X4.255Y-3.655
X4.255Y-3.675
X4.26Y-3.115
X4.26Y-3.61
X4.26Y-3.63
X4.265Y-3.075
X4.275Y-2.635
X4.275Y-3.89
X4.285Y-3.865
X4.2886Y-4.07
X4.29Y-2.965
X4.29Y-3.015
X4.29Y-3.48
X4.29Y-3.5
X4.3Y-3.89
X4.31Y-3.865
X4.3114Y-4.07
X4.315Y-2.96
X4.315Y-3.015
X4.315Y-3.6
X4.315Y-3.62
X4.325Y-2.62
X4.325Y-3.89
X4.34Y-2.975
X4.355Y-3.89
X4.365Y-2.97
X4.37Y-2.995
X4.37Y-3.875
X4.385Y-3.705
X4.385Y-3.725
X4.385Y-3.89
X4.395Y-3.785
X4.395Y-3.805
X4.405Y-3.0
X4.41Y-3.875
X4.435Y-3.875
X4.44Y-3.41
X4.44Y-3.45
X4.455Y-3.035
X4.455Y-4.08
X4.46Y-3.445
X4.465Y-3.01
X4.475Y-3.42
X4.48Y-4.08
X4.485Y-2.78
X4.485Y-3.01
X4.495Y-3.395
X4.5Y-3.45
X4.505Y-2.805
X4.505Y-3.01
X4.505Y-3.03
X4.505Y-3.415
X4.505Y-4.08
X4.52Y-3.45
X4.525Y-2.78
X4.525Y-3.32
X4.525Y-3.4
X4.525Y-3.42
X4.545Y-3.01
X4.545Y-3.32
X4.545Y-3.4
X4.55Y-3.44
X4.565Y-3.0
X4.565Y-3.32
X4.565Y-3.41
X4.575Y-2.795
X4.575Y-3.025
X4.585Y-2.675
X4.59Y-3.05
X4.6Y-3.03
X4.6Y-4.16
X4.605Y-2.765
X4.61Y-4.14
X4.6223Y-3.2481
X4.6225Y-3.2876
X4.6225Y-3.3268
X4.6227Y-3.4055
X4.6228Y-3.2075
X4.6234Y-3.1695
X4.6258Y-3.5235
X4.626Y-3.1075
X4.626Y-3.1299
X4.626Y-3.4449
X4.626Y-3.563
X4.626Y-3.5831
X4.63Y-2.765
X4.63Y-4.16
X4.6319Y-3.3661
X4.6358Y-3.4843
X4.6426Y-3.2481
X4.6427Y-3.3268
X4.6429Y-3.4056
X4.6432Y-3.2875
X4.6433Y-3.2126
X4.6444Y-3.1692
X4.645Y-4.145
X4.6461Y-3.5236
X4.6462Y-3.4449
X4.6535Y-3.3661
X4.663Y-3.2079
X4.663Y-3.4056
X4.6631Y-3.2481
X4.6632Y-3.3269
X4.6642Y-3.2876
X4.6654Y-3.1693
X4.6654Y-3.4843
X4.6654Y-3.5452
X4.6654Y-3.5857
X4.6655Y-3.1074
X4.6655Y-3.5654
X4.6656Y-3.1285
X4.6657Y-3.1492
X4.6664Y-3.4449
X4.6666Y-3.5251
X4.6669Y-4.1331
X4.67Y-4.08
X4.6752Y-3.3661
X4.683Y-3.4056
X4.6831Y-4.1169
X4.6835Y-3.213
X4.6836Y-3.3269
X4.6845Y-3.2876
X4.685Y-4.065
X4.7037Y-3.327
X4.7047Y-3.1075
X4.7047Y-3.1286
X4.7047Y-3.5448
X4.7047Y-3.5652
X4.7047Y-3.5857
X4.7047Y-3.1496
X4.7047Y-3.1897
X4.7047Y-3.2874
X4.7047Y-3.3661
X4.7048Y-3.5043
X4.7048Y-3.5246
X4.705Y-3.1698
X4.7051Y-3.2102
X4.7078Y-3.4835
X4.7146Y-3.4055
X4.7146Y-3.4449
X4.7244Y-3.248
X4.7244Y-3.3268
X4.7283Y-3.3661
X4.7319Y-3.9131
X4.7426Y-3.2275
X4.7435Y-3.4055
X4.744Y-3.1074
X4.744Y-3.1275
X4.744Y-3.1476
X4.7441Y-3.4843
X4.7441Y-3.1677
X4.7441Y-3.4431
X4.7441Y-3.4638
X4.7441Y-3.5046
X4.7441Y-3.5248
X4.7441Y-3.5451
X4.7441Y-3.5654
X4.7441Y-3.5857
X4.7442Y-3.1878
X4.7449Y-3.2481
X4.7481Y-3.8969
X4.7638Y-3.2874
X4.7638Y-3.3268
X4.7638Y-3.3661
X4.7638Y-3.4055
X4.77Y-3.88
X4.7835Y-3.2087
X4.7835Y-3.5039
X4.7835Y-3.1075
X4.7835Y-3.4833
X4.7835Y-3.5242
X4.7835Y-3.5447
X4.7835Y-3.5652
X4.7835Y-3.5857
X4.7836Y-3.1275
X4.7836Y-3.1477
X4.7837Y-3.1677
X4.7837Y-3.1878
X4.785Y-3.865
X4.785Y-3.91
X4.8016Y-3.248
X4.8026Y-3.2874
X4.8026Y-3.4439
X4.8026Y-3.4646
X4.8027Y-3.3662
X4.8027Y-3.4055
X4.8028Y-3.3268
X4.81Y-3.91
X4.82Y-2.64
X4.8228Y-3.2087
X4.8228Y-3.248
X4.8228Y-3.2874
X4.8228Y-3.3268
X4.8228Y-3.3661
X4.8228Y-3.4055
X4.8229Y-3.1275
X4.8229Y-3.4424
X4.8229Y-3.5858
X4.823Y-3.1072
X4.823Y-3.1477
X4.823Y-3.1677
X4.823Y-3.5653
X4.8231Y-3.1878
X4.8231Y-3.5242
X4.8231Y-3.5447
X4.8232Y-3.4629
X4.8232Y-3.4833
X4.8232Y-3.5039
X4.835Y-2.68
X4.835Y-2.78
X4.84Y-2.65
X4.85Y-2.62
X4.8621Y-3.4618
X4.8622Y-3.2673
X4.8622Y-3.3258
X4.8622Y-3.4037
X4.8622Y-3.482
X4.8622Y-3.5024
X4.8622Y-3.5227
X4.8622Y-3.5444
X4.8622Y-3.5648
X4.8622Y-3.5855
X4.8622Y-3.2283
X4.8622Y-3.2874
X4.8622Y-3.3465
X4.8622Y-3.4252
X4.8623Y-3.1072
X4.8623Y-3.1276
X4.8623Y-3.3682
X4.8624Y-3.1478
X4.8624Y-3.1678
X4.8625Y-3.188
X4.8626Y-3.2082
X4.865Y-2.65
X4.87Y-3.7
X4.875Y-2.8
X4.875Y-3.68
X4.875Y-3.895
X4.88Y-2.625
X4.895Y-2.82
X4.895Y-3.715
X4.9Y-3.895
X4.9007Y-3.4636
X4.9011Y-3.4424
X4.9012Y-3.2284
X4.9016Y-3.2874
X4.9016Y-3.3268
X4.9016Y-3.3661
X4.9016Y-3.4055
X4.9016Y-3.4843
X4.9016Y-3.5079
X4.9016Y-3.5315
X4.9016Y-3.5531
X4.9016Y-3.5827
X4.9016Y-3.2483
X4.9017Y-3.1479
X4.9017Y-3.1681
X4.9017Y-3.1882
X4.9018Y-3.1074
X4.9018Y-3.1277
X4.9018Y-3.2083
X4.905Y-3.735
X4.92Y-3.75
X4.9213Y-3.2283
X4.9216Y-3.4636
X4.9217Y-3.4424
X4.9218Y-3.2487
X4.9218Y-3.2875
X4.9218Y-3.3663
X4.9218Y-3.4056
X4.9224Y-3.3268
X4.925Y-4.055
X4.925Y-4.075
X4.93Y-2.63
X4.93Y-3.895
X4.94Y-3.75
X4.9409Y-3.1074
X4.9409Y-3.5427
X4.9409Y-3.2087
X4.9409Y-3.563
X4.941Y-3.1277
X4.941Y-3.1479
X4.941Y-3.168
X4.941Y-3.1882
X4.941Y-3.4813
X4.941Y-3.5014
X4.941Y-3.5216
X4.9433Y-3.585
X4.945Y-2.83
X4.945Y-3.73
X4.95Y-2.615
X4.95Y-3.895
X4.95Y-4.075
X4.955Y-2.635
X4.955Y-3.685
X4.9581Y-3.4057
X4.96Y-3.665
X4.9602Y-3.3268
X4.9606Y-3.2874
X4.9606Y-3.3661
X4.965Y-3.728
X4.965Y-4.06
X4.975Y-3.695
X4.9783Y-3.4433
X4.979Y-3.4057
X4.9791Y-3.4661
X4.9791Y-3.4882
X4.9792Y-3.2483
X4.98Y-4.075
X4.9803Y-3.3268
X4.9803Y-3.5335
X4.9803Y-3.5551
X4.9804Y-3.1074
X4.9805Y-3.1276
X4.9805Y-3.1479
X4.9806Y-3.168
X4.9806Y-3.188
X4.9806Y-3.208
X4.9807Y-3.2282
X4.9809Y-3.3663
X4.9813Y-3.2875
X4.9827Y-3.5114
X4.99Y-3.68
X4.9923Y-4.0537
X5.0015Y-3.248
X5.0025Y-3.2875
X5.0071Y-3.4055
X5.0075Y-3.3268
X5.0075Y-3.365
X5.0169Y-3.5236
X5.0169Y-3.5437
X5.0177Y-3.565
X5.0181Y-3.5028
X5.0182Y-3.4827
X5.0197Y-3.1074
X5.0197Y-3.1276
X5.0198Y-3.1478
X5.0199Y-3.168
X5.0199Y-3.1881
X5.02Y-3.2083
X5.0224Y-3.5846
X5.0295Y-3.248
X5.0323Y-3.4449
X5.0354Y-3.2874
X5.0354Y-3.3268
X5.0354Y-3.365
X5.0354Y-3.4055
X5.04Y-2.91
X5.0417Y-3.4815
X5.045Y-3.67
X5.05Y-4.045
X5.0512Y-3.2087
X5.0547Y-3.4453
X5.0575Y-3.248
X5.0575Y-3.3268
X5.0575Y-3.4055
X5.0591Y-3.1102
X5.0591Y-3.1319
X5.0591Y-3.1535
X5.0606Y-3.5201
X5.0606Y-3.5433
X5.0606Y-3.5646
X5.0618Y-3.5854
X5.0622Y-3.4843
X5.065Y-4.07
X5.07Y-2.615
X5.07Y-2.675
X5.0728Y-3.2878
X5.0764Y-3.1681
X5.0768Y-3.4449
X5.0795Y-3.2087
X5.0795Y-3.248
X5.0795Y-3.3268
X5.0795Y-3.365
X5.0795Y-3.4055
X5.0799Y-3.5268
X5.0911Y-4.07
X5.0984Y-3.1299
X5.0984Y-3.1713
X5.0984Y-3.2874
X5.0984Y-3.4449
X5.0984Y-3.4843
X5.0984Y-3.563
X5.1Y-2.805
X5.1016Y-3.1075
X5.1016Y-3.2087
X5.1016Y-3.248
X5.1016Y-3.3268
X5.1016Y-3.365
X5.1016Y-3.4055
X5.1016Y-3.5236
X5.1016Y-3.585
X5.11Y-2.93
X5.11Y-2.96
X5.115Y-4.07
X5.12Y-2.615
X5.125Y-2.945
X5.125Y-3.01
X5.125Y-3.04
X5.125Y-3.675
X5.14Y-2.625
X5.15Y-3.67
X5.1504Y-3.6346
X5.155Y-3.305
X5.155Y-3.37
X5.1575Y-3.0709
X5.165Y-3.03
X5.168Y-3.115
X5.175Y-2.62
X5.175Y-3.305
X5.175Y-3.45
X5.175Y-3.665
X5.1752Y-3.6398
X5.177Y-3.375
X5.178Y-3.133
X5.18Y-3.06
X5.18Y-3.55
X5.185Y-3.575
X5.185Y-3.595
X5.195Y-3.305
X5.195Y-3.385
X5.195Y-3.45
X5.195Y-3.47
X5.195Y-4.07
X5.2Y-2.63
X5.2Y-3.14
X5.2Y-3.64
X5.205Y-3.05
X5.205Y-3.095
X5.205Y-3.55
X5.205Y-3.6
X5.21Y-3.62
X5.215Y-3.21
X5.215Y-3.23
X5.218Y-4.07
X5.22Y-3.075
X5.22Y-3.14
X5.225Y-2.62
X5.225Y-3.55
X5.24Y-3.14
X5.24Y-3.21
X5.2411Y-4.07
X5.265Y-4.07
X5.275Y-2.62
X5.275Y-2.86
X5.295Y-2.79
X5.305Y-2.66
X5.315Y-3.885
X5.316Y-3.461
X5.316Y-3.487
X5.3169Y-3.4334
X5.3181Y-3.2331
X5.3181Y-3.2591
X5.3181Y-3.285
X5.3181Y-3.3114
X5.3199Y-3.5398
X5.3211Y-3.2057
X5.3211Y-3.5128
X5.3213Y-3.1512
X5.3213Y-3.1795
X5.325Y-2.645
X5.325Y-4.08
X5.33Y-3.9
X5.35Y-4.08
X5.3543Y-3.1402
X5.3543Y-3.2677
X5.3543Y-3.2961
X5.3543Y-3.5524
X5.3547Y-3.3976
X5.3547Y-3.4228
X5.3547Y-3.4488
X5.36Y-3.915
X5.365Y-2.655
X5.38Y-3.9
X5.38Y-4.06
X5.38Y-4.08
X5.3858Y-3.0661
X5.3858Y-3.2685
X5.3858Y-3.2909
X5.3858Y-3.3189
X5.3858Y-3.4236
X5.3858Y-3.4488
X5.3858Y-3.4724
X5.3858Y-3.6024
X5.3862Y-3.2453
X5.3862Y-3.3961
X5.3878Y-3.2169
X5.39Y-3.92
X5.395Y-2.68
X5.415Y-2.635
X5.415Y-3.785
X5.415Y-3.92
X5.4173Y-3.0894
X5.4173Y-3.1417
X5.4173Y-3.1693
X5.4173Y-3.5244
X5.4173Y-3.5528
X5.4173Y-3.6024
X5.425Y-2.685
X5.435Y-2.62
X5.435Y-3.895
X5.44Y-3.785
X5.4484Y-3.2465
X5.4488Y-3.1417
X5.4488Y-3.2181
X5.4488Y-3.2705
X5.4488Y-3.2941
X5.4488Y-3.3945
X5.4488Y-3.4224
X5.4488Y-3.4488
X5.4488Y-3.4748
X5.4488Y-3.5512
X5.4489Y-3.1901
X5.455Y-3.91
X5.465Y-2.645
X5.465Y-3.785
X5.4791Y-3.2181
X5.4803Y-3.2677
X5.4813Y-3.1801
X5.4843Y-3.1024
X5.4843Y-3.1575
X5.4843Y-3.2402
X5.4843Y-3.5433
X5.485Y-2.635
X5.485Y-3.42
X5.485Y-3.4851
X5.485Y-3.515
X5.485Y-3.925
X5.49Y-3.45
X5.49Y-3.785
X5.4921Y-3.5906
X5.4921Y-3.622
X5.495Y-2.78
X5.495Y-3.885
X5.5Y-2.88
X5.505Y-3.43
X5.52Y-3.895
X5.52Y-3.92
X5.5232Y-3.1858
X5.525Y-2.78
X5.525Y-3.46
X5.5394Y-3.5669
X5.5394Y-3.5984
X5.54Y-4.04
X5.5432Y-3.631
X5.5433Y-3.3976
X5.5438Y-3.216
X5.5445Y-3.1669
X5.5445Y-3.4484
X5.5445Y-3.5
X5.5445Y-3.526
X5.5449Y-3.2441
X5.5449Y-3.2945
X5.5472Y-3.0906
X5.56Y-2.87
X5.56Y-4.03
X5.5744Y-3.6024
X5.5748Y-3.0906
X5.5748Y-3.1161
X5.5748Y-3.1929
X5.5748Y-3.2449
X5.5748Y-3.2945
X5.5748Y-3.3976
X5.575Y-2.625
X5.5752Y-3.139
X5.5756Y-3.474
X5.5756Y-3.5
X5.5756Y-3.526
X5.59Y-2.655
X5.605Y-2.615
X5.605Y-4.075
X5.6063Y-3.0906
X5.6063Y-3.1161
X5.6063Y-3.1693
X5.6063Y-3.1929
X5.6063Y-3.2441
X5.6063Y-3.2693
X5.6063Y-3.2961
X5.6063Y-3.3189
X5.6063Y-3.3701
X5.6063Y-3.3984
X5.6063Y-3.4228
X5.6063Y-3.5764
X5.6063Y-3.6024
X5.6063Y-3.6272
X5.6067Y-3.4484
X5.6067Y-3.5
X5.6067Y-3.526
X5.625Y-2.63
X5.63Y-4.075
X5.6378Y-3.1417
X5.6378Y-3.1681
X5.6378Y-3.1929
X5.6378Y-3.2441
X5.6378Y-3.2953
X5.6378Y-3.3685
X5.6378Y-3.3965
X5.6378Y-3.4244
X5.6382Y-3.0906
X5.6382Y-3.1161
X5.6382Y-3.4484
X5.6382Y-3.526
X5.6382Y-3.5512
X5.6382Y-3.5768
X5.6394Y-3.5
X5.64Y-3.87
X5.6457Y-3.0551
X5.655Y-3.855
X5.6677Y-3.1417
X5.6677Y-3.1681
X5.6693Y-3.1929
X5.6693Y-3.2185
X5.6693Y-3.2697
X5.6693Y-3.2953
X5.6693Y-3.3268
X5.6693Y-3.5
X5.6693Y-3.526
X5.6693Y-3.5512
X5.6693Y-3.5768
X5.6693Y-3.6024
X5.6969Y-3.2441
X5.6969Y-3.2693
X5.6969Y-3.3268
X5.6969Y-3.3693
X5.6969Y-3.3976
X5.6969Y-3.4232
X5.6969Y-3.4488
X5.6969Y-3.5
X5.6969Y-3.5256
X5.6969Y-3.5768
X5.7008Y-3.1929
X5.7047Y-3.1142
X5.705Y-3.665
X5.72Y-3.68
X5.72Y-3.715
X5.815Y-3.075
X5.82Y-3.19
X5.82Y-3.625
X5.835Y-3.335
X5.835Y-3.61
X5.845Y-3.3764
X5.845Y-3.3993
X5.845Y-3.4355
X5.845Y-3.4583
X5.845Y-3.4945
X5.845Y-3.5174
X5.845Y-3.755
X5.86Y-3.335
X5.86Y-3.73
X5.86Y-3.785
X5.87Y-3.0
X5.87Y-3.21
X5.885Y-2.98
X5.885Y-3.02
X5.885Y-3.42
X5.89Y-2.955
X5.9Y-2.935
T2
X3.31Y-2.81
X3.31Y-2.95
X3.31Y-3.1
X3.31Y-3.25
X3.31Y-3.4
X3.31Y-3.55
X3.31Y-3.7
X3.325Y-2.53
X3.325Y-3.865
X3.51Y-4.19
X3.7Y-2.51
X3.7Y-4.19
X3.73Y-3.345
X3.735Y-3.53
X3.77Y-3.42
X3.78Y-3.25
X3.85Y-2.51
X3.85Y-4.19
X3.87Y-3.38
X3.87Y-3.405
X3.87Y-3.43
X3.905Y-3.495
X3.93Y-3.495
X4.0Y-4.19
X4.005Y-2.51
X4.15Y-2.51
X4.15Y-4.19
X4.22Y-2.9
X4.29Y-2.92
X4.3Y-2.51
X4.3Y-4.19
X4.325Y-4.05
X4.355Y-3.595
X4.375Y-3.49
X4.45Y-2.51
X4.45Y-4.19
X4.475Y-3.32
X4.5Y-3.32
X4.53Y-4.075
X4.56Y-3.665
X4.565Y-3.619
X4.6Y-2.51
X4.615Y-4.176
X4.75Y-2.51
X4.75Y-4.19
X4.805Y-2.995
X4.805Y-3.02
X4.9Y-2.51
X4.9Y-4.19
X5.04Y-4.025
X5.05Y-2.51
X5.05Y-4.19
X5.075Y-4.025
X5.1175Y-2.9825
X5.17Y-2.925
X5.2Y-2.51
X5.2Y-4.19
X5.205Y-2.805
X5.225Y-2.925
X5.25Y-2.805
X5.295Y-2.925
X5.325Y-2.8
X5.35Y-2.51
X5.35Y-2.8
X5.35Y-4.19
X5.37Y-2.925
X5.385Y-2.845
X5.39Y-3.765
X5.415Y-2.845
X5.45Y-2.925
X5.49Y-3.76
X5.5Y-2.51
X5.5Y-4.19
X5.516Y-3.783
X5.53Y-3.76
X5.54Y-2.94
X5.565Y-2.82
X5.605Y-2.95
X5.605Y-3.74
X5.615Y-2.88
X5.62Y-3.005
X5.625Y-3.72
X5.65Y-2.88
X5.65Y-4.19
X5.66Y-3.005
X5.675Y-3.675
X5.69Y-3.035
X5.695Y-2.97
X5.7Y-2.625
X5.705Y-3.605
X5.71Y-2.525
X5.71Y-4.12
X5.72Y-2.565
X5.725Y-3.78
X5.725Y-4.155
X5.745Y-4.175
X5.755Y-2.525
X5.82Y-3.675
X5.825Y-3.36
X5.85Y-2.845
X5.88Y-2.805
X5.915Y-2.79
X5.945Y-3.925
X5.975Y-3.89
X5.975Y-3.96
X5.99Y-3.15
X5.99Y-3.3
X5.99Y-3.45
X5.99Y-3.6
X5.99Y-3.725
X5.99Y-3.815
T3
X3.615Y-3.89
X3.705Y-3.155
X3.73Y-3.075
X3.915Y-3.17
X3.925Y-3.875
X3.945Y-3.17
X3.975Y-3.17
X3.975Y-3.655
X3.99Y-3.55
X3.99Y-3.58
X4.003Y-3.655
X4.005Y-2.67
X4.075Y-3.525
X4.087Y-3.708
X4.098Y-3.543
X4.117Y-3.708
X4.12Y-3.571
X4.175Y-3.515
X4.205Y-3.515
X4.22Y-3.325
X4.245Y-3.31
X4.245Y-3.34
X4.555Y-3.86
X4.785Y-4.065
X4.965Y-4.035
X5.315Y-3.401
X5.725Y-2.895
T4
X3.37Y-3.9
X3.45Y-3.735
X3.61Y-4.035
X3.61Y-4.07
X3.8Y-3.5
X4.235Y-3.18
X4.235Y-3.215
X4.4Y-3.315
X4.715Y-4.065
X4.72Y-4.03
X4.785Y-4.03
T5
X3.35Y-2.835
X3.375Y-2.795
X3.39Y-2.835
X3.43Y-2.815
X3.43Y-2.86
X3.445Y-2.94
X3.445Y-2.98
X3.465Y-3.115
X3.48Y-2.815
X3.59Y-2.54
X3.59Y-2.58
X3.59Y-2.795
X3.59Y-3.93
X3.59Y-3.97
X3.59Y-4.12
X3.59Y-4.16
X3.6Y-2.895
X3.6Y-2.935
X3.6Y-2.975
X3.64Y-2.795
X3.79Y-2.94
X3.79Y-2.985
X3.79Y-3.025
X3.79Y-3.065
X3.835Y-3.615
X3.925Y-3.56
X3.955Y-3.59
X3.96Y-2.99
X3.995Y-3.875
X4.0Y-2.99
X4.035Y-3.875
X4.04Y-2.99
X4.065Y-3.035
X4.075Y-3.875
X4.2Y-3.77
X4.24Y-3.77
X4.28Y-3.77
X4.42Y-3.225
X4.44Y-3.265
X4.44Y-3.305
X4.44Y-3.345
X4.67Y-2.615
X4.67Y-2.665
X4.715Y-2.625
X4.715Y-2.675
X5.755Y-3.045
X5.755Y-3.085
X5.945Y-3.085
X3.9811Y-3.2811
X3.9811Y-3.4189
X4.1189Y-3.2811
X4.1189Y-3.4189
T6
X4.05Y-3.35
T0
M30
