G04 #@! TF.GenerationSoftware,KiCad,Pcbnew,5.1.0-rc2-unknown-036be7d~80~ubuntu16.04.1*
G04 #@! TF.CreationDate,2023-04-21T13:27:13+03:00*
G04 #@! TF.ProjectId,iMX8MPLUS-SOM_Rev_B,694d5838-4d50-44c5-9553-2d534f4d5f52,A*
G04 #@! TF.SameCoordinates,Original*
G04 #@! TF.FileFunction,Soldermask,Bot*
G04 #@! TF.FilePolarity,Negative*
%FSLAX46Y46*%
G04 Gerber Fmt 4.6, Leading zero omitted, Abs format (unit mm)*
G04 Created by KiCad (PCBNEW 5.1.0-rc2-unknown-036be7d~80~ubuntu16.04.1) date 2023-04-21 13:27:13*
%MOMM*%
%LPD*%
G04 APERTURE LIST*
%ADD10C,0.025400*%
%ADD11R,1.117600X1.117600*%
%ADD12R,1.501600X1.101600*%
%ADD13C,1.901600*%
%ADD14R,0.301600X1.101600*%
%ADD15R,1.101600X0.301600*%
%ADD16R,4.901601X4.901601*%
%ADD17C,0.801600*%
%ADD18R,0.801600X1.901600*%
%ADD19R,1.901600X0.801600*%
%ADD20C,1.254000*%
%ADD21C,3.401601*%
%ADD22R,0.651600X0.601600*%
%ADD23R,0.601600X0.651600*%
%ADD24R,2.101600X1.401600*%
%ADD25R,1.401600X2.101600*%
%ADD26R,1.901600X1.101600*%
%ADD27R,1.101600X1.901600*%
%ADD28R,1.501600X1.301600*%
%ADD29R,2.301600X0.701600*%
%ADD30R,1.101600X1.501600*%
%ADD31R,0.482600X0.355600*%
%ADD32R,0.355600X0.482600*%
%ADD33C,0.900000*%
G04 APERTURE END LIST*
D10*
G36*
X152146000Y-77724000D02*
G01*
X150749000Y-77724000D01*
X150749000Y-70104000D01*
X152146000Y-70104000D01*
X152146000Y-77724000D01*
G37*
X152146000Y-77724000D02*
X150749000Y-77724000D01*
X150749000Y-70104000D01*
X152146000Y-70104000D01*
X152146000Y-77724000D01*
D11*
X100076000Y-92075000D03*
X98298000Y-92075000D03*
D12*
X137068560Y-73212960D03*
X137068560Y-71310500D03*
X139278360Y-72265540D03*
X133055360Y-72265540D03*
X130845560Y-71310500D03*
X130845560Y-73212960D03*
D13*
X102870000Y-85090000D03*
D14*
X100270000Y-88540000D03*
X100670000Y-88540000D03*
X101070000Y-88540000D03*
X101470000Y-88540000D03*
X101870000Y-88540000D03*
X102270000Y-88540000D03*
X102670000Y-88540000D03*
X103070000Y-88540000D03*
X103470000Y-88540000D03*
X103870000Y-88540000D03*
X104270000Y-88540000D03*
X104670000Y-88540000D03*
X105070000Y-88540000D03*
X105470000Y-88540000D03*
D15*
X106320000Y-87690000D03*
X106320000Y-87290000D03*
X106320000Y-86890000D03*
X106320000Y-86490000D03*
X106320000Y-86090000D03*
X106320000Y-85690000D03*
X106320000Y-85290000D03*
X106320000Y-84890000D03*
X106320000Y-84490000D03*
X106320000Y-84090000D03*
X106320000Y-83690000D03*
X106320000Y-83290000D03*
X106320000Y-82890000D03*
X106320000Y-82490000D03*
D14*
X105470000Y-81640000D03*
X105070000Y-81640000D03*
X104670000Y-81640000D03*
X104270000Y-81640000D03*
X103870000Y-81640000D03*
X103470000Y-81640000D03*
X103070000Y-81640000D03*
X102670000Y-81640000D03*
X102270000Y-81640000D03*
X101870000Y-81640000D03*
X101470000Y-81640000D03*
X101070000Y-81640000D03*
X100670000Y-81640000D03*
X100270000Y-81640000D03*
D15*
X99420000Y-82490000D03*
X99420000Y-82890000D03*
X99420000Y-83290000D03*
X99420000Y-83690000D03*
X99420000Y-84090000D03*
X99420000Y-84490000D03*
X99420000Y-84890000D03*
X99420000Y-85290000D03*
X99420000Y-85690000D03*
X99420000Y-86090000D03*
X99420000Y-86490000D03*
X99420000Y-86890000D03*
X99420000Y-87290000D03*
D16*
X102870000Y-85090000D03*
D15*
X99420000Y-87690000D03*
D17*
X120650000Y-102870000D03*
D18*
X131445000Y-100838000D03*
X131445000Y-104902000D03*
X130175000Y-100838000D03*
X130175000Y-104902000D03*
X128905000Y-100838000D03*
X128905000Y-104902000D03*
X127635000Y-100838000D03*
X127635000Y-104902000D03*
X126365000Y-100838000D03*
X126365000Y-104902000D03*
X125095000Y-100838000D03*
X125095000Y-104902000D03*
X123825000Y-100838000D03*
X123825000Y-104902000D03*
X122555000Y-100838000D03*
X122555000Y-104902000D03*
X121285000Y-100838000D03*
X121285000Y-104902000D03*
X120015000Y-100838000D03*
X120015000Y-104902000D03*
X132715000Y-104902000D03*
X132715000Y-100838000D03*
X133985000Y-104902000D03*
X133985000Y-100838000D03*
X135255000Y-104902000D03*
X135255000Y-100838000D03*
X136525000Y-104902000D03*
X136525000Y-100838000D03*
X137795000Y-104902000D03*
X137795000Y-100838000D03*
X139065000Y-104902000D03*
X139065000Y-100838000D03*
X140335000Y-104902000D03*
X140335000Y-100838000D03*
X141605000Y-104902000D03*
X141605000Y-100838000D03*
X142875000Y-104902000D03*
X142875000Y-100838000D03*
X144145000Y-104902000D03*
X144145000Y-100838000D03*
D17*
X143510000Y-102870000D03*
X92710000Y-102870000D03*
D18*
X103505000Y-100838000D03*
X103505000Y-104902000D03*
X102235000Y-100838000D03*
X102235000Y-104902000D03*
X100965000Y-100838000D03*
X100965000Y-104902000D03*
X99695000Y-100838000D03*
X99695000Y-104902000D03*
X98425000Y-100838000D03*
X98425000Y-104902000D03*
X97155000Y-100838000D03*
X97155000Y-104902000D03*
X95885000Y-100838000D03*
X95885000Y-104902000D03*
X94615000Y-100838000D03*
X94615000Y-104902000D03*
X93345000Y-100838000D03*
X93345000Y-104902000D03*
X92075000Y-100838000D03*
X92075000Y-104902000D03*
X104775000Y-104902000D03*
X104775000Y-100838000D03*
X106045000Y-104902000D03*
X106045000Y-100838000D03*
X107315000Y-104902000D03*
X107315000Y-100838000D03*
X108585000Y-104902000D03*
X108585000Y-100838000D03*
X109855000Y-104902000D03*
X109855000Y-100838000D03*
X111125000Y-104902000D03*
X111125000Y-100838000D03*
X112395000Y-104902000D03*
X112395000Y-100838000D03*
X113665000Y-104902000D03*
X113665000Y-100838000D03*
X114935000Y-104902000D03*
X114935000Y-100838000D03*
X116205000Y-104902000D03*
X116205000Y-100838000D03*
D17*
X115570000Y-102870000D03*
X87630000Y-73660000D03*
D19*
X89662000Y-84455000D03*
X85598000Y-84455000D03*
X89662000Y-83185000D03*
X85598000Y-83185000D03*
X89662000Y-81915000D03*
X85598000Y-81915000D03*
X89662000Y-80645000D03*
X85598000Y-80645000D03*
X89662000Y-79375000D03*
X85598000Y-79375000D03*
X89662000Y-78105000D03*
X85598000Y-78105000D03*
X89662000Y-76835000D03*
X85598000Y-76835000D03*
X89662000Y-75565000D03*
X85598000Y-75565000D03*
X89662000Y-74295000D03*
X85598000Y-74295000D03*
X89662000Y-73025000D03*
X85598000Y-73025000D03*
X85598000Y-85725000D03*
X89662000Y-85725000D03*
X85598000Y-86995000D03*
X89662000Y-86995000D03*
X85598000Y-88265000D03*
X89662000Y-88265000D03*
X85598000Y-89535000D03*
X89662000Y-89535000D03*
X85598000Y-90805000D03*
X89662000Y-90805000D03*
X85598000Y-92075000D03*
X89662000Y-92075000D03*
X85598000Y-93345000D03*
X89662000Y-93345000D03*
X85598000Y-94615000D03*
X89662000Y-94615000D03*
X85598000Y-95885000D03*
X89662000Y-95885000D03*
X85598000Y-97155000D03*
X89662000Y-97155000D03*
D17*
X87630000Y-96520000D03*
D20*
X85090000Y-105410000D03*
X151130000Y-105410000D03*
X151130000Y-64770000D03*
D21*
X87630000Y-102870000D03*
X148590000Y-102870000D03*
X148590000Y-67310000D03*
X87630000Y-67310000D03*
D11*
X144780000Y-78359000D03*
X144780000Y-80137000D03*
X138557000Y-77978000D03*
X138557000Y-76200000D03*
X141605000Y-75819000D03*
X141605000Y-77597000D03*
X143256000Y-92329000D03*
X141478000Y-92329000D03*
D22*
X96647000Y-87122000D03*
X96647000Y-86106000D03*
X96647000Y-82550000D03*
X96647000Y-83566000D03*
D11*
X108966000Y-84328000D03*
X110744000Y-84328000D03*
X97663000Y-76073000D03*
X99441000Y-76073000D03*
X95758000Y-89916000D03*
X97536000Y-89916000D03*
X94615000Y-91948000D03*
X96393000Y-91948000D03*
X103759000Y-94996000D03*
X105537000Y-94996000D03*
X105537000Y-96520000D03*
X103759000Y-96520000D03*
X115570000Y-85344000D03*
X113792000Y-85344000D03*
X113284000Y-81534000D03*
X113284000Y-79756000D03*
X115570000Y-83058000D03*
X113792000Y-83058000D03*
X99441000Y-77597000D03*
X97663000Y-77597000D03*
X99568000Y-74676000D03*
X101346000Y-74676000D03*
X93472000Y-77089000D03*
X95250000Y-77089000D03*
X94615000Y-79121000D03*
X92837000Y-79121000D03*
X102362000Y-94488000D03*
X100584000Y-94488000D03*
X102362000Y-96012000D03*
X100584000Y-96012000D03*
X102616000Y-74676000D03*
X104394000Y-74676000D03*
X123444000Y-77597000D03*
X121666000Y-77597000D03*
X130556000Y-82296000D03*
X130556000Y-80518000D03*
D23*
X93472000Y-99060000D03*
X92456000Y-99060000D03*
D11*
X114681000Y-80010000D03*
X116459000Y-80010000D03*
X114681000Y-81534000D03*
X116459000Y-81534000D03*
X119888000Y-93726000D03*
X119888000Y-91948000D03*
D22*
X121666000Y-92202000D03*
X121666000Y-93218000D03*
X116840000Y-84328000D03*
X116840000Y-85344000D03*
D23*
X116713000Y-92456000D03*
X115697000Y-92456000D03*
X113919000Y-92456000D03*
X114935000Y-92456000D03*
D22*
X119507000Y-95504000D03*
X119507000Y-96520000D03*
D23*
X114300000Y-93980000D03*
X115316000Y-93980000D03*
D17*
X115570000Y-67310000D03*
D18*
X116205000Y-65278000D03*
X116205000Y-69342000D03*
X114935000Y-65278000D03*
X114935000Y-69342000D03*
X113665000Y-65278000D03*
X113665000Y-69342000D03*
X112395000Y-65278000D03*
X112395000Y-69342000D03*
X111125000Y-65278000D03*
X111125000Y-69342000D03*
X109855000Y-65278000D03*
X109855000Y-69342000D03*
X108585000Y-65278000D03*
X108585000Y-69342000D03*
X107315000Y-65278000D03*
X107315000Y-69342000D03*
X106045000Y-65278000D03*
X106045000Y-69342000D03*
X104775000Y-65278000D03*
X104775000Y-69342000D03*
X92075000Y-69342000D03*
X92075000Y-65278000D03*
X93345000Y-69342000D03*
X93345000Y-65278000D03*
X94615000Y-69342000D03*
X94615000Y-65278000D03*
X95885000Y-69342000D03*
X95885000Y-65278000D03*
X97155000Y-69342000D03*
X97155000Y-65278000D03*
X98425000Y-69342000D03*
X98425000Y-65278000D03*
X99695000Y-69342000D03*
X99695000Y-65278000D03*
X100965000Y-69342000D03*
X100965000Y-65278000D03*
X102235000Y-69342000D03*
X102235000Y-65278000D03*
X103505000Y-69342000D03*
X103505000Y-65278000D03*
D17*
X92710000Y-67310000D03*
X120650000Y-67310000D03*
D18*
X131445000Y-65278000D03*
X131445000Y-69342000D03*
X130175000Y-65278000D03*
X130175000Y-69342000D03*
X128905000Y-65278000D03*
X128905000Y-69342000D03*
X127635000Y-65278000D03*
X127635000Y-69342000D03*
X126365000Y-65278000D03*
X126365000Y-69342000D03*
X125095000Y-65278000D03*
X125095000Y-69342000D03*
X123825000Y-65278000D03*
X123825000Y-69342000D03*
X122555000Y-65278000D03*
X122555000Y-69342000D03*
X121285000Y-65278000D03*
X121285000Y-69342000D03*
X120015000Y-65278000D03*
X120015000Y-69342000D03*
X132715000Y-69342000D03*
X132715000Y-65278000D03*
X133985000Y-69342000D03*
X133985000Y-65278000D03*
X135255000Y-69342000D03*
X135255000Y-65278000D03*
X136525000Y-69342000D03*
X136525000Y-65278000D03*
X137795000Y-69342000D03*
X137795000Y-65278000D03*
X139065000Y-69342000D03*
X139065000Y-65278000D03*
X140335000Y-69342000D03*
X140335000Y-65278000D03*
X141605000Y-69342000D03*
X141605000Y-65278000D03*
X142875000Y-69342000D03*
X142875000Y-65278000D03*
X144145000Y-69342000D03*
X144145000Y-65278000D03*
D17*
X143510000Y-67310000D03*
D24*
X106172000Y-90948000D03*
X106172000Y-92948000D03*
D25*
X108966000Y-86360000D03*
X110966000Y-86360000D03*
X110982000Y-82296000D03*
X108982000Y-82296000D03*
D24*
X101346000Y-77232000D03*
X101346000Y-79232000D03*
D26*
X94996000Y-83459000D03*
X94996000Y-85959000D03*
D27*
X113812000Y-90551000D03*
X116312000Y-90551000D03*
D28*
X115867000Y-95339000D03*
X118067000Y-96939000D03*
X118067000Y-95339000D03*
X115867000Y-96939000D03*
D22*
X137668000Y-82423000D03*
X137668000Y-83439000D03*
D23*
X139954000Y-83566000D03*
X138938000Y-83566000D03*
X141732000Y-83185000D03*
X140716000Y-83185000D03*
D22*
X137668000Y-87757000D03*
X137668000Y-86741000D03*
D23*
X139827000Y-86360000D03*
X138811000Y-86360000D03*
X141732000Y-86868000D03*
X140716000Y-86868000D03*
D22*
X106426000Y-77343000D03*
X106426000Y-78359000D03*
D23*
X107188000Y-73025000D03*
X106172000Y-73025000D03*
X107188000Y-72009000D03*
X106172000Y-72009000D03*
D22*
X96647000Y-85344000D03*
X96647000Y-84328000D03*
X108077000Y-90043000D03*
X108077000Y-91059000D03*
D23*
X110744000Y-88011000D03*
X111760000Y-88011000D03*
X109982000Y-90551000D03*
X108966000Y-90551000D03*
D22*
X109855000Y-89154000D03*
X109855000Y-88138000D03*
D23*
X126873000Y-91821000D03*
X127889000Y-91821000D03*
X125603000Y-91694000D03*
X124587000Y-91694000D03*
D22*
X122555000Y-92202000D03*
X122555000Y-93218000D03*
D23*
X117221000Y-77470000D03*
X118237000Y-77470000D03*
D22*
X118999000Y-89027000D03*
X118999000Y-88011000D03*
D23*
X116078000Y-88773000D03*
X117094000Y-88773000D03*
X117094000Y-93980000D03*
X116078000Y-93980000D03*
D29*
X93171000Y-97663000D03*
X93171000Y-96393000D03*
X93171000Y-95123000D03*
X93171000Y-93853000D03*
X98171000Y-93853000D03*
X98171000Y-95123000D03*
X98171000Y-96393000D03*
X98171000Y-97663000D03*
D30*
X147640040Y-72425560D03*
X149542500Y-72425560D03*
X148587460Y-74635360D03*
X144203420Y-74254360D03*
X145158460Y-72044560D03*
X143256000Y-72044560D03*
D22*
X146431000Y-71501000D03*
X146431000Y-72517000D03*
X141986000Y-71120000D03*
X141986000Y-72136000D03*
X146939000Y-75819000D03*
X146939000Y-74803000D03*
X145923000Y-74803000D03*
X145923000Y-75819000D03*
X129413000Y-71882000D03*
X129413000Y-72898000D03*
X135763000Y-71755000D03*
X135763000Y-72771000D03*
X134493000Y-71374000D03*
X134493000Y-72390000D03*
X140716000Y-72898000D03*
X140716000Y-71882000D03*
D31*
X124028200Y-84505800D03*
X124028200Y-84074000D03*
X123000000Y-84534100D03*
X123000000Y-84965900D03*
D32*
X125488700Y-84023200D03*
X125056900Y-84023200D03*
X122453400Y-84000000D03*
X122021600Y-84000000D03*
D31*
X123063000Y-83034100D03*
X123063000Y-83465900D03*
X123952000Y-83465900D03*
X123952000Y-83034100D03*
D32*
X125044200Y-83007200D03*
X124612400Y-83007200D03*
D31*
X122986800Y-81661000D03*
X122986800Y-82092800D03*
X124002800Y-86995000D03*
X124002800Y-86563200D03*
X122986800Y-86448900D03*
X122986800Y-86880700D03*
D32*
X126022100Y-86004400D03*
X126453900Y-86004400D03*
X125590300Y-82956400D03*
X126022100Y-82956400D03*
X126453900Y-84023200D03*
X126022100Y-84023200D03*
D31*
X119507000Y-83108800D03*
X119507000Y-82677000D03*
D32*
X121500900Y-85000000D03*
X121069100Y-85000000D03*
X126022100Y-85000000D03*
X126453900Y-85000000D03*
X124500000Y-86000000D03*
X124931800Y-86000000D03*
X121500900Y-86000000D03*
X121069100Y-86000000D03*
X122453400Y-86004400D03*
X122021600Y-86004400D03*
X121069100Y-86918800D03*
X121500900Y-86918800D03*
X125514100Y-87045800D03*
X125945900Y-87045800D03*
D31*
X127000000Y-82003900D03*
X127000000Y-81572100D03*
D32*
X127330200Y-87985600D03*
X126898400Y-87985600D03*
D31*
X127254000Y-86944200D03*
X127254000Y-87376000D03*
D32*
X127673100Y-85979000D03*
X127241300Y-85979000D03*
X127241300Y-85064600D03*
X127673100Y-85064600D03*
X127495300Y-83947000D03*
X127063500Y-83947000D03*
X127114300Y-82956400D03*
X127546100Y-82956400D03*
X119138700Y-85013800D03*
X119570500Y-85013800D03*
X117386100Y-86000000D03*
X117817900Y-86000000D03*
X120230900Y-86995000D03*
X119799100Y-86995000D03*
X98005900Y-88773000D03*
X97574100Y-88773000D03*
D31*
X124002800Y-81267300D03*
X124002800Y-81699100D03*
D32*
X125590300Y-81991200D03*
X126022100Y-81991200D03*
X125514100Y-87833200D03*
X125945900Y-87833200D03*
D31*
X121005600Y-80975200D03*
X121005600Y-81407000D03*
X124993400Y-81699100D03*
X124993400Y-81267300D03*
X118999000Y-80556100D03*
X118999000Y-80987900D03*
D32*
X119830900Y-84000000D03*
X119399100Y-84000000D03*
X118465600Y-83007200D03*
X118033800Y-83007200D03*
D31*
X124917200Y-89014300D03*
X124917200Y-88582500D03*
X123000000Y-88034100D03*
X123000000Y-88465900D03*
X120091200Y-81216500D03*
X120091200Y-81648300D03*
X120396000Y-83362800D03*
X120396000Y-82931000D03*
X121539000Y-82677000D03*
X121539000Y-83108800D03*
X120015000Y-88442800D03*
X120015000Y-88011000D03*
X121412000Y-87630000D03*
X121412000Y-88061800D03*
D32*
X119799100Y-86000000D03*
X120230900Y-86000000D03*
D31*
X124002800Y-85521800D03*
X124002800Y-85090000D03*
D32*
X121031000Y-83947000D03*
X121462800Y-83947000D03*
X123367800Y-87444580D03*
X122936000Y-87444580D03*
D31*
X123985020Y-87673180D03*
X123985020Y-88104980D03*
X135636000Y-81838800D03*
X135636000Y-81407000D03*
X142494000Y-82042000D03*
X142494000Y-81610200D03*
X138938000Y-87503000D03*
X138938000Y-87934800D03*
X144399000Y-88315800D03*
X144399000Y-87884000D03*
X140335000Y-82346800D03*
X140335000Y-81915000D03*
D32*
X144200000Y-86360000D03*
X143768200Y-86360000D03*
X139992100Y-89281000D03*
X140423900Y-89281000D03*
X135940800Y-89789000D03*
X135509000Y-89789000D03*
D31*
X136398000Y-82346800D03*
X136398000Y-81915000D03*
X135382000Y-87210900D03*
X135382000Y-86779100D03*
D32*
X140208000Y-80518000D03*
X139776200Y-80518000D03*
X138938000Y-89789000D03*
X138506200Y-89789000D03*
X144526000Y-84074000D03*
X144094200Y-84074000D03*
X142798800Y-84963000D03*
X142367000Y-84963000D03*
D31*
X135636000Y-80733900D03*
X135636000Y-80302100D03*
X144526000Y-90512900D03*
X144526000Y-90081100D03*
X135432800Y-83642200D03*
X135432800Y-84074000D03*
D32*
X136105900Y-88138000D03*
X135674100Y-88138000D03*
X138734800Y-80391000D03*
X138303000Y-80391000D03*
X137502900Y-91059000D03*
X137071100Y-91059000D03*
D22*
X94869000Y-81280000D03*
X94869000Y-80264000D03*
D23*
X92329000Y-81534000D03*
X91313000Y-81534000D03*
X92329000Y-83566000D03*
X91313000Y-83566000D03*
D33*
X148590000Y-90170000D03*
D19*
X146558000Y-79375000D03*
X150622000Y-79375000D03*
X146558000Y-80645000D03*
X150622000Y-80645000D03*
X146558000Y-81915000D03*
X150622000Y-81915000D03*
X146558000Y-83185000D03*
X150622000Y-83185000D03*
X146558000Y-84455000D03*
X150622000Y-84455000D03*
X146558000Y-85725000D03*
X150622000Y-85725000D03*
X146558000Y-86995000D03*
X150622000Y-86995000D03*
X146558000Y-88265000D03*
X150622000Y-88265000D03*
X146558000Y-89535000D03*
X150622000Y-89535000D03*
X146558000Y-90805000D03*
X150622000Y-90805000D03*
D33*
X148590000Y-80010000D03*
D23*
X94869000Y-75184000D03*
X93853000Y-75184000D03*
X92329000Y-84582000D03*
X91313000Y-84582000D03*
D32*
X129501900Y-85979000D03*
X129070100Y-85979000D03*
D25*
X98155000Y-79756000D03*
X96155000Y-79756000D03*
D24*
X103124000Y-91075000D03*
X103124000Y-93075000D03*
M02*
