G04 #@! TF.GenerationSoftware,KiCad,Pcbnew,5.1.0-rc2-unknown-036be7d~80~ubuntu16.04.1*
G04 #@! TF.CreationDate,2023-04-21T13:27:13+03:00*
G04 #@! TF.ProjectId,iMX8MPLUS-SOM_Rev_B,694d5838-4d50-44c5-9553-2d534f4d5f52,A*
G04 #@! TF.SameCoordinates,Original*
G04 #@! TF.FileFunction,Legend,Top*
G04 #@! TF.FilePolarity,Positive*
%FSLAX46Y46*%
G04 Gerber Fmt 4.6, Leading zero omitted, Abs format (unit mm)*
G04 Created by KiCad (PCBNEW 5.1.0-rc2-unknown-036be7d~80~ubuntu16.04.1) date 2023-04-21 13:27:13*
%MOMM*%
%LPD*%
G04 APERTURE LIST*
%ADD10C,0.190500*%
%ADD11C,0.304800*%
%ADD12C,0.444500*%
%ADD13C,0.254000*%
%ADD14C,0.508000*%
%ADD15C,0.300000*%
%ADD16C,0.127000*%
%ADD17C,0.150000*%
%ADD18C,0.200000*%
%ADD19C,0.400000*%
%ADD20C,0.700000*%
%ADD21C,0.500000*%
%ADD22C,0.100000*%
%ADD23C,0.050000*%
%ADD24C,0.350000*%
G04 APERTURE END LIST*
D10*
X145886714Y-85688714D02*
X145451285Y-85688714D01*
X145669000Y-85688714D02*
X145669000Y-84926714D01*
X145596428Y-85035571D01*
X145523857Y-85108142D01*
X145451285Y-85144428D01*
X136996714Y-100547714D02*
X136561285Y-100547714D01*
X136779000Y-100547714D02*
X136779000Y-99785714D01*
X136706428Y-99894571D01*
X136633857Y-99967142D01*
X136561285Y-100003428D01*
X110453714Y-100039714D02*
X110018285Y-100039714D01*
X110236000Y-100039714D02*
X110236000Y-99277714D01*
X110163428Y-99386571D01*
X110090857Y-99459142D01*
X110018285Y-99495428D01*
D11*
X97275952Y-74657857D02*
X97517857Y-75504523D01*
X97759761Y-74899761D01*
X98001666Y-75504523D01*
X98243571Y-74657857D01*
X98606428Y-74657857D02*
X98848333Y-75504523D01*
X99090238Y-74899761D01*
X99332142Y-75504523D01*
X99574047Y-74657857D01*
X99936904Y-74657857D02*
X100178809Y-75504523D01*
X100420714Y-74899761D01*
X100662619Y-75504523D01*
X100904523Y-74657857D01*
X101388333Y-75383571D02*
X101448809Y-75444047D01*
X101388333Y-75504523D01*
X101327857Y-75444047D01*
X101388333Y-75383571D01*
X101388333Y-75504523D01*
X102174523Y-75504523D02*
X102053571Y-75444047D01*
X101993095Y-75383571D01*
X101932619Y-75262619D01*
X101932619Y-74899761D01*
X101993095Y-74778809D01*
X102053571Y-74718333D01*
X102174523Y-74657857D01*
X102355952Y-74657857D01*
X102476904Y-74718333D01*
X102537380Y-74778809D01*
X102597857Y-74899761D01*
X102597857Y-75262619D01*
X102537380Y-75383571D01*
X102476904Y-75444047D01*
X102355952Y-75504523D01*
X102174523Y-75504523D01*
X103323571Y-75504523D02*
X103202619Y-75444047D01*
X103142142Y-75323095D01*
X103142142Y-74234523D01*
X103807380Y-75504523D02*
X103807380Y-74657857D01*
X103807380Y-74234523D02*
X103746904Y-74295000D01*
X103807380Y-74355476D01*
X103867857Y-74295000D01*
X103807380Y-74234523D01*
X103807380Y-74355476D01*
X104412142Y-75504523D02*
X104412142Y-74657857D01*
X104412142Y-74778809D02*
X104472619Y-74718333D01*
X104593571Y-74657857D01*
X104775000Y-74657857D01*
X104895952Y-74718333D01*
X104956428Y-74839285D01*
X104956428Y-75504523D01*
X104956428Y-74839285D02*
X105016904Y-74718333D01*
X105137857Y-74657857D01*
X105319285Y-74657857D01*
X105440238Y-74718333D01*
X105500714Y-74839285D01*
X105500714Y-75504523D01*
X106589285Y-75444047D02*
X106468333Y-75504523D01*
X106226428Y-75504523D01*
X106105476Y-75444047D01*
X106045000Y-75323095D01*
X106045000Y-74839285D01*
X106105476Y-74718333D01*
X106226428Y-74657857D01*
X106468333Y-74657857D01*
X106589285Y-74718333D01*
X106649761Y-74839285D01*
X106649761Y-74960238D01*
X106045000Y-75081190D01*
X107073095Y-75504523D02*
X107738333Y-74657857D01*
X107073095Y-74657857D02*
X107738333Y-75504523D01*
X108222142Y-75383571D02*
X108282619Y-75444047D01*
X108222142Y-75504523D01*
X108161666Y-75444047D01*
X108222142Y-75383571D01*
X108222142Y-75504523D01*
X109371190Y-75444047D02*
X109250238Y-75504523D01*
X109008333Y-75504523D01*
X108887380Y-75444047D01*
X108826904Y-75383571D01*
X108766428Y-75262619D01*
X108766428Y-74899761D01*
X108826904Y-74778809D01*
X108887380Y-74718333D01*
X109008333Y-74657857D01*
X109250238Y-74657857D01*
X109371190Y-74718333D01*
X110096904Y-75504523D02*
X109975952Y-75444047D01*
X109915476Y-75383571D01*
X109855000Y-75262619D01*
X109855000Y-74899761D01*
X109915476Y-74778809D01*
X109975952Y-74718333D01*
X110096904Y-74657857D01*
X110278333Y-74657857D01*
X110399285Y-74718333D01*
X110459761Y-74778809D01*
X110520238Y-74899761D01*
X110520238Y-75262619D01*
X110459761Y-75383571D01*
X110399285Y-75444047D01*
X110278333Y-75504523D01*
X110096904Y-75504523D01*
X111064523Y-75504523D02*
X111064523Y-74657857D01*
X111064523Y-74778809D02*
X111125000Y-74718333D01*
X111245952Y-74657857D01*
X111427380Y-74657857D01*
X111548333Y-74718333D01*
X111608809Y-74839285D01*
X111608809Y-75504523D01*
X111608809Y-74839285D02*
X111669285Y-74718333D01*
X111790238Y-74657857D01*
X111971666Y-74657857D01*
X112092619Y-74718333D01*
X112153095Y-74839285D01*
X112153095Y-75504523D01*
X107278714Y-68876333D02*
X107218238Y-68815857D01*
X107097285Y-68634428D01*
X107036809Y-68513476D01*
X106976333Y-68332047D01*
X106915857Y-68029666D01*
X106915857Y-67787761D01*
X106976333Y-67485380D01*
X107036809Y-67303952D01*
X107097285Y-67183000D01*
X107218238Y-67001571D01*
X107278714Y-66941095D01*
X108488238Y-68271571D02*
X108427761Y-68332047D01*
X108246333Y-68392523D01*
X108125380Y-68392523D01*
X107943952Y-68332047D01*
X107823000Y-68211095D01*
X107762523Y-68090142D01*
X107702047Y-67848238D01*
X107702047Y-67666809D01*
X107762523Y-67424904D01*
X107823000Y-67303952D01*
X107943952Y-67183000D01*
X108125380Y-67122523D01*
X108246333Y-67122523D01*
X108427761Y-67183000D01*
X108488238Y-67243476D01*
X108911571Y-68876333D02*
X108972047Y-68815857D01*
X109093000Y-68634428D01*
X109153476Y-68513476D01*
X109213952Y-68332047D01*
X109274428Y-68029666D01*
X109274428Y-67787761D01*
X109213952Y-67485380D01*
X109153476Y-67303952D01*
X109093000Y-67183000D01*
X108972047Y-67001571D01*
X108911571Y-66941095D01*
X110786333Y-67243476D02*
X110846809Y-67183000D01*
X110967761Y-67122523D01*
X111270142Y-67122523D01*
X111391095Y-67183000D01*
X111451571Y-67243476D01*
X111512047Y-67364428D01*
X111512047Y-67485380D01*
X111451571Y-67666809D01*
X110725857Y-68392523D01*
X111512047Y-68392523D01*
X112298238Y-67122523D02*
X112419190Y-67122523D01*
X112540142Y-67183000D01*
X112600619Y-67243476D01*
X112661095Y-67364428D01*
X112721571Y-67606333D01*
X112721571Y-67908714D01*
X112661095Y-68150619D01*
X112600619Y-68271571D01*
X112540142Y-68332047D01*
X112419190Y-68392523D01*
X112298238Y-68392523D01*
X112177285Y-68332047D01*
X112116809Y-68271571D01*
X112056333Y-68150619D01*
X111995857Y-67908714D01*
X111995857Y-67606333D01*
X112056333Y-67364428D01*
X112116809Y-67243476D01*
X112177285Y-67183000D01*
X112298238Y-67122523D01*
X113205380Y-67243476D02*
X113265857Y-67183000D01*
X113386809Y-67122523D01*
X113689190Y-67122523D01*
X113810142Y-67183000D01*
X113870619Y-67243476D01*
X113931095Y-67364428D01*
X113931095Y-67485380D01*
X113870619Y-67666809D01*
X113144904Y-68392523D01*
X113931095Y-68392523D01*
X114354428Y-67122523D02*
X115140619Y-67122523D01*
X114717285Y-67606333D01*
X114898714Y-67606333D01*
X115019666Y-67666809D01*
X115080142Y-67727285D01*
X115140619Y-67848238D01*
X115140619Y-68150619D01*
X115080142Y-68271571D01*
X115019666Y-68332047D01*
X114898714Y-68392523D01*
X114535857Y-68392523D01*
X114414904Y-68332047D01*
X114354428Y-68271571D01*
D12*
X94657333Y-66082333D02*
X94657333Y-64897000D01*
X94657333Y-64304333D02*
X94572666Y-64389000D01*
X94657333Y-64473666D01*
X94742000Y-64389000D01*
X94657333Y-64304333D01*
X94657333Y-64473666D01*
X95504000Y-66082333D02*
X95504000Y-64304333D01*
X96096666Y-65574333D01*
X96689333Y-64304333D01*
X96689333Y-66082333D01*
X97366666Y-64304333D02*
X98552000Y-66082333D01*
X98552000Y-64304333D02*
X97366666Y-66082333D01*
X99483333Y-65066333D02*
X99314000Y-64981666D01*
X99229333Y-64897000D01*
X99144666Y-64727666D01*
X99144666Y-64643000D01*
X99229333Y-64473666D01*
X99314000Y-64389000D01*
X99483333Y-64304333D01*
X99822000Y-64304333D01*
X99991333Y-64389000D01*
X100076000Y-64473666D01*
X100160666Y-64643000D01*
X100160666Y-64727666D01*
X100076000Y-64897000D01*
X99991333Y-64981666D01*
X99822000Y-65066333D01*
X99483333Y-65066333D01*
X99314000Y-65151000D01*
X99229333Y-65235666D01*
X99144666Y-65405000D01*
X99144666Y-65743666D01*
X99229333Y-65913000D01*
X99314000Y-65997666D01*
X99483333Y-66082333D01*
X99822000Y-66082333D01*
X99991333Y-65997666D01*
X100076000Y-65913000D01*
X100160666Y-65743666D01*
X100160666Y-65405000D01*
X100076000Y-65235666D01*
X99991333Y-65151000D01*
X99822000Y-65066333D01*
X100922666Y-66082333D02*
X100922666Y-64304333D01*
X101515333Y-65574333D01*
X102108000Y-64304333D01*
X102108000Y-66082333D01*
X102954666Y-66082333D02*
X102954666Y-64304333D01*
X103632000Y-64304333D01*
X103801333Y-64389000D01*
X103886000Y-64473666D01*
X103970666Y-64643000D01*
X103970666Y-64897000D01*
X103886000Y-65066333D01*
X103801333Y-65151000D01*
X103632000Y-65235666D01*
X102954666Y-65235666D01*
X105579333Y-66082333D02*
X104732666Y-66082333D01*
X104732666Y-64304333D01*
X106172000Y-64304333D02*
X106172000Y-65743666D01*
X106256666Y-65913000D01*
X106341333Y-65997666D01*
X106510666Y-66082333D01*
X106849333Y-66082333D01*
X107018666Y-65997666D01*
X107103333Y-65913000D01*
X107188000Y-65743666D01*
X107188000Y-64304333D01*
X107950000Y-65997666D02*
X108204000Y-66082333D01*
X108627333Y-66082333D01*
X108796666Y-65997666D01*
X108881333Y-65913000D01*
X108966000Y-65743666D01*
X108966000Y-65574333D01*
X108881333Y-65405000D01*
X108796666Y-65320333D01*
X108627333Y-65235666D01*
X108288666Y-65151000D01*
X108119333Y-65066333D01*
X108034666Y-64981666D01*
X107950000Y-64812333D01*
X107950000Y-64643000D01*
X108034666Y-64473666D01*
X108119333Y-64389000D01*
X108288666Y-64304333D01*
X108712000Y-64304333D01*
X108966000Y-64389000D01*
X109728000Y-65405000D02*
X111082666Y-65405000D01*
X111844666Y-65997666D02*
X112098666Y-66082333D01*
X112522000Y-66082333D01*
X112691333Y-65997666D01*
X112776000Y-65913000D01*
X112860666Y-65743666D01*
X112860666Y-65574333D01*
X112776000Y-65405000D01*
X112691333Y-65320333D01*
X112522000Y-65235666D01*
X112183333Y-65151000D01*
X112014000Y-65066333D01*
X111929333Y-64981666D01*
X111844666Y-64812333D01*
X111844666Y-64643000D01*
X111929333Y-64473666D01*
X112014000Y-64389000D01*
X112183333Y-64304333D01*
X112606666Y-64304333D01*
X112860666Y-64389000D01*
X113961333Y-64304333D02*
X114300000Y-64304333D01*
X114469333Y-64389000D01*
X114638666Y-64558333D01*
X114723333Y-64897000D01*
X114723333Y-65489666D01*
X114638666Y-65828333D01*
X114469333Y-65997666D01*
X114300000Y-66082333D01*
X113961333Y-66082333D01*
X113792000Y-65997666D01*
X113622666Y-65828333D01*
X113538000Y-65489666D01*
X113538000Y-64897000D01*
X113622666Y-64558333D01*
X113792000Y-64389000D01*
X113961333Y-64304333D01*
X115485333Y-66082333D02*
X115485333Y-64304333D01*
X116078000Y-65574333D01*
X116670666Y-64304333D01*
X116670666Y-66082333D01*
D11*
X95201619Y-68265523D02*
X94778285Y-67660761D01*
X94475904Y-68265523D02*
X94475904Y-66995523D01*
X94959714Y-66995523D01*
X95080666Y-67056000D01*
X95141142Y-67116476D01*
X95201619Y-67237428D01*
X95201619Y-67418857D01*
X95141142Y-67539809D01*
X95080666Y-67600285D01*
X94959714Y-67660761D01*
X94475904Y-67660761D01*
X96229714Y-68205047D02*
X96108761Y-68265523D01*
X95866857Y-68265523D01*
X95745904Y-68205047D01*
X95685428Y-68084095D01*
X95685428Y-67600285D01*
X95745904Y-67479333D01*
X95866857Y-67418857D01*
X96108761Y-67418857D01*
X96229714Y-67479333D01*
X96290190Y-67600285D01*
X96290190Y-67721238D01*
X95685428Y-67842190D01*
X96713523Y-67418857D02*
X97015904Y-68265523D01*
X97318285Y-67418857D01*
X97802095Y-68144571D02*
X97862571Y-68205047D01*
X97802095Y-68265523D01*
X97741619Y-68205047D01*
X97802095Y-68144571D01*
X97802095Y-68265523D01*
X98830190Y-67600285D02*
X99011619Y-67660761D01*
X99072095Y-67721238D01*
X99132571Y-67842190D01*
X99132571Y-68023619D01*
X99072095Y-68144571D01*
X99011619Y-68205047D01*
X98890666Y-68265523D01*
X98406857Y-68265523D01*
X98406857Y-66995523D01*
X98830190Y-66995523D01*
X98951142Y-67056000D01*
X99011619Y-67116476D01*
X99072095Y-67237428D01*
X99072095Y-67358380D01*
X99011619Y-67479333D01*
X98951142Y-67539809D01*
X98830190Y-67600285D01*
X98406857Y-67600285D01*
D13*
X140589444Y-69493371D02*
G75*
G03X140843000Y-70104000I865696J1511D01*
G01*
X142035980Y-67998180D02*
G75*
G03X141528800Y-69029580I991420J-1127920D01*
G01*
X141118660Y-70134046D02*
G75*
G03X141528800Y-69037200I-1118940J1043506D01*
G01*
X140841212Y-70232791D02*
G75*
G03X141145260Y-70106540I-752J431051D01*
G01*
X141407660Y-70226613D02*
G75*
G03X141909800Y-69430900I-709440J1003993D01*
G01*
X142289205Y-68092066D02*
G75*
G03X141935200Y-69082920I1408755J-1061974D01*
G01*
X141756073Y-70232303D02*
G75*
G03X141955520Y-70208140I1327J824263D01*
G01*
X141957503Y-70207453D02*
G75*
G03X142537180Y-69933820I-205183J1185493D01*
G01*
X142561054Y-69911974D02*
G75*
G03X142875000Y-69154040I-757934J757934D01*
G01*
X142874717Y-69154487D02*
G75*
G03X142803880Y-68785740I-992857J447D01*
G01*
X142739852Y-67851136D02*
G75*
G03X142803880Y-68785740I1478808J-368184D01*
G01*
X141438000Y-67872511D02*
G75*
G03X140716000Y-68516500I601340J-1400909D01*
G01*
X140662206Y-68612321D02*
G75*
G03X140462000Y-69367400I1323794J-755079D01*
G01*
X140460126Y-69367901D02*
G75*
G03X140545820Y-69811900I1195674J501D01*
G01*
X140416280Y-70486612D02*
G75*
G03X140708380Y-70365620I0J413092D01*
G01*
X140058866Y-70336954D02*
G75*
G03X140416280Y-70485000I357414J357414D01*
G01*
X139685742Y-70502710D02*
G75*
G03X139954000Y-69850000I-653762J650170D01*
G01*
X139448022Y-71120280D02*
G75*
G03X139954000Y-69895720I-1228842J1224560D01*
G01*
X135883621Y-66581186D02*
G75*
G03X137226040Y-66796920I1812319J6992786D01*
G01*
X139007870Y-67370934D02*
G75*
G03X137744200Y-66870580I-2134890J-3545866D01*
G01*
X140074359Y-68448765D02*
G75*
G03X139019280Y-67378580I-3831299J-2722035D01*
G01*
X139954845Y-69723069D02*
G75*
G03X139834620Y-68785740I-762845J378529D01*
G01*
X139663527Y-68597156D02*
G75*
G03X137109200Y-67327780I-3654147J-4148444D01*
G01*
X134772459Y-66516778D02*
G75*
G03X136799320Y-67266820I2631381J3997218D01*
G01*
X139506451Y-70808559D02*
G75*
G03X139954000Y-69723000I-1086611J1083019D01*
G01*
X140080240Y-68071243D02*
G75*
G03X140020040Y-67393820I-3049780J70363D01*
G01*
X139873264Y-66790585D02*
G75*
G03X137822940Y-65278000I-2144304J-760715D01*
G01*
X133959048Y-65133522D02*
G75*
G03X135674100Y-65473580I1268012J1900222D01*
G01*
X135985067Y-69057013D02*
G75*
G03X137850880Y-69723000I1738813J1924813D01*
G01*
X133964536Y-66637447D02*
G75*
G03X135945880Y-69019420I8344044J4925607D01*
G01*
X139677140Y-69446140D02*
G75*
G03X138958320Y-69448680I-358140J-360680D01*
G01*
X138366500Y-69725066D02*
G75*
G03X138904980Y-69502020I0J761526D01*
G01*
X138049000Y-73533000D02*
G75*
G03X139573000Y-72009000I0J1524000D01*
G01*
X124714000Y-72009000D02*
G75*
G03X126238000Y-73533000I1524000J0D01*
G01*
X126238000Y-70485000D02*
G75*
G03X124714000Y-72009000I0J-1524000D01*
G01*
X139573000Y-72009000D02*
G75*
G03X138049000Y-70485000I-1524000J0D01*
G01*
X141605000Y-70104000D02*
X142113000Y-70104000D01*
X141732000Y-69977000D02*
X142367000Y-69977000D01*
X141859000Y-69850000D02*
X142494000Y-69850000D01*
X141859000Y-69723000D02*
X142621000Y-69723000D01*
X141909800Y-69596000D02*
X142748000Y-69596000D01*
X141986000Y-69469000D02*
X142748000Y-69469000D01*
X141986000Y-69342000D02*
X142748000Y-69342000D01*
X141986000Y-69215000D02*
X142748000Y-69215000D01*
X141986000Y-69088000D02*
X142748000Y-69088000D01*
X141986000Y-68961000D02*
X142748000Y-68961000D01*
X141986000Y-68834000D02*
X142748000Y-68834000D01*
X141986000Y-68707000D02*
X142621000Y-68707000D01*
X142113000Y-68580000D02*
X142621000Y-68580000D01*
X142113000Y-68453000D02*
X142621000Y-68453000D01*
X142494000Y-67945000D02*
X142494000Y-68453000D01*
X142367000Y-67945000D02*
X142367000Y-68453000D01*
X142240000Y-67564000D02*
X142748000Y-67564000D01*
X142113000Y-67691000D02*
X142748000Y-67691000D01*
X141859000Y-67818000D02*
X142621000Y-67818000D01*
X142367000Y-67945000D02*
X141478000Y-67945000D01*
X142494000Y-67945000D02*
X142367000Y-67945000D01*
X142621000Y-67945000D02*
X142494000Y-67945000D01*
X141859000Y-68072000D02*
X141351000Y-68072000D01*
X141732000Y-68199000D02*
X141097000Y-68199000D01*
X141732000Y-68326000D02*
X140970000Y-68326000D01*
X141605000Y-68453000D02*
X140843000Y-68453000D01*
X141605000Y-68580000D02*
X140716000Y-68580000D01*
X141478000Y-68707000D02*
X140716000Y-68707000D01*
X141478000Y-68834000D02*
X140716000Y-68834000D01*
X141478000Y-68961000D02*
X140589000Y-68961000D01*
X141478000Y-69088000D02*
X140589000Y-69088000D01*
X140716000Y-69850000D02*
X141224000Y-69850000D01*
X140716000Y-69723000D02*
X141351000Y-69723000D01*
X140589000Y-69596000D02*
X141351000Y-69596000D01*
X140589000Y-69469000D02*
X141351000Y-69469000D01*
X140716000Y-69342000D02*
X141351000Y-69342000D01*
X141224000Y-69215000D02*
X141224000Y-69723000D01*
X141478000Y-69215000D02*
X140970000Y-70104000D01*
X141224000Y-69215000D02*
X141478000Y-69215000D01*
X140843000Y-69215000D02*
X141224000Y-69215000D01*
X140716000Y-69850000D02*
X140716000Y-69977000D01*
X140716000Y-69723000D02*
X140716000Y-69850000D01*
X140716000Y-69342000D02*
X140716000Y-69723000D01*
X140716000Y-69215000D02*
X140716000Y-69342000D01*
X140843000Y-69215000D02*
X140843000Y-69850000D01*
X140716000Y-69215000D02*
X140843000Y-69215000D01*
X140589000Y-69215000D02*
X140716000Y-69215000D01*
X140589000Y-69469000D02*
X140589000Y-69215000D01*
X140589000Y-69491860D02*
X140589000Y-69469000D01*
X141528800Y-69037200D02*
X141528800Y-69029580D01*
X141145260Y-70106540D02*
X141117320Y-70134480D01*
D14*
X137795000Y-68707000D02*
X136525000Y-68453000D01*
X138176000Y-68834000D02*
X137795000Y-68707000D01*
X138303000Y-68707000D02*
X138176000Y-68834000D01*
X138303000Y-68580000D02*
X138303000Y-68707000D01*
X137795000Y-68326000D02*
X138303000Y-68580000D01*
X137541000Y-68326000D02*
X137795000Y-68326000D01*
X136525000Y-68072000D02*
X137541000Y-68326000D01*
X136017000Y-68072000D02*
X136525000Y-68072000D01*
X135890000Y-68199000D02*
X136017000Y-68072000D01*
X136017000Y-68326000D02*
X135890000Y-68199000D01*
X136652000Y-68834000D02*
X136017000Y-68326000D01*
X137160000Y-68961000D02*
X136652000Y-68834000D01*
X137541000Y-69088000D02*
X137160000Y-68961000D01*
X138176000Y-69088000D02*
X137541000Y-69088000D01*
X138557000Y-68961000D02*
X138176000Y-69088000D01*
X138811000Y-68961000D02*
X138557000Y-68961000D01*
X138938000Y-68707000D02*
X138811000Y-68961000D01*
X138811000Y-68580000D02*
X138938000Y-68707000D01*
X138176000Y-68072000D02*
X138811000Y-68580000D01*
X137160000Y-67818000D02*
X138176000Y-68072000D01*
X136017000Y-67691000D02*
X137160000Y-67818000D01*
X135890000Y-67691000D02*
X136017000Y-67691000D01*
X135763000Y-67818000D02*
X135890000Y-67691000D01*
X135001000Y-67183000D02*
X135763000Y-67818000D01*
X135636000Y-67183000D02*
X134874000Y-66802000D01*
X136372600Y-67437000D02*
X135636000Y-67183000D01*
X136982200Y-67437000D02*
X136372600Y-67437000D01*
X138379200Y-67919600D02*
X136982200Y-67437000D01*
X139065000Y-68326000D02*
X138379200Y-67919600D01*
X139573000Y-68834000D02*
X139065000Y-68326000D01*
X139827000Y-69342000D02*
X139573000Y-68834000D01*
X139573000Y-69088000D02*
X139827000Y-69342000D01*
X139192000Y-68961000D02*
X139573000Y-69088000D01*
X138430000Y-69469000D02*
X139192000Y-68961000D01*
X137541000Y-69469000D02*
X138430000Y-69469000D01*
X136652000Y-69215000D02*
X137541000Y-69469000D01*
X136144000Y-68834000D02*
X136652000Y-69215000D01*
X135255000Y-67945000D02*
X136144000Y-68834000D01*
X135001000Y-67564000D02*
X135255000Y-67945000D01*
X134620000Y-67056000D02*
X135001000Y-67564000D01*
X134490460Y-66548000D02*
X134112000Y-65661540D01*
X134490460Y-66929000D02*
X134490460Y-66548000D01*
X134112000Y-66421000D02*
X134490460Y-66929000D01*
X133985000Y-65913000D02*
X134112000Y-66421000D01*
X133477000Y-65024000D02*
X133985000Y-65913000D01*
X139065000Y-66548000D02*
X137414000Y-66548000D01*
X138938000Y-66167000D02*
X133985000Y-66090800D01*
X138938000Y-66421000D02*
X138938000Y-66167000D01*
X138938000Y-65913000D02*
X138938000Y-66167000D01*
X134366000Y-65913000D02*
X138938000Y-65913000D01*
X134874000Y-66040000D02*
X134366000Y-65913000D01*
X136144000Y-66421000D02*
X134874000Y-66040000D01*
X137287000Y-66548000D02*
X136144000Y-66421000D01*
X137414000Y-66548000D02*
X137287000Y-66548000D01*
X137922000Y-66548000D02*
X137414000Y-66548000D01*
X138557000Y-66929000D02*
X137922000Y-66548000D01*
X138938000Y-66421000D02*
X139319000Y-66929000D01*
X138684000Y-66929000D02*
X138938000Y-66421000D01*
X139319000Y-67310000D02*
X138684000Y-66929000D01*
X139827000Y-67945000D02*
X139319000Y-67310000D01*
X139700000Y-66929000D02*
X139827000Y-67945000D01*
X139446000Y-66421000D02*
X139700000Y-66929000D01*
X138938000Y-65913000D02*
X139446000Y-66421000D01*
X138303000Y-65532000D02*
X138938000Y-65913000D01*
X136652000Y-65532000D02*
X138303000Y-65532000D01*
X135636000Y-65661540D02*
X136652000Y-65532000D01*
X134490460Y-65661540D02*
X135636000Y-65661540D01*
D13*
X133477000Y-65024000D02*
X134490460Y-65661540D01*
X141935200Y-69039740D02*
X141909800Y-69430900D01*
X140855700Y-70231000D02*
X140843000Y-70231000D01*
X141757400Y-70231000D02*
X141401800Y-70231000D01*
X142560040Y-69910960D02*
X142537180Y-69933820D01*
X142875000Y-67310000D02*
X142740380Y-67848480D01*
X141859000Y-67691000D02*
X142875000Y-67310000D01*
X141437360Y-67871340D02*
X141859000Y-67691000D01*
X140662660Y-68610480D02*
X140716000Y-68516500D01*
X140843000Y-70231000D02*
X140545820Y-69811900D01*
X140708380Y-70365620D02*
X140843000Y-70231000D01*
X139954000Y-70231000D02*
X140058140Y-70337680D01*
X139192000Y-70993000D02*
X139682220Y-70502780D01*
X139954000Y-69895720D02*
X139954000Y-69850000D01*
X139319000Y-71120000D02*
X139827000Y-70358000D01*
X135877300Y-66581020D02*
X134490460Y-66167000D01*
X137744200Y-66870580D02*
X137226040Y-66796920D01*
X139019280Y-67378580D02*
X139011660Y-67373500D01*
X140078460Y-68453000D02*
X140075920Y-68450460D01*
X139664440Y-68597780D02*
X139834620Y-68785740D01*
X136799320Y-67266820D02*
X137109200Y-67327780D01*
X134490460Y-66167000D02*
X134772400Y-66514980D01*
X139319000Y-70993000D02*
X139504420Y-70807580D01*
X139976860Y-69677280D02*
X139954000Y-69723000D01*
X140078460Y-68072000D02*
X140078460Y-68453000D01*
X139872720Y-66794380D02*
X140020040Y-67393820D01*
X135674100Y-65473580D02*
X137822940Y-65278000D01*
X133096000Y-64516000D02*
X133957060Y-65135760D01*
X137850880Y-69723000D02*
X138366500Y-69723000D01*
X135945880Y-69019420D02*
X135981440Y-69054980D01*
X133096000Y-64516000D02*
X133962140Y-66631820D01*
X139677140Y-69448680D02*
X139954000Y-69723000D01*
X138904980Y-69502020D02*
X138958320Y-69448680D01*
X126238000Y-73533000D02*
X138049000Y-73533000D01*
X138049000Y-70485000D02*
X126238000Y-70485000D01*
X121007000Y-71501000D02*
X119757000Y-71501000D01*
X121007000Y-71751000D02*
X119757000Y-71751000D01*
X121007000Y-71251000D02*
X121007000Y-71751000D01*
X119757000Y-71251000D02*
X121007000Y-71251000D01*
X121257000Y-69501000D02*
X121257000Y-70001000D01*
X121257000Y-73501000D02*
G75*
G02X121257000Y-69501000I0J2000000D01*
G01*
X121257000Y-73001000D02*
X121257000Y-73501000D01*
D15*
X121207020Y-73251000D02*
G75*
G02X121207000Y-69751000I49980J1750000D01*
G01*
D13*
X121257000Y-73001000D02*
G75*
G02X121257000Y-70001000I0J1500000D01*
G01*
D15*
X117707020Y-73251000D02*
G75*
G02X117707000Y-69751000I49980J1750000D01*
G01*
D13*
X117757000Y-73001000D02*
X117757000Y-73501000D01*
X117757000Y-69501000D02*
X117757000Y-70001000D01*
X117757000Y-73501000D02*
G75*
G02X117757000Y-69501000I0J2000000D01*
G01*
X117757000Y-73001000D02*
G75*
G02X117757000Y-70001000I0J1500000D01*
G01*
X86000000Y-75706000D02*
X87800000Y-75706000D01*
X86000000Y-96506000D02*
X87800000Y-96506000D01*
D16*
X84800000Y-73256000D02*
X86000000Y-73256000D01*
X84800000Y-98956000D02*
X84800000Y-73256000D01*
X86000000Y-98956000D02*
X84800000Y-98956000D01*
D13*
X87800000Y-98606000D02*
X87800000Y-73606000D01*
X87800000Y-73606000D02*
X87950000Y-73606000D01*
X87800000Y-98606000D02*
X87950000Y-98606000D01*
X87800000Y-98956000D02*
X87800000Y-98606000D01*
X86000000Y-98956000D02*
X87800000Y-98956000D01*
X87800000Y-73256000D02*
X87800000Y-73606000D01*
X86000000Y-73256000D02*
X87800000Y-73256000D01*
X86000000Y-98956000D02*
X86000000Y-73256000D01*
X139810000Y-105551000D02*
X139810000Y-106351000D01*
X139810000Y-106351000D02*
X121810000Y-106351000D01*
X121810000Y-106351000D02*
X121810000Y-105551000D01*
X139810000Y-105551000D02*
X139710000Y-105551000D01*
X121810000Y-105551000D02*
X121910000Y-105551000D01*
X124910000Y-105551000D02*
X136710000Y-105551000D01*
X136710000Y-102051000D02*
X124910000Y-102051000D01*
X136560000Y-105551000D02*
X136560000Y-106351000D01*
X125060000Y-105551000D02*
X125060000Y-106351000D01*
X138810000Y-101201000D02*
X138810000Y-101051000D01*
X138810000Y-101051000D02*
X136460000Y-101051000D01*
X125160000Y-101051000D02*
X122810000Y-101051000D01*
X122810000Y-101051000D02*
X122810000Y-101201000D01*
X96140000Y-100670000D02*
X96140000Y-100820000D01*
X98490000Y-100670000D02*
X96140000Y-100670000D01*
X112140000Y-100670000D02*
X109790000Y-100670000D01*
X112140000Y-100820000D02*
X112140000Y-100670000D01*
X98390000Y-105170000D02*
X98390000Y-105970000D01*
X109890000Y-105170000D02*
X109890000Y-105970000D01*
X110040000Y-101670000D02*
X98240000Y-101670000D01*
X98240000Y-105170000D02*
X110040000Y-105170000D01*
X95140000Y-105170000D02*
X95240000Y-105170000D01*
X113140000Y-105170000D02*
X113040000Y-105170000D01*
X95140000Y-105970000D02*
X95140000Y-105170000D01*
X113140000Y-105970000D02*
X95140000Y-105970000D01*
X113140000Y-105170000D02*
X113140000Y-105970000D01*
X151144000Y-81551000D02*
X151944000Y-81551000D01*
X151944000Y-81551000D02*
X151944000Y-99551000D01*
X151944000Y-99551000D02*
X151144000Y-99551000D01*
X151144000Y-81551000D02*
X151144000Y-81651000D01*
X151144000Y-99551000D02*
X151144000Y-99451000D01*
X151144000Y-96451000D02*
X151144000Y-84651000D01*
X147644000Y-84651000D02*
X147644000Y-96451000D01*
X151144000Y-84801000D02*
X151944000Y-84801000D01*
X151144000Y-96301000D02*
X151944000Y-96301000D01*
X146794000Y-82551000D02*
X146644000Y-82551000D01*
X146644000Y-82551000D02*
X146644000Y-84901000D01*
X146644000Y-96201000D02*
X146644000Y-98551000D01*
X146644000Y-98551000D02*
X146794000Y-98551000D01*
X94424500Y-78867000D02*
X94424500Y-78613000D01*
X94424500Y-78867000D02*
X94424500Y-79121000D01*
X93535500Y-78867000D02*
X93535500Y-79121000D01*
X93535500Y-78867000D02*
X93535500Y-78613000D01*
X94523560Y-99329240D02*
X94523560Y-100040440D01*
X95361760Y-100040440D02*
X94523560Y-100040440D01*
X95361760Y-97195640D02*
X94523560Y-97195640D01*
X94523560Y-97195640D02*
X94523560Y-97906840D01*
X144272000Y-99806760D02*
X144272000Y-99095560D01*
X143433800Y-99095560D02*
X144272000Y-99095560D01*
X143433800Y-101940360D02*
X144272000Y-101940360D01*
X144272000Y-101940360D02*
X144272000Y-101229160D01*
D16*
X135428000Y-77532400D02*
X144500000Y-77532400D01*
X145207000Y-91750000D02*
X145207000Y-78250000D01*
X134793000Y-91750000D02*
X134793000Y-78167400D01*
X134793000Y-78167400D02*
X135428000Y-77532400D01*
X135500000Y-92467600D02*
X144500000Y-92467600D01*
D13*
X116967000Y-94996000D02*
G75*
G03X114681000Y-94996000I-1143000J-1143000D01*
G01*
D16*
X116967000Y-98298000D02*
G75*
G03X116967000Y-98298000I-127000J0D01*
G01*
D13*
X115697000Y-94234000D02*
X115697000Y-94361000D01*
X115697000Y-94361000D02*
X116078000Y-94361000D01*
X116078000Y-94361000D02*
X116078000Y-94234000D01*
X116078000Y-94234000D02*
X115697000Y-94234000D01*
X115824000Y-95758000D02*
X116459000Y-95758000D01*
X115697000Y-95631000D02*
X116586000Y-95631000D01*
X116586000Y-95631000D02*
X116586000Y-96012000D01*
X116586000Y-96012000D02*
X115697000Y-96012000D01*
X115697000Y-96012000D02*
X115697000Y-95631000D01*
X117094000Y-95631000D02*
X117094000Y-95250000D01*
X117094000Y-95250000D02*
X117221000Y-95250000D01*
X117221000Y-95250000D02*
X117221000Y-95631000D01*
X117094000Y-95250000D02*
X117094000Y-95377000D01*
X117094000Y-95123000D02*
X117221000Y-95504000D01*
X117094000Y-95250000D02*
X117094000Y-95377000D01*
X116967000Y-95123000D02*
X116967000Y-95631000D01*
X116967000Y-95631000D02*
X117348000Y-95631000D01*
X117348000Y-95631000D02*
X117348000Y-95123000D01*
X114935000Y-94996000D02*
X114935000Y-94488000D01*
X114935000Y-94488000D02*
X115062000Y-94488000D01*
X115062000Y-94488000D02*
X115062000Y-94996000D01*
X117241609Y-98298000D02*
G75*
G03X117241609Y-98298000I-401609J0D01*
G01*
X116840000Y-97790000D02*
X116967000Y-95758000D01*
X114935000Y-98298000D02*
X114935000Y-98679000D01*
X114935000Y-98679000D02*
X115443000Y-98679000D01*
X115443000Y-98679000D02*
X115443000Y-98425000D01*
X114427000Y-95123000D02*
X117348000Y-95123000D01*
X114935000Y-98298000D02*
X114681000Y-95250000D01*
X114935000Y-98298000D02*
X116332000Y-98298000D01*
X113919000Y-98679000D02*
X117983000Y-94742000D01*
X113792000Y-94615000D02*
X117983000Y-98806000D01*
D17*
X113636800Y-100051400D02*
X118056400Y-100051400D01*
X118056400Y-99949800D02*
X113687600Y-99949800D01*
X113636800Y-99746600D02*
X118107200Y-99746600D01*
X113636800Y-99594200D02*
X118056400Y-99594200D01*
X118107200Y-99848200D02*
X113687600Y-99848200D01*
X118107200Y-99695800D02*
X113687600Y-99695800D01*
X113636800Y-99543400D02*
X118107200Y-99543400D01*
X118107200Y-99441800D02*
X113687600Y-99441800D01*
X118158000Y-100153000D02*
X113586000Y-100153000D01*
X113586000Y-100153000D02*
X113586000Y-99391000D01*
X113586000Y-99391000D02*
X118158000Y-99391000D01*
X118158000Y-99391000D02*
X118158000Y-100153000D01*
D18*
X98813620Y-95016320D02*
X101246940Y-97436940D01*
D13*
X101776637Y-96179640D02*
G75*
G03X101776637Y-96179640I-1802237J0D01*
G01*
X122809000Y-98806000D02*
G75*
G03X122682000Y-98933000I0J-127000D01*
G01*
X122936000Y-98869500D02*
G75*
G03X122872500Y-98806000I-63500J0D01*
G01*
X122874929Y-99062545D02*
G75*
G03X122936000Y-98996500I-2429J63505D01*
G01*
X122491500Y-98679000D02*
G75*
G03X122872500Y-99060000I381000J0D01*
G01*
X122680952Y-97283575D02*
G75*
G03X122491500Y-97599500I168688J-315925D01*
G01*
X122683451Y-97282142D02*
G75*
G03X122999500Y-96964500I-478971J792622D01*
G01*
X122874065Y-97791845D02*
G75*
G03X123571000Y-97345500I-153965J1007685D01*
G01*
X123317932Y-98552674D02*
G75*
G03X123317000Y-98869500I316568J-159346D01*
G01*
X123317033Y-98869600D02*
G75*
G03X123444000Y-98996500I190467J63600D01*
G01*
X124645725Y-98108493D02*
G75*
G03X124206000Y-98234500I825195J-3709947D01*
G01*
X124206085Y-98235965D02*
G75*
G03X123634500Y-98996500I284395J-808795D01*
G01*
X124268292Y-97791166D02*
G75*
G03X123317000Y-98552000I285688J-1332334D01*
G01*
X124780539Y-98045576D02*
G75*
G03X125603000Y-97599500I-147819J1253796D01*
G01*
X126111699Y-97409474D02*
G75*
G03X125603000Y-97599500I-64199J-604046D01*
G01*
X124587085Y-96458114D02*
G75*
G03X124802900Y-96520000I182795J230214D01*
G01*
X124586279Y-96456678D02*
G75*
G03X122999500Y-96964500I-466639J-1274902D01*
G01*
X124206000Y-92964000D02*
X120650000Y-100076000D01*
X120650000Y-100076000D02*
X127762000Y-100076000D01*
X127762000Y-100076000D02*
X126428500Y-97409000D01*
X126428500Y-97409000D02*
X125984000Y-96520000D01*
X125984000Y-96520000D02*
X124206000Y-92964000D01*
X122428000Y-96583500D02*
X127762000Y-100076000D01*
X124802900Y-96520000D02*
X125984000Y-96520000D01*
X126428500Y-97409000D02*
X126111000Y-97409000D01*
X123444000Y-98996500D02*
X123596400Y-98996500D01*
X122491500Y-97599500D02*
X122491500Y-98679000D01*
X122936000Y-98996500D02*
X122936000Y-98869500D01*
X122872500Y-98806000D02*
X122872500Y-97790000D01*
X122872500Y-98806000D02*
X122809000Y-98806000D01*
D19*
X97251147Y-71374000D02*
G75*
G03X97251147Y-71374000I-337447J0D01*
G01*
D20*
X96901000Y-70599300D02*
X97409000Y-70091300D01*
X98501200Y-70015100D02*
X99136200Y-70624700D01*
X99110800Y-72580500D02*
X98552000Y-73164700D01*
X100736400Y-73177400D02*
X100279200Y-72720200D01*
X101722200Y-73177400D02*
X100736400Y-73177400D01*
D19*
X102601324Y-73152000D02*
G75*
G03X102601324Y-73152000I-366324J0D01*
G01*
D20*
X102235000Y-70459600D02*
X102235000Y-72059800D01*
D19*
X102621218Y-69926200D02*
G75*
G03X102621218Y-69926200I-373518J0D01*
G01*
X103826559Y-73126600D02*
G75*
G03X103826559Y-73126600I-359659J0D01*
G01*
D20*
X103454200Y-72618600D02*
X103454200Y-70027800D01*
X103454200Y-70027800D02*
X104292400Y-70027800D01*
X104292400Y-70027800D02*
X104902000Y-70535800D01*
X105003600Y-71323200D02*
X105003600Y-70612000D01*
X105079800Y-70535800D02*
X105714800Y-70027800D01*
D19*
X105374518Y-71856600D02*
G75*
G03X105374518Y-71856600I-370918J0D01*
G01*
D20*
X105714800Y-70027800D02*
X106603800Y-70027800D01*
D19*
X106979729Y-73139300D02*
G75*
G03X106979729Y-73139300I-363229J0D01*
G01*
X112775266Y-73228200D02*
G75*
G03X112775266Y-73228200I-329466J0D01*
G01*
D20*
X112115600Y-72872600D02*
X111277400Y-72059800D01*
D21*
X110769400Y-71958200D02*
X111302800Y-71958200D01*
D20*
X109626400Y-73177400D02*
X110769400Y-72059800D01*
X108305600Y-73177400D02*
X109626400Y-73177400D01*
X107873800Y-72745600D02*
X108305600Y-73177400D01*
X107873800Y-70510400D02*
X107873800Y-72745600D01*
X107873800Y-70485000D02*
X108356400Y-69977000D01*
X108404500Y-70002400D02*
X109626400Y-70002400D01*
X109626400Y-70002400D02*
X110718600Y-71069200D01*
D21*
X110744000Y-71183500D02*
X111302800Y-71183500D01*
D20*
X112166400Y-70192900D02*
X111302800Y-71086600D01*
D19*
X112894135Y-69837300D02*
G75*
G03X112894135Y-69837300I-359435J0D01*
G01*
D20*
X109093000Y-71577200D02*
X107873800Y-71577200D01*
D19*
X109960659Y-71577200D02*
G75*
G03X109960659Y-71577200I-359659J0D01*
G01*
D20*
X97472500Y-73190100D02*
X98513900Y-73190100D01*
X96913700Y-72631300D02*
X96913700Y-71869300D01*
X96901000Y-72618600D02*
X97485200Y-73190100D01*
X96901000Y-70650100D02*
X96901000Y-70891400D01*
X99123500Y-70612000D02*
X99123500Y-72542400D01*
X98501200Y-70002400D02*
X97497900Y-70002400D01*
X106616500Y-70015100D02*
X106616500Y-72618600D01*
X100279200Y-72732900D02*
X100279200Y-70002400D01*
D22*
X100279200Y-69659500D02*
X99999800Y-69659500D01*
X99974400Y-69659500D02*
X99974400Y-72809100D01*
X99987100Y-69659500D02*
X99974400Y-69659500D01*
X99999800Y-69659500D02*
X99987100Y-69659500D01*
X100114100Y-69748400D02*
X100050600Y-69735700D01*
X100596700Y-69659500D02*
X100596700Y-72694800D01*
X100291900Y-69659500D02*
X100596700Y-69659500D01*
X100418900Y-69735700D02*
X100533200Y-69735700D01*
X101917500Y-70345300D02*
X101917500Y-72364600D01*
X102552500Y-72364600D02*
X102552500Y-70345300D01*
X102527100Y-72364600D02*
X102552500Y-72364600D01*
X101917500Y-72364600D02*
X102527100Y-72364600D01*
X102057200Y-72301100D02*
X101993700Y-72301100D01*
X102400100Y-72301100D02*
X102489000Y-72301100D01*
X103136700Y-72707500D02*
X103136700Y-69723000D01*
X104381300Y-69710300D02*
X104965500Y-70192900D01*
X103136700Y-69710300D02*
X104381300Y-69710300D01*
X103289100Y-69773800D02*
X103212900Y-69773800D01*
X106946700Y-72732900D02*
X106946700Y-69723000D01*
X105625900Y-69710300D02*
X105003600Y-70205600D01*
X105651300Y-69710300D02*
X105625900Y-69710300D01*
X106946700Y-69710300D02*
X105651300Y-69710300D01*
X106946700Y-69723000D02*
X106946700Y-69710300D01*
X106794300Y-69786500D02*
X106895900Y-69786500D01*
X109740700Y-69672200D02*
X110998000Y-70916800D01*
X109689900Y-69672200D02*
X109740700Y-69672200D01*
X108318300Y-69672200D02*
X109689900Y-69672200D01*
D13*
X140462000Y-94234000D02*
X141478000Y-94234000D01*
X140462000Y-92710000D02*
X141478000Y-92710000D01*
X102870000Y-87249000D02*
X102870000Y-88265000D01*
X104394000Y-87249000D02*
X104394000Y-88265000D01*
X103632000Y-82804000D02*
X104648000Y-82804000D01*
X103632000Y-81280000D02*
X104648000Y-81280000D01*
X101473000Y-78232000D02*
X100457000Y-78232000D01*
X101473000Y-76708000D02*
X100457000Y-76708000D01*
X101473000Y-79756000D02*
X100457000Y-79756000D01*
X101473000Y-78232000D02*
X100457000Y-78232000D01*
X105283000Y-86614000D02*
X106299000Y-86614000D01*
X105283000Y-85090000D02*
X106299000Y-85090000D01*
X104775000Y-83566000D02*
X105791000Y-83566000D01*
X104775000Y-85090000D02*
X105791000Y-85090000D01*
X100965000Y-86487000D02*
X99949000Y-86487000D01*
X100965000Y-84963000D02*
X99949000Y-84963000D01*
X102870000Y-88011000D02*
X102870000Y-89027000D01*
X101346000Y-88011000D02*
X101346000Y-89027000D01*
X95885000Y-84836000D02*
X96901000Y-84836000D01*
X95885000Y-86360000D02*
X96901000Y-86360000D01*
X110490000Y-85979000D02*
X111506000Y-85979000D01*
X110490000Y-87503000D02*
X111506000Y-87503000D01*
X110490000Y-84455000D02*
X111506000Y-84455000D01*
X110490000Y-85979000D02*
X111506000Y-85979000D01*
X110490000Y-83820000D02*
X111506000Y-83820000D01*
X110490000Y-82296000D02*
X111506000Y-82296000D01*
X146494500Y-83820000D02*
X146494500Y-84074000D01*
X146494500Y-83820000D02*
X146494500Y-83566000D01*
X145605500Y-83820000D02*
X145605500Y-83566000D01*
X145605500Y-83820000D02*
X145605500Y-84074000D01*
X131914481Y-84445491D02*
X131734876Y-84625096D01*
X131914481Y-84445491D02*
X132094086Y-84265886D01*
X132543099Y-85074109D02*
X132722704Y-84894504D01*
X132543099Y-85074109D02*
X132363494Y-85253714D01*
X138747500Y-76327000D02*
X138747500Y-76073000D01*
X138747500Y-76327000D02*
X138747500Y-76581000D01*
X139636500Y-76327000D02*
X139636500Y-76581000D01*
X139636500Y-76327000D02*
X139636500Y-76073000D01*
X140906500Y-76327000D02*
X140906500Y-76073000D01*
X140906500Y-76327000D02*
X140906500Y-76581000D01*
X140017500Y-76327000D02*
X140017500Y-76581000D01*
X140017500Y-76327000D02*
X140017500Y-76073000D01*
X96901000Y-87566500D02*
X96647000Y-87566500D01*
X96901000Y-87566500D02*
X97155000Y-87566500D01*
X96901000Y-88455500D02*
X97155000Y-88455500D01*
X96901000Y-88455500D02*
X96647000Y-88455500D01*
X96901000Y-87439500D02*
X97155000Y-87439500D01*
X96901000Y-87439500D02*
X96647000Y-87439500D01*
X96901000Y-86550500D02*
X96647000Y-86550500D01*
X96901000Y-86550500D02*
X97155000Y-86550500D01*
X116000000Y-92000000D02*
X116000000Y-90000000D01*
X128500000Y-77500000D02*
X130500000Y-77500000D01*
X131000000Y-78000000D02*
X131000000Y-80000000D01*
X118500000Y-92500000D02*
X116500000Y-92500000D01*
X130750000Y-92500000D02*
X129000000Y-92500000D01*
X116000000Y-80000000D02*
X116000000Y-78000000D01*
X116500000Y-77500000D02*
X118500000Y-77500000D01*
X131000000Y-90500000D02*
X131000000Y-92250000D01*
X130750000Y-92500000D02*
X131000000Y-92250000D01*
D16*
X98679000Y-87972900D02*
X98679000Y-87718900D01*
X97917000Y-87972900D02*
X97917000Y-87718900D01*
D13*
X93154500Y-100965000D02*
X93154500Y-101219000D01*
X93154500Y-100965000D02*
X93154500Y-100711000D01*
X94043500Y-100965000D02*
X94043500Y-100711000D01*
X94043500Y-100965000D02*
X94043500Y-101219000D01*
X94361000Y-105130600D02*
X94361000Y-104089200D01*
X94526100Y-104203500D02*
X94526100Y-105029000D01*
X94373700Y-105168700D02*
X94513400Y-105041700D01*
X94373700Y-104076500D02*
X94526100Y-104203500D01*
D23*
X92934800Y-104872600D02*
X92804800Y-104982600D01*
X92794800Y-105002600D02*
X92874800Y-104992600D01*
X92794800Y-105002600D02*
X92794800Y-104922600D01*
X93010200Y-105002600D02*
X93010200Y-104922600D01*
X93010200Y-105002600D02*
X93090200Y-104992600D01*
X93141800Y-104893600D02*
X93011800Y-105003600D01*
D22*
X93064000Y-104538000D02*
X93064000Y-104758000D01*
X92874000Y-104758000D02*
X92974000Y-104658000D01*
X92874000Y-104538000D02*
X92984000Y-104638000D01*
X92874000Y-104538000D02*
X92874000Y-104758000D01*
X92704000Y-104648000D02*
X93224000Y-104648000D01*
D16*
X93345000Y-104013000D02*
X94361000Y-104013000D01*
X94361000Y-105232200D02*
X93345000Y-105232200D01*
D13*
X123126500Y-69215000D02*
X123126500Y-68961000D01*
X123126500Y-69215000D02*
X123126500Y-69469000D01*
X122237500Y-69215000D02*
X122237500Y-69469000D01*
X122237500Y-69215000D02*
X122237500Y-68961000D01*
X123380500Y-69215000D02*
X123380500Y-68961000D01*
X123380500Y-69215000D02*
X123380500Y-69469000D01*
X124269500Y-69215000D02*
X124269500Y-69469000D01*
X124269500Y-69215000D02*
X124269500Y-68961000D01*
X140944600Y-97663000D02*
X141655800Y-97663000D01*
X140944600Y-96824800D02*
X140944600Y-97663000D01*
X143789400Y-96824800D02*
X143789400Y-97663000D01*
X143078200Y-97663000D02*
X143789400Y-97663000D01*
X140843000Y-100901500D02*
X140589000Y-100901500D01*
X140843000Y-100901500D02*
X141097000Y-100901500D01*
X140843000Y-100012500D02*
X141097000Y-100012500D01*
X140843000Y-100012500D02*
X140589000Y-100012500D01*
X139700000Y-96710500D02*
X139446000Y-96710500D01*
X139700000Y-96710500D02*
X139954000Y-96710500D01*
X139700000Y-97599500D02*
X139954000Y-97599500D01*
X139700000Y-97599500D02*
X139446000Y-97599500D01*
X144970500Y-98171000D02*
X144970500Y-98425000D01*
X144970500Y-98171000D02*
X144970500Y-97917000D01*
X145859500Y-98171000D02*
X145859500Y-97917000D01*
X145859500Y-98171000D02*
X145859500Y-98425000D01*
X144907000Y-97218500D02*
X144653000Y-97218500D01*
X144907000Y-97218500D02*
X145161000Y-97218500D01*
X144907000Y-96329500D02*
X145161000Y-96329500D01*
X144907000Y-96329500D02*
X144653000Y-96329500D01*
X142915640Y-103682800D02*
X142915640Y-102971600D01*
X142077440Y-102971600D02*
X142915640Y-102971600D01*
X142077440Y-105816400D02*
X142915640Y-105816400D01*
X142915640Y-105816400D02*
X142915640Y-105105200D01*
X94945200Y-76454000D02*
X95656400Y-76454000D01*
X95656400Y-75615800D02*
X95656400Y-76454000D01*
X92811600Y-75615800D02*
X92811600Y-76454000D01*
X92811600Y-76454000D02*
X93522800Y-76454000D01*
D24*
X126680806Y-72694800D02*
X126596140Y-72779466D01*
X126342140Y-72864133D01*
X126172806Y-72864133D01*
X125918806Y-72779466D01*
X125749473Y-72610133D01*
X125664806Y-72440800D01*
X125580140Y-72102133D01*
X125580140Y-71848133D01*
X125664806Y-71509466D01*
X125749473Y-71340133D01*
X125918806Y-71170800D01*
X126172806Y-71086133D01*
X126342140Y-71086133D01*
X126596140Y-71170800D01*
X126680806Y-71255466D01*
X127696806Y-72864133D02*
X127527473Y-72779466D01*
X127442806Y-72694800D01*
X127358140Y-72525466D01*
X127358140Y-72017466D01*
X127442806Y-71848133D01*
X127527473Y-71763466D01*
X127696806Y-71678800D01*
X127950806Y-71678800D01*
X128120140Y-71763466D01*
X128204806Y-71848133D01*
X128289473Y-72017466D01*
X128289473Y-72525466D01*
X128204806Y-72694800D01*
X128120140Y-72779466D01*
X127950806Y-72864133D01*
X127696806Y-72864133D01*
X129051473Y-72864133D02*
X129051473Y-71678800D01*
X129051473Y-71848133D02*
X129136140Y-71763466D01*
X129305473Y-71678800D01*
X129559473Y-71678800D01*
X129728806Y-71763466D01*
X129813473Y-71932800D01*
X129813473Y-72864133D01*
X129813473Y-71932800D02*
X129898140Y-71763466D01*
X130067473Y-71678800D01*
X130321473Y-71678800D01*
X130490806Y-71763466D01*
X130575473Y-71932800D01*
X130575473Y-72864133D01*
X131422140Y-71678800D02*
X131422140Y-73456800D01*
X131422140Y-71763466D02*
X131591473Y-71678800D01*
X131930140Y-71678800D01*
X132099473Y-71763466D01*
X132184140Y-71848133D01*
X132268806Y-72017466D01*
X132268806Y-72525466D01*
X132184140Y-72694800D01*
X132099473Y-72779466D01*
X131930140Y-72864133D01*
X131591473Y-72864133D01*
X131422140Y-72779466D01*
X133284806Y-72864133D02*
X133115473Y-72779466D01*
X133030806Y-72610133D01*
X133030806Y-71086133D01*
X133962140Y-72864133D02*
X133962140Y-71678800D01*
X133962140Y-71086133D02*
X133877473Y-71170800D01*
X133962140Y-71255466D01*
X134046806Y-71170800D01*
X133962140Y-71086133D01*
X133962140Y-71255466D01*
X135570806Y-72864133D02*
X135570806Y-71932800D01*
X135486140Y-71763466D01*
X135316806Y-71678800D01*
X134978140Y-71678800D01*
X134808806Y-71763466D01*
X135570806Y-72779466D02*
X135401473Y-72864133D01*
X134978140Y-72864133D01*
X134808806Y-72779466D01*
X134724140Y-72610133D01*
X134724140Y-72440800D01*
X134808806Y-72271466D01*
X134978140Y-72186800D01*
X135401473Y-72186800D01*
X135570806Y-72102133D01*
X136417473Y-71678800D02*
X136417473Y-72864133D01*
X136417473Y-71848133D02*
X136502140Y-71763466D01*
X136671473Y-71678800D01*
X136925473Y-71678800D01*
X137094806Y-71763466D01*
X137179473Y-71932800D01*
X137179473Y-72864133D01*
X137772140Y-71678800D02*
X138449473Y-71678800D01*
X138026140Y-71086133D02*
X138026140Y-72610133D01*
X138110806Y-72779466D01*
X138280140Y-72864133D01*
X138449473Y-72864133D01*
D21*
X127259365Y-69759081D02*
X126592699Y-68806700D01*
X126116508Y-69759081D02*
X126116508Y-67759081D01*
X126878413Y-67759081D01*
X127068889Y-67854320D01*
X127164127Y-67949558D01*
X127259365Y-68140034D01*
X127259365Y-68425748D01*
X127164127Y-68616224D01*
X127068889Y-68711462D01*
X126878413Y-68806700D01*
X126116508Y-68806700D01*
X128402222Y-69759081D02*
X128211746Y-69663843D01*
X128116508Y-69568605D01*
X128021270Y-69378129D01*
X128021270Y-68806700D01*
X128116508Y-68616224D01*
X128211746Y-68520986D01*
X128402222Y-68425748D01*
X128687937Y-68425748D01*
X128878413Y-68520986D01*
X128973651Y-68616224D01*
X129068889Y-68806700D01*
X129068889Y-69378129D01*
X128973651Y-69568605D01*
X128878413Y-69663843D01*
X128687937Y-69759081D01*
X128402222Y-69759081D01*
X129926032Y-69759081D02*
X129926032Y-67759081D01*
X129926032Y-68711462D02*
X131068889Y-68711462D01*
X131068889Y-69759081D02*
X131068889Y-67759081D01*
X131926032Y-69663843D02*
X132211746Y-69759081D01*
X132687937Y-69759081D01*
X132878413Y-69663843D01*
X132973651Y-69568605D01*
X133068889Y-69378129D01*
X133068889Y-69187653D01*
X132973651Y-68997177D01*
X132878413Y-68901939D01*
X132687937Y-68806700D01*
X132306984Y-68711462D01*
X132116508Y-68616224D01*
X132021270Y-68520986D01*
X131926032Y-68330510D01*
X131926032Y-68140034D01*
X132021270Y-67949558D01*
X132116508Y-67854320D01*
X132306984Y-67759081D01*
X132783175Y-67759081D01*
X133068889Y-67854320D01*
D10*
X93435714Y-94941571D02*
X93435714Y-95304428D01*
X92673714Y-95304428D01*
X93363142Y-94252142D02*
X93399428Y-94288428D01*
X93435714Y-94397285D01*
X93435714Y-94469857D01*
X93399428Y-94578714D01*
X93326857Y-94651285D01*
X93254285Y-94687571D01*
X93109142Y-94723857D01*
X93000285Y-94723857D01*
X92855142Y-94687571D01*
X92782571Y-94651285D01*
X92710000Y-94578714D01*
X92673714Y-94469857D01*
X92673714Y-94397285D01*
X92710000Y-94288428D01*
X92746285Y-94252142D01*
X93435714Y-93925571D02*
X92673714Y-93925571D01*
X92673714Y-93744142D01*
X92710000Y-93635285D01*
X92782571Y-93562714D01*
X92855142Y-93526428D01*
X93000285Y-93490142D01*
X93109142Y-93490142D01*
X93254285Y-93526428D01*
X93326857Y-93562714D01*
X93399428Y-93635285D01*
X93435714Y-93744142D01*
X93435714Y-93925571D01*
X93145428Y-93163571D02*
X93145428Y-92583000D01*
X93435714Y-91857285D02*
X93435714Y-92220142D01*
X92673714Y-92220142D01*
X92673714Y-91712142D02*
X93435714Y-91458142D01*
X92673714Y-91204142D01*
X93435714Y-90950142D02*
X92673714Y-90950142D01*
X92673714Y-90768714D01*
X92710000Y-90659857D01*
X92782571Y-90587285D01*
X92855142Y-90551000D01*
X93000285Y-90514714D01*
X93109142Y-90514714D01*
X93254285Y-90551000D01*
X93326857Y-90587285D01*
X93399428Y-90659857D01*
X93435714Y-90768714D01*
X93435714Y-90950142D01*
X93399428Y-90224428D02*
X93435714Y-90115571D01*
X93435714Y-89934142D01*
X93399428Y-89861571D01*
X93363142Y-89825285D01*
X93290571Y-89789000D01*
X93218000Y-89789000D01*
X93145428Y-89825285D01*
X93109142Y-89861571D01*
X93072857Y-89934142D01*
X93036571Y-90079285D01*
X93000285Y-90151857D01*
X92964000Y-90188142D01*
X92891428Y-90224428D01*
X92818857Y-90224428D01*
X92746285Y-90188142D01*
X92710000Y-90151857D01*
X92673714Y-90079285D01*
X92673714Y-89897857D01*
X92710000Y-89789000D01*
X93435714Y-89063285D02*
X93435714Y-89498714D01*
X93435714Y-89281000D02*
X92673714Y-89281000D01*
X92782571Y-89353571D01*
X92855142Y-89426142D01*
X92891428Y-89498714D01*
X93181714Y-96048285D02*
X93181714Y-96483714D01*
X93181714Y-96266000D02*
X92419714Y-96266000D01*
X92528571Y-96338571D01*
X92601142Y-96411142D01*
X92637428Y-96483714D01*
X130265714Y-100039714D02*
X130265714Y-99277714D01*
X130519714Y-99822000D01*
X130773714Y-99277714D01*
X130773714Y-100039714D01*
X131136571Y-100039714D02*
X131136571Y-99531714D01*
X131136571Y-99277714D02*
X131100285Y-99314000D01*
X131136571Y-99350285D01*
X131172857Y-99314000D01*
X131136571Y-99277714D01*
X131136571Y-99350285D01*
X131499428Y-100039714D02*
X131499428Y-99277714D01*
X131789714Y-99277714D01*
X131862285Y-99314000D01*
X131898571Y-99350285D01*
X131934857Y-99422857D01*
X131934857Y-99531714D01*
X131898571Y-99604285D01*
X131862285Y-99640571D01*
X131789714Y-99676857D01*
X131499428Y-99676857D01*
X132261428Y-100039714D02*
X132261428Y-99531714D01*
X132261428Y-99277714D02*
X132225142Y-99314000D01*
X132261428Y-99350285D01*
X132297714Y-99314000D01*
X132261428Y-99277714D01*
X132261428Y-99350285D01*
X132442857Y-100112285D02*
X133023428Y-100112285D01*
X133204857Y-100039714D02*
X133204857Y-99277714D01*
X133386285Y-99277714D01*
X133495142Y-99314000D01*
X133567714Y-99386571D01*
X133604000Y-99459142D01*
X133640285Y-99604285D01*
X133640285Y-99713142D01*
X133604000Y-99858285D01*
X133567714Y-99930857D01*
X133495142Y-100003428D01*
X133386285Y-100039714D01*
X133204857Y-100039714D01*
X133930571Y-100003428D02*
X134039428Y-100039714D01*
X134220857Y-100039714D01*
X134293428Y-100003428D01*
X134329714Y-99967142D01*
X134366000Y-99894571D01*
X134366000Y-99822000D01*
X134329714Y-99749428D01*
X134293428Y-99713142D01*
X134220857Y-99676857D01*
X134075714Y-99640571D01*
X134003142Y-99604285D01*
X133966857Y-99568000D01*
X133930571Y-99495428D01*
X133930571Y-99422857D01*
X133966857Y-99350285D01*
X134003142Y-99314000D01*
X134075714Y-99277714D01*
X134257142Y-99277714D01*
X134366000Y-99314000D01*
X134692571Y-100039714D02*
X134692571Y-99277714D01*
X135454571Y-100039714D02*
X135019142Y-100039714D01*
X135236857Y-100039714D02*
X135236857Y-99277714D01*
X135164285Y-99386571D01*
X135091714Y-99459142D01*
X135019142Y-99495428D01*
X103468714Y-99785714D02*
X103468714Y-99023714D01*
X103722714Y-99568000D01*
X103976714Y-99023714D01*
X103976714Y-99785714D01*
X104339571Y-99785714D02*
X104339571Y-99277714D01*
X104339571Y-99023714D02*
X104303285Y-99060000D01*
X104339571Y-99096285D01*
X104375857Y-99060000D01*
X104339571Y-99023714D01*
X104339571Y-99096285D01*
X104702428Y-99785714D02*
X104702428Y-99023714D01*
X104992714Y-99023714D01*
X105065285Y-99060000D01*
X105101571Y-99096285D01*
X105137857Y-99168857D01*
X105137857Y-99277714D01*
X105101571Y-99350285D01*
X105065285Y-99386571D01*
X104992714Y-99422857D01*
X104702428Y-99422857D01*
X105464428Y-99785714D02*
X105464428Y-99277714D01*
X105464428Y-99023714D02*
X105428142Y-99060000D01*
X105464428Y-99096285D01*
X105500714Y-99060000D01*
X105464428Y-99023714D01*
X105464428Y-99096285D01*
X105645857Y-99858285D02*
X106226428Y-99858285D01*
X106843285Y-99713142D02*
X106807000Y-99749428D01*
X106698142Y-99785714D01*
X106625571Y-99785714D01*
X106516714Y-99749428D01*
X106444142Y-99676857D01*
X106407857Y-99604285D01*
X106371571Y-99459142D01*
X106371571Y-99350285D01*
X106407857Y-99205142D01*
X106444142Y-99132571D01*
X106516714Y-99060000D01*
X106625571Y-99023714D01*
X106698142Y-99023714D01*
X106807000Y-99060000D01*
X106843285Y-99096285D01*
X107133571Y-99749428D02*
X107242428Y-99785714D01*
X107423857Y-99785714D01*
X107496428Y-99749428D01*
X107532714Y-99713142D01*
X107569000Y-99640571D01*
X107569000Y-99568000D01*
X107532714Y-99495428D01*
X107496428Y-99459142D01*
X107423857Y-99422857D01*
X107278714Y-99386571D01*
X107206142Y-99350285D01*
X107169857Y-99314000D01*
X107133571Y-99241428D01*
X107133571Y-99168857D01*
X107169857Y-99096285D01*
X107206142Y-99060000D01*
X107278714Y-99023714D01*
X107460142Y-99023714D01*
X107569000Y-99060000D01*
X107895571Y-99785714D02*
X107895571Y-99023714D01*
X108657571Y-99785714D02*
X108222142Y-99785714D01*
X108439857Y-99785714D02*
X108439857Y-99023714D01*
X108367285Y-99132571D01*
X108294714Y-99205142D01*
X108222142Y-99241428D01*
X146064514Y-81015114D02*
X146064514Y-80253114D01*
X146318514Y-80797400D01*
X146572514Y-80253114D01*
X146572514Y-81015114D01*
X146935371Y-81015114D02*
X146935371Y-80507114D01*
X146935371Y-80253114D02*
X146899085Y-80289400D01*
X146935371Y-80325685D01*
X146971657Y-80289400D01*
X146935371Y-80253114D01*
X146935371Y-80325685D01*
X147298228Y-81015114D02*
X147298228Y-80253114D01*
X147588514Y-80253114D01*
X147661085Y-80289400D01*
X147697371Y-80325685D01*
X147733657Y-80398257D01*
X147733657Y-80507114D01*
X147697371Y-80579685D01*
X147661085Y-80615971D01*
X147588514Y-80652257D01*
X147298228Y-80652257D01*
X148060228Y-81015114D02*
X148060228Y-80507114D01*
X148060228Y-80253114D02*
X148023942Y-80289400D01*
X148060228Y-80325685D01*
X148096514Y-80289400D01*
X148060228Y-80253114D01*
X148060228Y-80325685D01*
X148241657Y-81087685D02*
X148822228Y-81087685D01*
X149439085Y-80942542D02*
X149402800Y-80978828D01*
X149293942Y-81015114D01*
X149221371Y-81015114D01*
X149112514Y-80978828D01*
X149039942Y-80906257D01*
X149003657Y-80833685D01*
X148967371Y-80688542D01*
X148967371Y-80579685D01*
X149003657Y-80434542D01*
X149039942Y-80361971D01*
X149112514Y-80289400D01*
X149221371Y-80253114D01*
X149293942Y-80253114D01*
X149402800Y-80289400D01*
X149439085Y-80325685D01*
X149729371Y-80978828D02*
X149838228Y-81015114D01*
X150019657Y-81015114D01*
X150092228Y-80978828D01*
X150128514Y-80942542D01*
X150164800Y-80869971D01*
X150164800Y-80797400D01*
X150128514Y-80724828D01*
X150092228Y-80688542D01*
X150019657Y-80652257D01*
X149874514Y-80615971D01*
X149801942Y-80579685D01*
X149765657Y-80543400D01*
X149729371Y-80470828D01*
X149729371Y-80398257D01*
X149765657Y-80325685D01*
X149801942Y-80289400D01*
X149874514Y-80253114D01*
X150055942Y-80253114D01*
X150164800Y-80289400D01*
X150491371Y-81015114D02*
X150491371Y-80253114D01*
X150817942Y-80325685D02*
X150854228Y-80289400D01*
X150926800Y-80253114D01*
X151108228Y-80253114D01*
X151180800Y-80289400D01*
X151217085Y-80325685D01*
X151253371Y-80398257D01*
X151253371Y-80470828D01*
X151217085Y-80579685D01*
X150781657Y-81015114D01*
X151253371Y-81015114D01*
X95268142Y-79211714D02*
X95014142Y-78848857D01*
X94832714Y-79211714D02*
X94832714Y-78449714D01*
X95123000Y-78449714D01*
X95195571Y-78486000D01*
X95231857Y-78522285D01*
X95268142Y-78594857D01*
X95268142Y-78703714D01*
X95231857Y-78776285D01*
X95195571Y-78812571D01*
X95123000Y-78848857D01*
X94832714Y-78848857D01*
X95921285Y-78703714D02*
X95921285Y-79211714D01*
X95739857Y-78413428D02*
X95558428Y-78957714D01*
X96030142Y-78957714D01*
X96647000Y-78449714D02*
X96501857Y-78449714D01*
X96429285Y-78486000D01*
X96393000Y-78522285D01*
X96320428Y-78631142D01*
X96284142Y-78776285D01*
X96284142Y-79066571D01*
X96320428Y-79139142D01*
X96356714Y-79175428D01*
X96429285Y-79211714D01*
X96574428Y-79211714D01*
X96647000Y-79175428D01*
X96683285Y-79139142D01*
X96719571Y-79066571D01*
X96719571Y-78885142D01*
X96683285Y-78812571D01*
X96647000Y-78776285D01*
X96574428Y-78740000D01*
X96429285Y-78740000D01*
X96356714Y-78776285D01*
X96320428Y-78812571D01*
X96284142Y-78885142D01*
X94542428Y-95975714D02*
X94977857Y-95975714D01*
X94760142Y-96737714D02*
X94760142Y-95975714D01*
X95631000Y-96737714D02*
X95195571Y-96737714D01*
X95413285Y-96737714D02*
X95413285Y-95975714D01*
X95340714Y-96084571D01*
X95268142Y-96157142D01*
X95195571Y-96193428D01*
X144526000Y-102688571D02*
X144272000Y-102688571D01*
X144272000Y-103087714D02*
X144272000Y-102325714D01*
X144634857Y-102325714D01*
X144925142Y-102688571D02*
X145179142Y-102688571D01*
X145288000Y-103087714D02*
X144925142Y-103087714D01*
X144925142Y-102325714D01*
X145288000Y-102325714D01*
X145505714Y-102325714D02*
X145941142Y-102325714D01*
X145723428Y-103087714D02*
X145723428Y-102325714D01*
X146558000Y-102325714D02*
X146195142Y-102325714D01*
X146158857Y-102688571D01*
X146195142Y-102652285D01*
X146267714Y-102616000D01*
X146449142Y-102616000D01*
X146521714Y-102652285D01*
X146558000Y-102688571D01*
X146594285Y-102761142D01*
X146594285Y-102942571D01*
X146558000Y-103015142D01*
X146521714Y-103051428D01*
X146449142Y-103087714D01*
X146267714Y-103087714D01*
X146195142Y-103051428D01*
X146158857Y-103015142D01*
D13*
X135660190Y-76913619D02*
X135660190Y-75897619D01*
X136724571Y-76816857D02*
X136676190Y-76865238D01*
X136531047Y-76913619D01*
X136434285Y-76913619D01*
X136289142Y-76865238D01*
X136192380Y-76768476D01*
X136144000Y-76671714D01*
X136095619Y-76478190D01*
X136095619Y-76333047D01*
X136144000Y-76139523D01*
X136192380Y-76042761D01*
X136289142Y-75946000D01*
X136434285Y-75897619D01*
X136531047Y-75897619D01*
X136676190Y-75946000D01*
X136724571Y-75994380D01*
X137692190Y-76913619D02*
X137111619Y-76913619D01*
X137401904Y-76913619D02*
X137401904Y-75897619D01*
X137305142Y-76042761D01*
X137208380Y-76139523D01*
X137111619Y-76187904D01*
X134509285Y-77674523D02*
X134388333Y-77614047D01*
X134327857Y-77553571D01*
X134267380Y-77432619D01*
X134267380Y-77069761D01*
X134327857Y-76948809D01*
X134388333Y-76888333D01*
X134509285Y-76827857D01*
X134690714Y-76827857D01*
X134811666Y-76888333D01*
X134872142Y-76948809D01*
X134932619Y-77069761D01*
X134932619Y-77432619D01*
X134872142Y-77553571D01*
X134811666Y-77614047D01*
X134690714Y-77674523D01*
X134509285Y-77674523D01*
X99019811Y-96928367D02*
X99019811Y-95228367D01*
X99591240Y-95228367D01*
X99734097Y-95309320D01*
X99805525Y-95390272D01*
X99876954Y-95552177D01*
X99876954Y-95795034D01*
X99805525Y-95956939D01*
X99734097Y-96037891D01*
X99591240Y-96118843D01*
X99019811Y-96118843D01*
X100519811Y-96928367D02*
X100519811Y-95228367D01*
X100519811Y-95875986D02*
X100662668Y-95795034D01*
X100948382Y-95795034D01*
X101091240Y-95875986D01*
X101162668Y-95956939D01*
X101234097Y-96118843D01*
X101234097Y-96604558D01*
X101162668Y-96766462D01*
X101091240Y-96847415D01*
X100948382Y-96928367D01*
X100662668Y-96928367D01*
X100519811Y-96847415D01*
D10*
X85652428Y-70158428D02*
X86233000Y-70158428D01*
X85942714Y-70448714D02*
X85942714Y-69868142D01*
X86958714Y-69686714D02*
X86595857Y-69686714D01*
X86559571Y-70049571D01*
X86595857Y-70013285D01*
X86668428Y-69977000D01*
X86849857Y-69977000D01*
X86922428Y-70013285D01*
X86958714Y-70049571D01*
X86995000Y-70122142D01*
X86995000Y-70303571D01*
X86958714Y-70376142D01*
X86922428Y-70412428D01*
X86849857Y-70448714D01*
X86668428Y-70448714D01*
X86595857Y-70412428D01*
X86559571Y-70376142D01*
X87212714Y-69686714D02*
X87466714Y-70448714D01*
X87720714Y-69686714D01*
X88119857Y-69686714D02*
X88192428Y-69686714D01*
X88265000Y-69723000D01*
X88301285Y-69759285D01*
X88337571Y-69831857D01*
X88373857Y-69977000D01*
X88373857Y-70158428D01*
X88337571Y-70303571D01*
X88301285Y-70376142D01*
X88265000Y-70412428D01*
X88192428Y-70448714D01*
X88119857Y-70448714D01*
X88047285Y-70412428D01*
X88011000Y-70376142D01*
X87974714Y-70303571D01*
X87938428Y-70158428D01*
X87938428Y-69977000D01*
X87974714Y-69831857D01*
X88011000Y-69759285D01*
X88047285Y-69723000D01*
X88119857Y-69686714D01*
X143401142Y-94125142D02*
X143364857Y-94161428D01*
X143256000Y-94197714D01*
X143183428Y-94197714D01*
X143074571Y-94161428D01*
X143002000Y-94088857D01*
X142965714Y-94016285D01*
X142929428Y-93871142D01*
X142929428Y-93762285D01*
X142965714Y-93617142D01*
X143002000Y-93544571D01*
X143074571Y-93472000D01*
X143183428Y-93435714D01*
X143256000Y-93435714D01*
X143364857Y-93472000D01*
X143401142Y-93508285D01*
X144126857Y-94197714D02*
X143691428Y-94197714D01*
X143909142Y-94197714D02*
X143909142Y-93435714D01*
X143836571Y-93544571D01*
X143764000Y-93617142D01*
X143691428Y-93653428D01*
X144816285Y-93435714D02*
X144453428Y-93435714D01*
X144417142Y-93798571D01*
X144453428Y-93762285D01*
X144526000Y-93726000D01*
X144707428Y-93726000D01*
X144780000Y-93762285D01*
X144816285Y-93798571D01*
X144852571Y-93871142D01*
X144852571Y-94052571D01*
X144816285Y-94125142D01*
X144780000Y-94161428D01*
X144707428Y-94197714D01*
X144526000Y-94197714D01*
X144453428Y-94161428D01*
X144417142Y-94125142D01*
X105555142Y-89008857D02*
X105591428Y-89045142D01*
X105627714Y-89154000D01*
X105627714Y-89226571D01*
X105591428Y-89335428D01*
X105518857Y-89408000D01*
X105446285Y-89444285D01*
X105301142Y-89480571D01*
X105192285Y-89480571D01*
X105047142Y-89444285D01*
X104974571Y-89408000D01*
X104902000Y-89335428D01*
X104865714Y-89226571D01*
X104865714Y-89154000D01*
X104902000Y-89045142D01*
X104938285Y-89008857D01*
X104938285Y-88718571D02*
X104902000Y-88682285D01*
X104865714Y-88609714D01*
X104865714Y-88428285D01*
X104902000Y-88355714D01*
X104938285Y-88319428D01*
X105010857Y-88283142D01*
X105083428Y-88283142D01*
X105192285Y-88319428D01*
X105627714Y-88754857D01*
X105627714Y-88283142D01*
X105192285Y-87847714D02*
X105156000Y-87920285D01*
X105119714Y-87956571D01*
X105047142Y-87992857D01*
X105010857Y-87992857D01*
X104938285Y-87956571D01*
X104902000Y-87920285D01*
X104865714Y-87847714D01*
X104865714Y-87702571D01*
X104902000Y-87630000D01*
X104938285Y-87593714D01*
X105010857Y-87557428D01*
X105047142Y-87557428D01*
X105119714Y-87593714D01*
X105156000Y-87630000D01*
X105192285Y-87702571D01*
X105192285Y-87847714D01*
X105228571Y-87920285D01*
X105264857Y-87956571D01*
X105337428Y-87992857D01*
X105482571Y-87992857D01*
X105555142Y-87956571D01*
X105591428Y-87920285D01*
X105627714Y-87847714D01*
X105627714Y-87702571D01*
X105591428Y-87630000D01*
X105555142Y-87593714D01*
X105482571Y-87557428D01*
X105337428Y-87557428D01*
X105264857Y-87593714D01*
X105228571Y-87630000D01*
X105192285Y-87702571D01*
X103650142Y-80790142D02*
X103613857Y-80826428D01*
X103505000Y-80862714D01*
X103432428Y-80862714D01*
X103323571Y-80826428D01*
X103251000Y-80753857D01*
X103214714Y-80681285D01*
X103178428Y-80536142D01*
X103178428Y-80427285D01*
X103214714Y-80282142D01*
X103251000Y-80209571D01*
X103323571Y-80137000D01*
X103432428Y-80100714D01*
X103505000Y-80100714D01*
X103613857Y-80137000D01*
X103650142Y-80173285D01*
X103904142Y-80100714D02*
X104375857Y-80100714D01*
X104121857Y-80391000D01*
X104230714Y-80391000D01*
X104303285Y-80427285D01*
X104339571Y-80463571D01*
X104375857Y-80536142D01*
X104375857Y-80717571D01*
X104339571Y-80790142D01*
X104303285Y-80826428D01*
X104230714Y-80862714D01*
X104013000Y-80862714D01*
X103940428Y-80826428D01*
X103904142Y-80790142D01*
X104847571Y-80100714D02*
X104920142Y-80100714D01*
X104992714Y-80137000D01*
X105029000Y-80173285D01*
X105065285Y-80245857D01*
X105101571Y-80391000D01*
X105101571Y-80572428D01*
X105065285Y-80717571D01*
X105029000Y-80790142D01*
X104992714Y-80826428D01*
X104920142Y-80862714D01*
X104847571Y-80862714D01*
X104775000Y-80826428D01*
X104738714Y-80790142D01*
X104702428Y-80717571D01*
X104666142Y-80572428D01*
X104666142Y-80391000D01*
X104702428Y-80245857D01*
X104738714Y-80173285D01*
X104775000Y-80137000D01*
X104847571Y-80100714D01*
X97681142Y-77742142D02*
X97644857Y-77778428D01*
X97536000Y-77814714D01*
X97463428Y-77814714D01*
X97354571Y-77778428D01*
X97282000Y-77705857D01*
X97245714Y-77633285D01*
X97209428Y-77488142D01*
X97209428Y-77379285D01*
X97245714Y-77234142D01*
X97282000Y-77161571D01*
X97354571Y-77089000D01*
X97463428Y-77052714D01*
X97536000Y-77052714D01*
X97644857Y-77089000D01*
X97681142Y-77125285D01*
X97935142Y-77052714D02*
X98406857Y-77052714D01*
X98152857Y-77343000D01*
X98261714Y-77343000D01*
X98334285Y-77379285D01*
X98370571Y-77415571D01*
X98406857Y-77488142D01*
X98406857Y-77669571D01*
X98370571Y-77742142D01*
X98334285Y-77778428D01*
X98261714Y-77814714D01*
X98044000Y-77814714D01*
X97971428Y-77778428D01*
X97935142Y-77742142D01*
X99132571Y-77814714D02*
X98697142Y-77814714D01*
X98914857Y-77814714D02*
X98914857Y-77052714D01*
X98842285Y-77161571D01*
X98769714Y-77234142D01*
X98697142Y-77270428D01*
X97681142Y-79266142D02*
X97644857Y-79302428D01*
X97536000Y-79338714D01*
X97463428Y-79338714D01*
X97354571Y-79302428D01*
X97282000Y-79229857D01*
X97245714Y-79157285D01*
X97209428Y-79012142D01*
X97209428Y-78903285D01*
X97245714Y-78758142D01*
X97282000Y-78685571D01*
X97354571Y-78613000D01*
X97463428Y-78576714D01*
X97536000Y-78576714D01*
X97644857Y-78613000D01*
X97681142Y-78649285D01*
X97935142Y-78576714D02*
X98406857Y-78576714D01*
X98152857Y-78867000D01*
X98261714Y-78867000D01*
X98334285Y-78903285D01*
X98370571Y-78939571D01*
X98406857Y-79012142D01*
X98406857Y-79193571D01*
X98370571Y-79266142D01*
X98334285Y-79302428D01*
X98261714Y-79338714D01*
X98044000Y-79338714D01*
X97971428Y-79302428D01*
X97935142Y-79266142D01*
X98697142Y-78649285D02*
X98733428Y-78613000D01*
X98806000Y-78576714D01*
X98987428Y-78576714D01*
X99060000Y-78613000D01*
X99096285Y-78649285D01*
X99132571Y-78721857D01*
X99132571Y-78794428D01*
X99096285Y-78903285D01*
X98660857Y-79338714D01*
X99132571Y-79338714D01*
X107841142Y-86124142D02*
X107804857Y-86160428D01*
X107696000Y-86196714D01*
X107623428Y-86196714D01*
X107514571Y-86160428D01*
X107442000Y-86087857D01*
X107405714Y-86015285D01*
X107369428Y-85870142D01*
X107369428Y-85761285D01*
X107405714Y-85616142D01*
X107442000Y-85543571D01*
X107514571Y-85471000D01*
X107623428Y-85434714D01*
X107696000Y-85434714D01*
X107804857Y-85471000D01*
X107841142Y-85507285D01*
X108095142Y-85434714D02*
X108566857Y-85434714D01*
X108312857Y-85725000D01*
X108421714Y-85725000D01*
X108494285Y-85761285D01*
X108530571Y-85797571D01*
X108566857Y-85870142D01*
X108566857Y-86051571D01*
X108530571Y-86124142D01*
X108494285Y-86160428D01*
X108421714Y-86196714D01*
X108204000Y-86196714D01*
X108131428Y-86160428D01*
X108095142Y-86124142D01*
X108820857Y-85434714D02*
X109292571Y-85434714D01*
X109038571Y-85725000D01*
X109147428Y-85725000D01*
X109220000Y-85761285D01*
X109256285Y-85797571D01*
X109292571Y-85870142D01*
X109292571Y-86051571D01*
X109256285Y-86124142D01*
X109220000Y-86160428D01*
X109147428Y-86196714D01*
X108929714Y-86196714D01*
X108857142Y-86160428D01*
X108820857Y-86124142D01*
X106698142Y-83330142D02*
X106661857Y-83366428D01*
X106553000Y-83402714D01*
X106480428Y-83402714D01*
X106371571Y-83366428D01*
X106299000Y-83293857D01*
X106262714Y-83221285D01*
X106226428Y-83076142D01*
X106226428Y-82967285D01*
X106262714Y-82822142D01*
X106299000Y-82749571D01*
X106371571Y-82677000D01*
X106480428Y-82640714D01*
X106553000Y-82640714D01*
X106661857Y-82677000D01*
X106698142Y-82713285D01*
X106952142Y-82640714D02*
X107423857Y-82640714D01*
X107169857Y-82931000D01*
X107278714Y-82931000D01*
X107351285Y-82967285D01*
X107387571Y-83003571D01*
X107423857Y-83076142D01*
X107423857Y-83257571D01*
X107387571Y-83330142D01*
X107351285Y-83366428D01*
X107278714Y-83402714D01*
X107061000Y-83402714D01*
X106988428Y-83366428D01*
X106952142Y-83330142D01*
X108077000Y-82894714D02*
X108077000Y-83402714D01*
X107895571Y-82604428D02*
X107714142Y-83148714D01*
X108185857Y-83148714D01*
X99078142Y-84473142D02*
X99041857Y-84509428D01*
X98933000Y-84545714D01*
X98860428Y-84545714D01*
X98751571Y-84509428D01*
X98679000Y-84436857D01*
X98642714Y-84364285D01*
X98606428Y-84219142D01*
X98606428Y-84110285D01*
X98642714Y-83965142D01*
X98679000Y-83892571D01*
X98751571Y-83820000D01*
X98860428Y-83783714D01*
X98933000Y-83783714D01*
X99041857Y-83820000D01*
X99078142Y-83856285D01*
X99332142Y-83783714D02*
X99803857Y-83783714D01*
X99549857Y-84074000D01*
X99658714Y-84074000D01*
X99731285Y-84110285D01*
X99767571Y-84146571D01*
X99803857Y-84219142D01*
X99803857Y-84400571D01*
X99767571Y-84473142D01*
X99731285Y-84509428D01*
X99658714Y-84545714D01*
X99441000Y-84545714D01*
X99368428Y-84509428D01*
X99332142Y-84473142D01*
X100457000Y-83783714D02*
X100311857Y-83783714D01*
X100239285Y-83820000D01*
X100203000Y-83856285D01*
X100130428Y-83965142D01*
X100094142Y-84110285D01*
X100094142Y-84400571D01*
X100130428Y-84473142D01*
X100166714Y-84509428D01*
X100239285Y-84545714D01*
X100384428Y-84545714D01*
X100457000Y-84509428D01*
X100493285Y-84473142D01*
X100529571Y-84400571D01*
X100529571Y-84219142D01*
X100493285Y-84146571D01*
X100457000Y-84110285D01*
X100384428Y-84074000D01*
X100239285Y-84074000D01*
X100166714Y-84110285D01*
X100130428Y-84146571D01*
X100094142Y-84219142D01*
X100856142Y-89135857D02*
X100892428Y-89172142D01*
X100928714Y-89281000D01*
X100928714Y-89353571D01*
X100892428Y-89462428D01*
X100819857Y-89535000D01*
X100747285Y-89571285D01*
X100602142Y-89607571D01*
X100493285Y-89607571D01*
X100348142Y-89571285D01*
X100275571Y-89535000D01*
X100203000Y-89462428D01*
X100166714Y-89353571D01*
X100166714Y-89281000D01*
X100203000Y-89172142D01*
X100239285Y-89135857D01*
X100420714Y-88482714D02*
X100928714Y-88482714D01*
X100130428Y-88664142D02*
X100674714Y-88845571D01*
X100674714Y-88373857D01*
X100239285Y-88119857D02*
X100203000Y-88083571D01*
X100166714Y-88011000D01*
X100166714Y-87829571D01*
X100203000Y-87757000D01*
X100239285Y-87720714D01*
X100311857Y-87684428D01*
X100384428Y-87684428D01*
X100493285Y-87720714D01*
X100928714Y-88156142D01*
X100928714Y-87684428D01*
X93871142Y-84473142D02*
X93834857Y-84509428D01*
X93726000Y-84545714D01*
X93653428Y-84545714D01*
X93544571Y-84509428D01*
X93472000Y-84436857D01*
X93435714Y-84364285D01*
X93399428Y-84219142D01*
X93399428Y-84110285D01*
X93435714Y-83965142D01*
X93472000Y-83892571D01*
X93544571Y-83820000D01*
X93653428Y-83783714D01*
X93726000Y-83783714D01*
X93834857Y-83820000D01*
X93871142Y-83856285D01*
X94524285Y-84037714D02*
X94524285Y-84545714D01*
X94342857Y-83747428D02*
X94161428Y-84291714D01*
X94633142Y-84291714D01*
X94850857Y-83783714D02*
X95322571Y-83783714D01*
X95068571Y-84074000D01*
X95177428Y-84074000D01*
X95250000Y-84110285D01*
X95286285Y-84146571D01*
X95322571Y-84219142D01*
X95322571Y-84400571D01*
X95286285Y-84473142D01*
X95250000Y-84509428D01*
X95177428Y-84545714D01*
X94959714Y-84545714D01*
X94887142Y-84509428D01*
X94850857Y-84473142D01*
X113937142Y-87902142D02*
X113900857Y-87938428D01*
X113792000Y-87974714D01*
X113719428Y-87974714D01*
X113610571Y-87938428D01*
X113538000Y-87865857D01*
X113501714Y-87793285D01*
X113465428Y-87648142D01*
X113465428Y-87539285D01*
X113501714Y-87394142D01*
X113538000Y-87321571D01*
X113610571Y-87249000D01*
X113719428Y-87212714D01*
X113792000Y-87212714D01*
X113900857Y-87249000D01*
X113937142Y-87285285D01*
X114590285Y-87466714D02*
X114590285Y-87974714D01*
X114408857Y-87176428D02*
X114227428Y-87720714D01*
X114699142Y-87720714D01*
X115316000Y-87212714D02*
X115170857Y-87212714D01*
X115098285Y-87249000D01*
X115062000Y-87285285D01*
X114989428Y-87394142D01*
X114953142Y-87539285D01*
X114953142Y-87829571D01*
X114989428Y-87902142D01*
X115025714Y-87938428D01*
X115098285Y-87974714D01*
X115243428Y-87974714D01*
X115316000Y-87938428D01*
X115352285Y-87902142D01*
X115388571Y-87829571D01*
X115388571Y-87648142D01*
X115352285Y-87575571D01*
X115316000Y-87539285D01*
X115243428Y-87503000D01*
X115098285Y-87503000D01*
X115025714Y-87539285D01*
X114989428Y-87575571D01*
X114953142Y-87648142D01*
X113937142Y-86632142D02*
X113900857Y-86668428D01*
X113792000Y-86704714D01*
X113719428Y-86704714D01*
X113610571Y-86668428D01*
X113538000Y-86595857D01*
X113501714Y-86523285D01*
X113465428Y-86378142D01*
X113465428Y-86269285D01*
X113501714Y-86124142D01*
X113538000Y-86051571D01*
X113610571Y-85979000D01*
X113719428Y-85942714D01*
X113792000Y-85942714D01*
X113900857Y-85979000D01*
X113937142Y-86015285D01*
X114191142Y-85942714D02*
X114699142Y-85942714D01*
X114372571Y-86704714D01*
X115134571Y-85942714D02*
X115207142Y-85942714D01*
X115279714Y-85979000D01*
X115316000Y-86015285D01*
X115352285Y-86087857D01*
X115388571Y-86233000D01*
X115388571Y-86414428D01*
X115352285Y-86559571D01*
X115316000Y-86632142D01*
X115279714Y-86668428D01*
X115207142Y-86704714D01*
X115134571Y-86704714D01*
X115062000Y-86668428D01*
X115025714Y-86632142D01*
X114989428Y-86559571D01*
X114953142Y-86414428D01*
X114953142Y-86233000D01*
X114989428Y-86087857D01*
X115025714Y-86015285D01*
X115062000Y-85979000D01*
X115134571Y-85942714D01*
X113937142Y-85362142D02*
X113900857Y-85398428D01*
X113792000Y-85434714D01*
X113719428Y-85434714D01*
X113610571Y-85398428D01*
X113538000Y-85325857D01*
X113501714Y-85253285D01*
X113465428Y-85108142D01*
X113465428Y-84999285D01*
X113501714Y-84854142D01*
X113538000Y-84781571D01*
X113610571Y-84709000D01*
X113719428Y-84672714D01*
X113792000Y-84672714D01*
X113900857Y-84709000D01*
X113937142Y-84745285D01*
X114191142Y-84672714D02*
X114699142Y-84672714D01*
X114372571Y-85434714D01*
X114953142Y-84745285D02*
X114989428Y-84709000D01*
X115062000Y-84672714D01*
X115243428Y-84672714D01*
X115316000Y-84709000D01*
X115352285Y-84745285D01*
X115388571Y-84817857D01*
X115388571Y-84890428D01*
X115352285Y-84999285D01*
X114916857Y-85434714D01*
X115388571Y-85434714D01*
X131299857Y-95594714D02*
X131299857Y-94832714D01*
X131735285Y-95594714D01*
X131735285Y-94832714D01*
X131989285Y-94832714D02*
X132243285Y-95594714D01*
X132497285Y-94832714D01*
X133186714Y-95522142D02*
X133150428Y-95558428D01*
X133041571Y-95594714D01*
X132969000Y-95594714D01*
X132860142Y-95558428D01*
X132787571Y-95485857D01*
X132751285Y-95413285D01*
X132715000Y-95268142D01*
X132715000Y-95159285D01*
X132751285Y-95014142D01*
X132787571Y-94941571D01*
X132860142Y-94869000D01*
X132969000Y-94832714D01*
X133041571Y-94832714D01*
X133150428Y-94869000D01*
X133186714Y-94905285D01*
X133948714Y-95522142D02*
X133912428Y-95558428D01*
X133803571Y-95594714D01*
X133731000Y-95594714D01*
X133622142Y-95558428D01*
X133549571Y-95485857D01*
X133513285Y-95413285D01*
X133477000Y-95268142D01*
X133477000Y-95159285D01*
X133513285Y-95014142D01*
X133549571Y-94941571D01*
X133622142Y-94869000D01*
X133731000Y-94832714D01*
X133803571Y-94832714D01*
X133912428Y-94869000D01*
X133948714Y-94905285D01*
X134093857Y-95667285D02*
X134674428Y-95667285D01*
X134855857Y-95594714D02*
X134855857Y-94832714D01*
X135037285Y-94832714D01*
X135146142Y-94869000D01*
X135218714Y-94941571D01*
X135255000Y-95014142D01*
X135291285Y-95159285D01*
X135291285Y-95268142D01*
X135255000Y-95413285D01*
X135218714Y-95485857D01*
X135146142Y-95558428D01*
X135037285Y-95594714D01*
X134855857Y-95594714D01*
X136053285Y-95594714D02*
X135799285Y-95231857D01*
X135617857Y-95594714D02*
X135617857Y-94832714D01*
X135908142Y-94832714D01*
X135980714Y-94869000D01*
X136017000Y-94905285D01*
X136053285Y-94977857D01*
X136053285Y-95086714D01*
X136017000Y-95159285D01*
X135980714Y-95195571D01*
X135908142Y-95231857D01*
X135617857Y-95231857D01*
X136343571Y-95377000D02*
X136706428Y-95377000D01*
X136271000Y-95594714D02*
X136525000Y-94832714D01*
X136779000Y-95594714D01*
X137033000Y-95594714D02*
X137033000Y-94832714D01*
X137287000Y-95377000D01*
X137541000Y-94832714D01*
X137541000Y-95594714D01*
X137722428Y-95667285D02*
X138303000Y-95667285D01*
X138883571Y-95594714D02*
X138448142Y-95594714D01*
X138665857Y-95594714D02*
X138665857Y-94832714D01*
X138593285Y-94941571D01*
X138520714Y-95014142D01*
X138448142Y-95050428D01*
X139101285Y-94832714D02*
X139355285Y-95594714D01*
X139609285Y-94832714D01*
X140262428Y-95594714D02*
X139827000Y-95594714D01*
X140044714Y-95594714D02*
X140044714Y-94832714D01*
X139972142Y-94941571D01*
X139899571Y-95014142D01*
X139827000Y-95050428D01*
X94324714Y-80989714D02*
X94324714Y-80227714D01*
X94760142Y-80989714D01*
X94760142Y-80227714D01*
X95014142Y-80227714D02*
X95268142Y-80989714D01*
X95522142Y-80227714D01*
X96211571Y-80917142D02*
X96175285Y-80953428D01*
X96066428Y-80989714D01*
X95993857Y-80989714D01*
X95885000Y-80953428D01*
X95812428Y-80880857D01*
X95776142Y-80808285D01*
X95739857Y-80663142D01*
X95739857Y-80554285D01*
X95776142Y-80409142D01*
X95812428Y-80336571D01*
X95885000Y-80264000D01*
X95993857Y-80227714D01*
X96066428Y-80227714D01*
X96175285Y-80264000D01*
X96211571Y-80300285D01*
X96973571Y-80917142D02*
X96937285Y-80953428D01*
X96828428Y-80989714D01*
X96755857Y-80989714D01*
X96647000Y-80953428D01*
X96574428Y-80880857D01*
X96538142Y-80808285D01*
X96501857Y-80663142D01*
X96501857Y-80554285D01*
X96538142Y-80409142D01*
X96574428Y-80336571D01*
X96647000Y-80264000D01*
X96755857Y-80227714D01*
X96828428Y-80227714D01*
X96937285Y-80264000D01*
X96973571Y-80300285D01*
X97118714Y-81062285D02*
X97699285Y-81062285D01*
X97844428Y-80953428D02*
X97953285Y-80989714D01*
X98134714Y-80989714D01*
X98207285Y-80953428D01*
X98243571Y-80917142D01*
X98279857Y-80844571D01*
X98279857Y-80772000D01*
X98243571Y-80699428D01*
X98207285Y-80663142D01*
X98134714Y-80626857D01*
X97989571Y-80590571D01*
X97917000Y-80554285D01*
X97880714Y-80518000D01*
X97844428Y-80445428D01*
X97844428Y-80372857D01*
X97880714Y-80300285D01*
X97917000Y-80264000D01*
X97989571Y-80227714D01*
X98171000Y-80227714D01*
X98279857Y-80264000D01*
X98606428Y-80989714D02*
X98606428Y-80227714D01*
X98787857Y-80227714D01*
X98896714Y-80264000D01*
X98969285Y-80336571D01*
X99005571Y-80409142D01*
X99041857Y-80554285D01*
X99041857Y-80663142D01*
X99005571Y-80808285D01*
X98969285Y-80880857D01*
X98896714Y-80953428D01*
X98787857Y-80989714D01*
X98606428Y-80989714D01*
X99332142Y-80300285D02*
X99368428Y-80264000D01*
X99441000Y-80227714D01*
X99622428Y-80227714D01*
X99695000Y-80264000D01*
X99731285Y-80300285D01*
X99767571Y-80372857D01*
X99767571Y-80445428D01*
X99731285Y-80554285D01*
X99295857Y-80989714D01*
X99767571Y-80989714D01*
X92891428Y-82767714D02*
X92891428Y-82005714D01*
X93326857Y-82767714D01*
X93326857Y-82005714D01*
X93580857Y-82005714D02*
X93834857Y-82767714D01*
X94088857Y-82005714D01*
X94778285Y-82695142D02*
X94742000Y-82731428D01*
X94633142Y-82767714D01*
X94560571Y-82767714D01*
X94451714Y-82731428D01*
X94379142Y-82658857D01*
X94342857Y-82586285D01*
X94306571Y-82441142D01*
X94306571Y-82332285D01*
X94342857Y-82187142D01*
X94379142Y-82114571D01*
X94451714Y-82042000D01*
X94560571Y-82005714D01*
X94633142Y-82005714D01*
X94742000Y-82042000D01*
X94778285Y-82078285D01*
X95540285Y-82695142D02*
X95504000Y-82731428D01*
X95395142Y-82767714D01*
X95322571Y-82767714D01*
X95213714Y-82731428D01*
X95141142Y-82658857D01*
X95104857Y-82586285D01*
X95068571Y-82441142D01*
X95068571Y-82332285D01*
X95104857Y-82187142D01*
X95141142Y-82114571D01*
X95213714Y-82042000D01*
X95322571Y-82005714D01*
X95395142Y-82005714D01*
X95504000Y-82042000D01*
X95540285Y-82078285D01*
X95685428Y-82840285D02*
X96266000Y-82840285D01*
X96411142Y-82731428D02*
X96520000Y-82767714D01*
X96701428Y-82767714D01*
X96774000Y-82731428D01*
X96810285Y-82695142D01*
X96846571Y-82622571D01*
X96846571Y-82550000D01*
X96810285Y-82477428D01*
X96774000Y-82441142D01*
X96701428Y-82404857D01*
X96556285Y-82368571D01*
X96483714Y-82332285D01*
X96447428Y-82296000D01*
X96411142Y-82223428D01*
X96411142Y-82150857D01*
X96447428Y-82078285D01*
X96483714Y-82042000D01*
X96556285Y-82005714D01*
X96737714Y-82005714D01*
X96846571Y-82042000D01*
X97173142Y-82767714D02*
X97173142Y-82005714D01*
X97608571Y-82767714D01*
X97608571Y-82005714D01*
X97862571Y-82005714D02*
X98116571Y-82767714D01*
X98370571Y-82005714D01*
X98588285Y-82731428D02*
X98697142Y-82767714D01*
X98878571Y-82767714D01*
X98951142Y-82731428D01*
X98987428Y-82695142D01*
X99023714Y-82622571D01*
X99023714Y-82550000D01*
X98987428Y-82477428D01*
X98951142Y-82441142D01*
X98878571Y-82404857D01*
X98733428Y-82368571D01*
X98660857Y-82332285D01*
X98624571Y-82296000D01*
X98588285Y-82223428D01*
X98588285Y-82150857D01*
X98624571Y-82078285D01*
X98660857Y-82042000D01*
X98733428Y-82005714D01*
X98914857Y-82005714D01*
X99023714Y-82042000D01*
X99168857Y-82840285D02*
X99749428Y-82840285D01*
X100330000Y-82767714D02*
X99894571Y-82767714D01*
X100112285Y-82767714D02*
X100112285Y-82005714D01*
X100039714Y-82114571D01*
X99967142Y-82187142D01*
X99894571Y-82223428D01*
X100547714Y-82005714D02*
X100801714Y-82767714D01*
X101055714Y-82005714D01*
X101418571Y-82332285D02*
X101346000Y-82296000D01*
X101309714Y-82259714D01*
X101273428Y-82187142D01*
X101273428Y-82150857D01*
X101309714Y-82078285D01*
X101346000Y-82042000D01*
X101418571Y-82005714D01*
X101563714Y-82005714D01*
X101636285Y-82042000D01*
X101672571Y-82078285D01*
X101708857Y-82150857D01*
X101708857Y-82187142D01*
X101672571Y-82259714D01*
X101636285Y-82296000D01*
X101563714Y-82332285D01*
X101418571Y-82332285D01*
X101346000Y-82368571D01*
X101309714Y-82404857D01*
X101273428Y-82477428D01*
X101273428Y-82622571D01*
X101309714Y-82695142D01*
X101346000Y-82731428D01*
X101418571Y-82767714D01*
X101563714Y-82767714D01*
X101636285Y-82731428D01*
X101672571Y-82695142D01*
X101708857Y-82622571D01*
X101708857Y-82477428D01*
X101672571Y-82404857D01*
X101636285Y-82368571D01*
X101563714Y-82332285D01*
X146267714Y-82296000D02*
X145904857Y-82550000D01*
X146267714Y-82731428D02*
X145505714Y-82731428D01*
X145505714Y-82441142D01*
X145542000Y-82368571D01*
X145578285Y-82332285D01*
X145650857Y-82296000D01*
X145759714Y-82296000D01*
X145832285Y-82332285D01*
X145868571Y-82368571D01*
X145904857Y-82441142D01*
X145904857Y-82731428D01*
X146267714Y-81570285D02*
X146267714Y-82005714D01*
X146267714Y-81788000D02*
X145505714Y-81788000D01*
X145614571Y-81860571D01*
X145687142Y-81933142D01*
X145723428Y-82005714D01*
X133249948Y-86058552D02*
X132813764Y-85981578D01*
X132942053Y-86366446D02*
X132403238Y-85827631D01*
X132608501Y-85622368D01*
X132685475Y-85596710D01*
X132736790Y-85596710D01*
X132813764Y-85622368D01*
X132890738Y-85699342D01*
X132916395Y-85776315D01*
X132916395Y-85827631D01*
X132890738Y-85904605D01*
X132685475Y-86109868D01*
X132967711Y-85365789D02*
X132967711Y-85314474D01*
X132993369Y-85237500D01*
X133121658Y-85109211D01*
X133198632Y-85083553D01*
X133249948Y-85083553D01*
X133326921Y-85109211D01*
X133378237Y-85160526D01*
X133429553Y-85263158D01*
X133429553Y-85878947D01*
X133763105Y-85545394D01*
X142203714Y-76454000D02*
X141840857Y-76708000D01*
X142203714Y-76889428D02*
X141441714Y-76889428D01*
X141441714Y-76599142D01*
X141478000Y-76526571D01*
X141514285Y-76490285D01*
X141586857Y-76454000D01*
X141695714Y-76454000D01*
X141768285Y-76490285D01*
X141804571Y-76526571D01*
X141840857Y-76599142D01*
X141840857Y-76889428D01*
X142203714Y-76091142D02*
X142203714Y-75946000D01*
X142167428Y-75873428D01*
X142131142Y-75837142D01*
X142022285Y-75764571D01*
X141877142Y-75728285D01*
X141586857Y-75728285D01*
X141514285Y-75764571D01*
X141478000Y-75800857D01*
X141441714Y-75873428D01*
X141441714Y-76018571D01*
X141478000Y-76091142D01*
X141514285Y-76127428D01*
X141586857Y-76163714D01*
X141768285Y-76163714D01*
X141840857Y-76127428D01*
X141877142Y-76091142D01*
X141913428Y-76018571D01*
X141913428Y-75873428D01*
X141877142Y-75800857D01*
X141840857Y-75764571D01*
X141768285Y-75728285D01*
X143600714Y-76435857D02*
X143237857Y-76689857D01*
X143600714Y-76871285D02*
X142838714Y-76871285D01*
X142838714Y-76581000D01*
X142875000Y-76508428D01*
X142911285Y-76472142D01*
X142983857Y-76435857D01*
X143092714Y-76435857D01*
X143165285Y-76472142D01*
X143201571Y-76508428D01*
X143237857Y-76581000D01*
X143237857Y-76871285D01*
X143600714Y-75710142D02*
X143600714Y-76145571D01*
X143600714Y-75927857D02*
X142838714Y-75927857D01*
X142947571Y-76000428D01*
X143020142Y-76073000D01*
X143056428Y-76145571D01*
X142838714Y-75238428D02*
X142838714Y-75165857D01*
X142875000Y-75093285D01*
X142911285Y-75057000D01*
X142983857Y-75020714D01*
X143129000Y-74984428D01*
X143310428Y-74984428D01*
X143455571Y-75020714D01*
X143528142Y-75057000D01*
X143564428Y-75093285D01*
X143600714Y-75165857D01*
X143600714Y-75238428D01*
X143564428Y-75311000D01*
X143528142Y-75347285D01*
X143455571Y-75383571D01*
X143310428Y-75419857D01*
X143129000Y-75419857D01*
X142983857Y-75383571D01*
X142911285Y-75347285D01*
X142875000Y-75311000D01*
X142838714Y-75238428D01*
X94252142Y-88609714D02*
X93998142Y-88246857D01*
X93816714Y-88609714D02*
X93816714Y-87847714D01*
X94107000Y-87847714D01*
X94179571Y-87884000D01*
X94215857Y-87920285D01*
X94252142Y-87992857D01*
X94252142Y-88101714D01*
X94215857Y-88174285D01*
X94179571Y-88210571D01*
X94107000Y-88246857D01*
X93816714Y-88246857D01*
X94977857Y-88609714D02*
X94542428Y-88609714D01*
X94760142Y-88609714D02*
X94760142Y-87847714D01*
X94687571Y-87956571D01*
X94615000Y-88029142D01*
X94542428Y-88065428D01*
X95703571Y-88609714D02*
X95268142Y-88609714D01*
X95485857Y-88609714D02*
X95485857Y-87847714D01*
X95413285Y-87956571D01*
X95340714Y-88029142D01*
X95268142Y-88065428D01*
X94125142Y-87339714D02*
X93871142Y-86976857D01*
X93689714Y-87339714D02*
X93689714Y-86577714D01*
X93980000Y-86577714D01*
X94052571Y-86614000D01*
X94088857Y-86650285D01*
X94125142Y-86722857D01*
X94125142Y-86831714D01*
X94088857Y-86904285D01*
X94052571Y-86940571D01*
X93980000Y-86976857D01*
X93689714Y-86976857D01*
X94415428Y-86650285D02*
X94451714Y-86614000D01*
X94524285Y-86577714D01*
X94705714Y-86577714D01*
X94778285Y-86614000D01*
X94814571Y-86650285D01*
X94850857Y-86722857D01*
X94850857Y-86795428D01*
X94814571Y-86904285D01*
X94379142Y-87339714D01*
X94850857Y-87339714D01*
X95540285Y-86577714D02*
X95177428Y-86577714D01*
X95141142Y-86940571D01*
X95177428Y-86904285D01*
X95250000Y-86868000D01*
X95431428Y-86868000D01*
X95504000Y-86904285D01*
X95540285Y-86940571D01*
X95576571Y-87013142D01*
X95576571Y-87194571D01*
X95540285Y-87267142D01*
X95504000Y-87303428D01*
X95431428Y-87339714D01*
X95250000Y-87339714D01*
X95177428Y-87303428D01*
X95141142Y-87267142D01*
D13*
X132575904Y-91518619D02*
X132575904Y-92341095D01*
X132624285Y-92437857D01*
X132672666Y-92486238D01*
X132769428Y-92534619D01*
X132962952Y-92534619D01*
X133059714Y-92486238D01*
X133108095Y-92437857D01*
X133156476Y-92341095D01*
X133156476Y-91518619D01*
X134172476Y-92534619D02*
X133591904Y-92534619D01*
X133882190Y-92534619D02*
X133882190Y-91518619D01*
X133785428Y-91663761D01*
X133688666Y-91760523D01*
X133591904Y-91808904D01*
X131659285Y-93824523D02*
X131538333Y-93764047D01*
X131477857Y-93703571D01*
X131417380Y-93582619D01*
X131417380Y-93219761D01*
X131477857Y-93098809D01*
X131538333Y-93038333D01*
X131659285Y-92977857D01*
X131840714Y-92977857D01*
X131961666Y-93038333D01*
X132022142Y-93098809D01*
X132082619Y-93219761D01*
X132082619Y-93582619D01*
X132022142Y-93703571D01*
X131961666Y-93764047D01*
X131840714Y-93824523D01*
X131659285Y-93824523D01*
D10*
X114920485Y-105195914D02*
X115174485Y-105957914D01*
X115428485Y-105195914D01*
X115682485Y-105957914D02*
X115682485Y-105195914D01*
X115863914Y-105195914D01*
X115972771Y-105232200D01*
X116045342Y-105304771D01*
X116081628Y-105377342D01*
X116117914Y-105522485D01*
X116117914Y-105631342D01*
X116081628Y-105776485D01*
X116045342Y-105849057D01*
X115972771Y-105921628D01*
X115863914Y-105957914D01*
X115682485Y-105957914D01*
X116444485Y-105957914D02*
X116444485Y-105195914D01*
X116625914Y-105195914D01*
X116734771Y-105232200D01*
X116807342Y-105304771D01*
X116843628Y-105377342D01*
X116879914Y-105522485D01*
X116879914Y-105631342D01*
X116843628Y-105776485D01*
X116807342Y-105849057D01*
X116734771Y-105921628D01*
X116625914Y-105957914D01*
X116444485Y-105957914D01*
X117025057Y-106030485D02*
X117605628Y-106030485D01*
X118186200Y-105957914D02*
X117750771Y-105957914D01*
X117968485Y-105957914D02*
X117968485Y-105195914D01*
X117895914Y-105304771D01*
X117823342Y-105377342D01*
X117750771Y-105413628D01*
X118403914Y-105195914D02*
X118657914Y-105957914D01*
X118911914Y-105195914D01*
X119274771Y-105522485D02*
X119202200Y-105486200D01*
X119165914Y-105449914D01*
X119129628Y-105377342D01*
X119129628Y-105341057D01*
X119165914Y-105268485D01*
X119202200Y-105232200D01*
X119274771Y-105195914D01*
X119419914Y-105195914D01*
X119492485Y-105232200D01*
X119528771Y-105268485D01*
X119565057Y-105341057D01*
X119565057Y-105377342D01*
X119528771Y-105449914D01*
X119492485Y-105486200D01*
X119419914Y-105522485D01*
X119274771Y-105522485D01*
X119202200Y-105558771D01*
X119165914Y-105595057D01*
X119129628Y-105667628D01*
X119129628Y-105812771D01*
X119165914Y-105885342D01*
X119202200Y-105921628D01*
X119274771Y-105957914D01*
X119419914Y-105957914D01*
X119492485Y-105921628D01*
X119528771Y-105885342D01*
X119565057Y-105812771D01*
X119565057Y-105667628D01*
X119528771Y-105595057D01*
X119492485Y-105558771D01*
X119419914Y-105522485D01*
X119710200Y-106030485D02*
X120290771Y-106030485D01*
X120871342Y-105957914D02*
X120435914Y-105957914D01*
X120653628Y-105957914D02*
X120653628Y-105195914D01*
X120581057Y-105304771D01*
X120508485Y-105377342D01*
X120435914Y-105413628D01*
X91022714Y-103214714D02*
X91784714Y-102960714D01*
X91022714Y-102706714D01*
X91784714Y-102452714D02*
X91022714Y-102452714D01*
X91022714Y-102271285D01*
X91059000Y-102162428D01*
X91131571Y-102089857D01*
X91204142Y-102053571D01*
X91349285Y-102017285D01*
X91458142Y-102017285D01*
X91603285Y-102053571D01*
X91675857Y-102089857D01*
X91748428Y-102162428D01*
X91784714Y-102271285D01*
X91784714Y-102452714D01*
X91784714Y-101690714D02*
X91022714Y-101690714D01*
X91022714Y-101509285D01*
X91059000Y-101400428D01*
X91131571Y-101327857D01*
X91204142Y-101291571D01*
X91349285Y-101255285D01*
X91458142Y-101255285D01*
X91603285Y-101291571D01*
X91675857Y-101327857D01*
X91748428Y-101400428D01*
X91784714Y-101509285D01*
X91784714Y-101690714D01*
X91857285Y-101110142D02*
X91857285Y-100529571D01*
X91022714Y-100420714D02*
X91022714Y-99949000D01*
X91313000Y-100203000D01*
X91313000Y-100094142D01*
X91349285Y-100021571D01*
X91385571Y-99985285D01*
X91458142Y-99949000D01*
X91639571Y-99949000D01*
X91712142Y-99985285D01*
X91748428Y-100021571D01*
X91784714Y-100094142D01*
X91784714Y-100311857D01*
X91748428Y-100384428D01*
X91712142Y-100420714D01*
X91022714Y-99731285D02*
X91784714Y-99477285D01*
X91022714Y-99223285D01*
X91022714Y-99041857D02*
X91022714Y-98570142D01*
X91313000Y-98824142D01*
X91313000Y-98715285D01*
X91349285Y-98642714D01*
X91385571Y-98606428D01*
X91458142Y-98570142D01*
X91639571Y-98570142D01*
X91712142Y-98606428D01*
X91748428Y-98642714D01*
X91784714Y-98715285D01*
X91784714Y-98933000D01*
X91748428Y-99005571D01*
X91712142Y-99041857D01*
X91857285Y-98425000D02*
X91857285Y-97844428D01*
X91784714Y-97263857D02*
X91784714Y-97699285D01*
X91784714Y-97481571D02*
X91022714Y-97481571D01*
X91131571Y-97554142D01*
X91204142Y-97626714D01*
X91240428Y-97699285D01*
X105518857Y-93816714D02*
X105772857Y-94578714D01*
X106026857Y-93816714D01*
X106280857Y-94578714D02*
X106280857Y-93816714D01*
X106462285Y-93816714D01*
X106571142Y-93853000D01*
X106643714Y-93925571D01*
X106680000Y-93998142D01*
X106716285Y-94143285D01*
X106716285Y-94252142D01*
X106680000Y-94397285D01*
X106643714Y-94469857D01*
X106571142Y-94542428D01*
X106462285Y-94578714D01*
X106280857Y-94578714D01*
X107042857Y-94578714D02*
X107042857Y-93816714D01*
X107224285Y-93816714D01*
X107333142Y-93853000D01*
X107405714Y-93925571D01*
X107442000Y-93998142D01*
X107478285Y-94143285D01*
X107478285Y-94252142D01*
X107442000Y-94397285D01*
X107405714Y-94469857D01*
X107333142Y-94542428D01*
X107224285Y-94578714D01*
X107042857Y-94578714D01*
X107623428Y-94651285D02*
X108204000Y-94651285D01*
X108349142Y-94361000D02*
X108712000Y-94361000D01*
X108276571Y-94578714D02*
X108530571Y-93816714D01*
X108784571Y-94578714D01*
X109474000Y-94578714D02*
X109220000Y-94215857D01*
X109038571Y-94578714D02*
X109038571Y-93816714D01*
X109328857Y-93816714D01*
X109401428Y-93853000D01*
X109437714Y-93889285D01*
X109474000Y-93961857D01*
X109474000Y-94070714D01*
X109437714Y-94143285D01*
X109401428Y-94179571D01*
X109328857Y-94215857D01*
X109038571Y-94215857D01*
X109800571Y-94578714D02*
X109800571Y-93816714D01*
X110054571Y-94361000D01*
X110308571Y-93816714D01*
X110308571Y-94578714D01*
X111070571Y-94578714D02*
X110635142Y-94578714D01*
X110852857Y-94578714D02*
X110852857Y-93816714D01*
X110780285Y-93925571D01*
X110707714Y-93998142D01*
X110635142Y-94034428D01*
X110090857Y-80608714D02*
X110344857Y-81370714D01*
X110598857Y-80608714D01*
X110852857Y-81370714D02*
X110852857Y-80608714D01*
X111034285Y-80608714D01*
X111143142Y-80645000D01*
X111215714Y-80717571D01*
X111252000Y-80790142D01*
X111288285Y-80935285D01*
X111288285Y-81044142D01*
X111252000Y-81189285D01*
X111215714Y-81261857D01*
X111143142Y-81334428D01*
X111034285Y-81370714D01*
X110852857Y-81370714D01*
X111614857Y-81370714D02*
X111614857Y-80608714D01*
X111796285Y-80608714D01*
X111905142Y-80645000D01*
X111977714Y-80717571D01*
X112014000Y-80790142D01*
X112050285Y-80935285D01*
X112050285Y-81044142D01*
X112014000Y-81189285D01*
X111977714Y-81261857D01*
X111905142Y-81334428D01*
X111796285Y-81370714D01*
X111614857Y-81370714D01*
X112195428Y-81443285D02*
X112776000Y-81443285D01*
X112921142Y-81334428D02*
X113030000Y-81370714D01*
X113211428Y-81370714D01*
X113284000Y-81334428D01*
X113320285Y-81298142D01*
X113356571Y-81225571D01*
X113356571Y-81153000D01*
X113320285Y-81080428D01*
X113284000Y-81044142D01*
X113211428Y-81007857D01*
X113066285Y-80971571D01*
X112993714Y-80935285D01*
X112957428Y-80899000D01*
X112921142Y-80826428D01*
X112921142Y-80753857D01*
X112957428Y-80681285D01*
X112993714Y-80645000D01*
X113066285Y-80608714D01*
X113247714Y-80608714D01*
X113356571Y-80645000D01*
X113828285Y-80608714D02*
X113973428Y-80608714D01*
X114046000Y-80645000D01*
X114118571Y-80717571D01*
X114154857Y-80862714D01*
X114154857Y-81116714D01*
X114118571Y-81261857D01*
X114046000Y-81334428D01*
X113973428Y-81370714D01*
X113828285Y-81370714D01*
X113755714Y-81334428D01*
X113683142Y-81261857D01*
X113646857Y-81116714D01*
X113646857Y-80862714D01*
X113683142Y-80717571D01*
X113755714Y-80645000D01*
X113828285Y-80608714D01*
X114916857Y-81298142D02*
X114880571Y-81334428D01*
X114771714Y-81370714D01*
X114699142Y-81370714D01*
X114590285Y-81334428D01*
X114517714Y-81261857D01*
X114481428Y-81189285D01*
X114445142Y-81044142D01*
X114445142Y-80935285D01*
X114481428Y-80790142D01*
X114517714Y-80717571D01*
X114590285Y-80645000D01*
X114699142Y-80608714D01*
X114771714Y-80608714D01*
X114880571Y-80645000D01*
X114916857Y-80681285D01*
X115642571Y-81370714D02*
X115207142Y-81370714D01*
X115424857Y-81370714D02*
X115424857Y-80608714D01*
X115352285Y-80717571D01*
X115279714Y-80790142D01*
X115207142Y-80826428D01*
X97771857Y-91657714D02*
X98025857Y-92419714D01*
X98279857Y-91657714D01*
X98533857Y-92419714D02*
X98533857Y-91657714D01*
X98715285Y-91657714D01*
X98824142Y-91694000D01*
X98896714Y-91766571D01*
X98933000Y-91839142D01*
X98969285Y-91984285D01*
X98969285Y-92093142D01*
X98933000Y-92238285D01*
X98896714Y-92310857D01*
X98824142Y-92383428D01*
X98715285Y-92419714D01*
X98533857Y-92419714D01*
X99295857Y-92419714D02*
X99295857Y-91657714D01*
X99477285Y-91657714D01*
X99586142Y-91694000D01*
X99658714Y-91766571D01*
X99695000Y-91839142D01*
X99731285Y-91984285D01*
X99731285Y-92093142D01*
X99695000Y-92238285D01*
X99658714Y-92310857D01*
X99586142Y-92383428D01*
X99477285Y-92419714D01*
X99295857Y-92419714D01*
X100021571Y-92202000D02*
X100384428Y-92202000D01*
X99949000Y-92419714D02*
X100203000Y-91657714D01*
X100457000Y-92419714D01*
X100529571Y-92492285D02*
X101110142Y-92492285D01*
X101690714Y-92419714D02*
X101255285Y-92419714D01*
X101473000Y-92419714D02*
X101473000Y-91657714D01*
X101400428Y-91766571D01*
X101327857Y-91839142D01*
X101255285Y-91875428D01*
X101908428Y-91657714D02*
X102162428Y-92419714D01*
X102416428Y-91657714D01*
X102779285Y-91984285D02*
X102706714Y-91948000D01*
X102670428Y-91911714D01*
X102634142Y-91839142D01*
X102634142Y-91802857D01*
X102670428Y-91730285D01*
X102706714Y-91694000D01*
X102779285Y-91657714D01*
X102924428Y-91657714D01*
X102997000Y-91694000D01*
X103033285Y-91730285D01*
X103069571Y-91802857D01*
X103069571Y-91839142D01*
X103033285Y-91911714D01*
X102997000Y-91948000D01*
X102924428Y-91984285D01*
X102779285Y-91984285D01*
X102706714Y-92020571D01*
X102670428Y-92056857D01*
X102634142Y-92129428D01*
X102634142Y-92274571D01*
X102670428Y-92347142D01*
X102706714Y-92383428D01*
X102779285Y-92419714D01*
X102924428Y-92419714D01*
X102997000Y-92383428D01*
X103033285Y-92347142D01*
X103069571Y-92274571D01*
X103069571Y-92129428D01*
X103033285Y-92056857D01*
X102997000Y-92020571D01*
X102924428Y-91984285D01*
X104212571Y-78449714D02*
X104466571Y-79211714D01*
X104720571Y-78449714D01*
X104938285Y-79175428D02*
X105047142Y-79211714D01*
X105228571Y-79211714D01*
X105301142Y-79175428D01*
X105337428Y-79139142D01*
X105373714Y-79066571D01*
X105373714Y-78994000D01*
X105337428Y-78921428D01*
X105301142Y-78885142D01*
X105228571Y-78848857D01*
X105083428Y-78812571D01*
X105010857Y-78776285D01*
X104974571Y-78740000D01*
X104938285Y-78667428D01*
X104938285Y-78594857D01*
X104974571Y-78522285D01*
X105010857Y-78486000D01*
X105083428Y-78449714D01*
X105264857Y-78449714D01*
X105373714Y-78486000D01*
X105700285Y-79211714D02*
X105700285Y-78449714D01*
X105881714Y-78449714D01*
X105990571Y-78486000D01*
X106063142Y-78558571D01*
X106099428Y-78631142D01*
X106135714Y-78776285D01*
X106135714Y-78885142D01*
X106099428Y-79030285D01*
X106063142Y-79102857D01*
X105990571Y-79175428D01*
X105881714Y-79211714D01*
X105700285Y-79211714D01*
X106280857Y-79284285D02*
X106861428Y-79284285D01*
X106970285Y-78449714D02*
X107442000Y-78449714D01*
X107188000Y-78740000D01*
X107296857Y-78740000D01*
X107369428Y-78776285D01*
X107405714Y-78812571D01*
X107442000Y-78885142D01*
X107442000Y-79066571D01*
X107405714Y-79139142D01*
X107369428Y-79175428D01*
X107296857Y-79211714D01*
X107079142Y-79211714D01*
X107006571Y-79175428D01*
X106970285Y-79139142D01*
X107659714Y-78449714D02*
X107913714Y-79211714D01*
X108167714Y-78449714D01*
X108349142Y-78449714D02*
X108820857Y-78449714D01*
X108566857Y-78740000D01*
X108675714Y-78740000D01*
X108748285Y-78776285D01*
X108784571Y-78812571D01*
X108820857Y-78885142D01*
X108820857Y-79066571D01*
X108784571Y-79139142D01*
X108748285Y-79175428D01*
X108675714Y-79211714D01*
X108458000Y-79211714D01*
X108385428Y-79175428D01*
X108349142Y-79139142D01*
X99713142Y-88246857D02*
X99749428Y-88283142D01*
X99785714Y-88392000D01*
X99785714Y-88464571D01*
X99749428Y-88573428D01*
X99676857Y-88646000D01*
X99604285Y-88682285D01*
X99459142Y-88718571D01*
X99350285Y-88718571D01*
X99205142Y-88682285D01*
X99132571Y-88646000D01*
X99060000Y-88573428D01*
X99023714Y-88464571D01*
X99023714Y-88392000D01*
X99060000Y-88283142D01*
X99096285Y-88246857D01*
X99023714Y-87992857D02*
X99023714Y-87521142D01*
X99314000Y-87775142D01*
X99314000Y-87666285D01*
X99350285Y-87593714D01*
X99386571Y-87557428D01*
X99459142Y-87521142D01*
X99640571Y-87521142D01*
X99713142Y-87557428D01*
X99749428Y-87593714D01*
X99785714Y-87666285D01*
X99785714Y-87884000D01*
X99749428Y-87956571D01*
X99713142Y-87992857D01*
X99023714Y-87267142D02*
X99023714Y-86759142D01*
X99785714Y-87085714D01*
X95213714Y-102216857D02*
X94850857Y-102470857D01*
X95213714Y-102652285D02*
X94451714Y-102652285D01*
X94451714Y-102362000D01*
X94488000Y-102289428D01*
X94524285Y-102253142D01*
X94596857Y-102216857D01*
X94705714Y-102216857D01*
X94778285Y-102253142D01*
X94814571Y-102289428D01*
X94850857Y-102362000D01*
X94850857Y-102652285D01*
X94451714Y-101962857D02*
X94451714Y-101491142D01*
X94742000Y-101745142D01*
X94742000Y-101636285D01*
X94778285Y-101563714D01*
X94814571Y-101527428D01*
X94887142Y-101491142D01*
X95068571Y-101491142D01*
X95141142Y-101527428D01*
X95177428Y-101563714D01*
X95213714Y-101636285D01*
X95213714Y-101854000D01*
X95177428Y-101926571D01*
X95141142Y-101962857D01*
X95213714Y-101128285D02*
X95213714Y-100983142D01*
X95177428Y-100910571D01*
X95141142Y-100874285D01*
X95032285Y-100801714D01*
X94887142Y-100765428D01*
X94596857Y-100765428D01*
X94524285Y-100801714D01*
X94488000Y-100838000D01*
X94451714Y-100910571D01*
X94451714Y-101055714D01*
X94488000Y-101128285D01*
X94524285Y-101164571D01*
X94596857Y-101200857D01*
X94778285Y-101200857D01*
X94850857Y-101164571D01*
X94887142Y-101128285D01*
X94923428Y-101055714D01*
X94923428Y-100910571D01*
X94887142Y-100838000D01*
X94850857Y-100801714D01*
X94778285Y-100765428D01*
X88500857Y-106226428D02*
X88609714Y-106262714D01*
X88791142Y-106262714D01*
X88863714Y-106226428D01*
X88900000Y-106190142D01*
X88936285Y-106117571D01*
X88936285Y-106045000D01*
X88900000Y-105972428D01*
X88863714Y-105936142D01*
X88791142Y-105899857D01*
X88646000Y-105863571D01*
X88573428Y-105827285D01*
X88537142Y-105791000D01*
X88500857Y-105718428D01*
X88500857Y-105645857D01*
X88537142Y-105573285D01*
X88573428Y-105537000D01*
X88646000Y-105500714D01*
X88827428Y-105500714D01*
X88936285Y-105537000D01*
X89154000Y-105500714D02*
X89589428Y-105500714D01*
X89371714Y-106262714D02*
X89371714Y-105500714D01*
X89807142Y-106045000D02*
X90170000Y-106045000D01*
X89734571Y-106262714D02*
X89988571Y-105500714D01*
X90242571Y-106262714D01*
X90387714Y-105500714D02*
X90823142Y-105500714D01*
X90605428Y-106262714D02*
X90605428Y-105500714D01*
X90895714Y-106335285D02*
X91476285Y-106335285D01*
X92020571Y-106262714D02*
X91657714Y-106262714D01*
X91657714Y-105500714D01*
X92274571Y-105863571D02*
X92528571Y-105863571D01*
X92637428Y-106262714D02*
X92274571Y-106262714D01*
X92274571Y-105500714D01*
X92637428Y-105500714D01*
X92964000Y-106262714D02*
X92964000Y-105500714D01*
X93145428Y-105500714D01*
X93254285Y-105537000D01*
X93326857Y-105609571D01*
X93363142Y-105682142D01*
X93399428Y-105827285D01*
X93399428Y-105936142D01*
X93363142Y-106081285D01*
X93326857Y-106153857D01*
X93254285Y-106226428D01*
X93145428Y-106262714D01*
X92964000Y-106262714D01*
X94125142Y-106262714D02*
X93689714Y-106262714D01*
X93907428Y-106262714D02*
X93907428Y-105500714D01*
X93834857Y-105609571D01*
X93762285Y-105682142D01*
X93689714Y-105718428D01*
X122518714Y-67545857D02*
X122155857Y-67799857D01*
X122518714Y-67981285D02*
X121756714Y-67981285D01*
X121756714Y-67691000D01*
X121793000Y-67618428D01*
X121829285Y-67582142D01*
X121901857Y-67545857D01*
X122010714Y-67545857D01*
X122083285Y-67582142D01*
X122119571Y-67618428D01*
X122155857Y-67691000D01*
X122155857Y-67981285D01*
X122010714Y-66892714D02*
X122518714Y-66892714D01*
X121720428Y-67074142D02*
X122264714Y-67255571D01*
X122264714Y-66783857D01*
X121756714Y-66348428D02*
X121756714Y-66275857D01*
X121793000Y-66203285D01*
X121829285Y-66167000D01*
X121901857Y-66130714D01*
X122047000Y-66094428D01*
X122228428Y-66094428D01*
X122373571Y-66130714D01*
X122446142Y-66167000D01*
X122482428Y-66203285D01*
X122518714Y-66275857D01*
X122518714Y-66348428D01*
X122482428Y-66421000D01*
X122446142Y-66457285D01*
X122373571Y-66493571D01*
X122228428Y-66529857D01*
X122047000Y-66529857D01*
X121901857Y-66493571D01*
X121829285Y-66457285D01*
X121793000Y-66421000D01*
X121756714Y-66348428D01*
X124169714Y-67545857D02*
X123806857Y-67799857D01*
X124169714Y-67981285D02*
X123407714Y-67981285D01*
X123407714Y-67691000D01*
X123444000Y-67618428D01*
X123480285Y-67582142D01*
X123552857Y-67545857D01*
X123661714Y-67545857D01*
X123734285Y-67582142D01*
X123770571Y-67618428D01*
X123806857Y-67691000D01*
X123806857Y-67981285D01*
X123661714Y-66892714D02*
X124169714Y-66892714D01*
X123371428Y-67074142D02*
X123915714Y-67255571D01*
X123915714Y-66783857D01*
X124169714Y-66094428D02*
X124169714Y-66529857D01*
X124169714Y-66312142D02*
X123407714Y-66312142D01*
X123516571Y-66384714D01*
X123589142Y-66457285D01*
X123625428Y-66529857D01*
X86051571Y-99695000D02*
X85979000Y-99658714D01*
X85870142Y-99658714D01*
X85761285Y-99695000D01*
X85688714Y-99767571D01*
X85652428Y-99840142D01*
X85616142Y-99985285D01*
X85616142Y-100094142D01*
X85652428Y-100239285D01*
X85688714Y-100311857D01*
X85761285Y-100384428D01*
X85870142Y-100420714D01*
X85942714Y-100420714D01*
X86051571Y-100384428D01*
X86087857Y-100348142D01*
X86087857Y-100094142D01*
X85942714Y-100094142D01*
X86414428Y-100420714D02*
X86414428Y-99658714D01*
X86849857Y-100420714D01*
X86849857Y-99658714D01*
X87212714Y-100420714D02*
X87212714Y-99658714D01*
X87394142Y-99658714D01*
X87503000Y-99695000D01*
X87575571Y-99767571D01*
X87611857Y-99840142D01*
X87648142Y-99985285D01*
X87648142Y-100094142D01*
X87611857Y-100239285D01*
X87575571Y-100311857D01*
X87503000Y-100384428D01*
X87394142Y-100420714D01*
X87212714Y-100420714D01*
X88373857Y-100420714D02*
X87938428Y-100420714D01*
X88156142Y-100420714D02*
X88156142Y-99658714D01*
X88083571Y-99767571D01*
X88011000Y-99840142D01*
X87938428Y-99876428D01*
X139319000Y-98497571D02*
X139065000Y-98497571D01*
X139065000Y-98896714D02*
X139065000Y-98134714D01*
X139427857Y-98134714D01*
X139718142Y-98497571D02*
X139972142Y-98497571D01*
X140081000Y-98896714D02*
X139718142Y-98896714D01*
X139718142Y-98134714D01*
X140081000Y-98134714D01*
X140298714Y-98134714D02*
X140734142Y-98134714D01*
X140516428Y-98896714D02*
X140516428Y-98134714D01*
X141314714Y-98134714D02*
X141169571Y-98134714D01*
X141097000Y-98171000D01*
X141060714Y-98207285D01*
X140988142Y-98316142D01*
X140951857Y-98461285D01*
X140951857Y-98751571D01*
X140988142Y-98824142D01*
X141024428Y-98860428D01*
X141097000Y-98896714D01*
X141242142Y-98896714D01*
X141314714Y-98860428D01*
X141351000Y-98824142D01*
X141387285Y-98751571D01*
X141387285Y-98570142D01*
X141351000Y-98497571D01*
X141314714Y-98461285D01*
X141242142Y-98425000D01*
X141097000Y-98425000D01*
X141024428Y-98461285D01*
X140988142Y-98497571D01*
X140951857Y-98570142D01*
X138321142Y-100547714D02*
X138067142Y-100184857D01*
X137885714Y-100547714D02*
X137885714Y-99785714D01*
X138176000Y-99785714D01*
X138248571Y-99822000D01*
X138284857Y-99858285D01*
X138321142Y-99930857D01*
X138321142Y-100039714D01*
X138284857Y-100112285D01*
X138248571Y-100148571D01*
X138176000Y-100184857D01*
X137885714Y-100184857D01*
X138974285Y-100039714D02*
X138974285Y-100547714D01*
X138792857Y-99749428D02*
X138611428Y-100293714D01*
X139083142Y-100293714D01*
X139337142Y-99858285D02*
X139373428Y-99822000D01*
X139446000Y-99785714D01*
X139627428Y-99785714D01*
X139700000Y-99822000D01*
X139736285Y-99858285D01*
X139772571Y-99930857D01*
X139772571Y-100003428D01*
X139736285Y-100112285D01*
X139300857Y-100547714D01*
X139772571Y-100547714D01*
X137051142Y-97499714D02*
X136797142Y-97136857D01*
X136615714Y-97499714D02*
X136615714Y-96737714D01*
X136906000Y-96737714D01*
X136978571Y-96774000D01*
X137014857Y-96810285D01*
X137051142Y-96882857D01*
X137051142Y-96991714D01*
X137014857Y-97064285D01*
X136978571Y-97100571D01*
X136906000Y-97136857D01*
X136615714Y-97136857D01*
X137704285Y-96991714D02*
X137704285Y-97499714D01*
X137522857Y-96701428D02*
X137341428Y-97245714D01*
X137813142Y-97245714D01*
X138030857Y-96737714D02*
X138502571Y-96737714D01*
X138248571Y-97028000D01*
X138357428Y-97028000D01*
X138430000Y-97064285D01*
X138466285Y-97100571D01*
X138502571Y-97173142D01*
X138502571Y-97354571D01*
X138466285Y-97427142D01*
X138430000Y-97463428D01*
X138357428Y-97499714D01*
X138139714Y-97499714D01*
X138067142Y-97463428D01*
X138030857Y-97427142D01*
X146648714Y-100438857D02*
X146285857Y-100692857D01*
X146648714Y-100874285D02*
X145886714Y-100874285D01*
X145886714Y-100584000D01*
X145923000Y-100511428D01*
X145959285Y-100475142D01*
X146031857Y-100438857D01*
X146140714Y-100438857D01*
X146213285Y-100475142D01*
X146249571Y-100511428D01*
X146285857Y-100584000D01*
X146285857Y-100874285D01*
X146140714Y-99785714D02*
X146648714Y-99785714D01*
X145850428Y-99967142D02*
X146394714Y-100148571D01*
X146394714Y-99676857D01*
X146140714Y-99060000D02*
X146648714Y-99060000D01*
X145850428Y-99241428D02*
X146394714Y-99422857D01*
X146394714Y-98951142D01*
X144417142Y-95975714D02*
X144163142Y-95612857D01*
X143981714Y-95975714D02*
X143981714Y-95213714D01*
X144272000Y-95213714D01*
X144344571Y-95250000D01*
X144380857Y-95286285D01*
X144417142Y-95358857D01*
X144417142Y-95467714D01*
X144380857Y-95540285D01*
X144344571Y-95576571D01*
X144272000Y-95612857D01*
X143981714Y-95612857D01*
X145070285Y-95467714D02*
X145070285Y-95975714D01*
X144888857Y-95177428D02*
X144707428Y-95721714D01*
X145179142Y-95721714D01*
X145832285Y-95213714D02*
X145469428Y-95213714D01*
X145433142Y-95576571D01*
X145469428Y-95540285D01*
X145542000Y-95504000D01*
X145723428Y-95504000D01*
X145796000Y-95540285D01*
X145832285Y-95576571D01*
X145868571Y-95649142D01*
X145868571Y-95830571D01*
X145832285Y-95903142D01*
X145796000Y-95939428D01*
X145723428Y-95975714D01*
X145542000Y-95975714D01*
X145469428Y-95939428D01*
X145433142Y-95903142D01*
X143437428Y-105246714D02*
X143872857Y-105246714D01*
X143655142Y-106008714D02*
X143655142Y-105246714D01*
X144090571Y-105319285D02*
X144126857Y-105283000D01*
X144199428Y-105246714D01*
X144380857Y-105246714D01*
X144453428Y-105283000D01*
X144489714Y-105319285D01*
X144526000Y-105391857D01*
X144526000Y-105464428D01*
X144489714Y-105573285D01*
X144054285Y-106008714D01*
X144526000Y-106008714D01*
X92764428Y-72861714D02*
X93199857Y-72861714D01*
X92982142Y-73623714D02*
X92982142Y-72861714D01*
X93381285Y-72861714D02*
X93853000Y-72861714D01*
X93599000Y-73152000D01*
X93707857Y-73152000D01*
X93780428Y-73188285D01*
X93816714Y-73224571D01*
X93853000Y-73297142D01*
X93853000Y-73478571D01*
X93816714Y-73551142D01*
X93780428Y-73587428D01*
X93707857Y-73623714D01*
X93490142Y-73623714D01*
X93417571Y-73587428D01*
X93381285Y-73551142D01*
D13*
G36*
X83566000Y-66114394D02*
G01*
X83566000Y-63246000D01*
X86434394Y-63246000D01*
X83566000Y-66114394D01*
X83566000Y-66114394D01*
G37*
X83566000Y-66114394D02*
X83566000Y-63246000D01*
X86434394Y-63246000D01*
X83566000Y-66114394D01*
M02*
