G04 #@! TF.GenerationSoftware,KiCad,Pcbnew,5.1.0-rc2-unknown-036be7d~80~ubuntu16.04.1*
G04 #@! TF.CreationDate,2023-04-21T13:27:13+03:00*
G04 #@! TF.ProjectId,iMX8MPLUS-SOM_Rev_B,694d5838-4d50-44c5-9553-2d534f4d5f52,A*
G04 #@! TF.SameCoordinates,Original*
G04 #@! TF.FileFunction,Soldermask,Top*
G04 #@! TF.FilePolarity,Negative*
%FSLAX46Y46*%
G04 Gerber Fmt 4.6, Leading zero omitted, Abs format (unit mm)*
G04 Created by KiCad (PCBNEW 5.1.0-rc2-unknown-036be7d~80~ubuntu16.04.1) date 2023-04-21 13:27:13*
%MOMM*%
%LPD*%
G04 APERTURE LIST*
%ADD10C,0.025400*%
%ADD11R,1.401600X0.351600*%
%ADD12R,2.701600X2.501600*%
%ADD13R,2.601600X4.201600*%
%ADD14R,0.351600X1.301600*%
%ADD15R,1.301600X0.351600*%
%ADD16R,4.201600X2.601600*%
%ADD17R,0.651600X0.601600*%
%ADD18R,1.501600X1.101600*%
%ADD19C,0.601600*%
%ADD20C,0.401600*%
%ADD21C,1.901600*%
%ADD22C,0.801600*%
%ADD23C,1.254000*%
%ADD24C,3.401601*%
%ADD25C,1.101600*%
%ADD26R,1.117600X1.117600*%
%ADD27C,0.100000*%
%ADD28R,0.601600X0.651600*%
%ADD29C,0.350000*%
%ADD30C,0.600000*%
%ADD31R,0.482600X0.355600*%
%ADD32R,0.901600X0.901600*%
%ADD33C,0.900000*%
%ADD34R,1.101600X1.501600*%
G04 APERTURE END LIST*
D10*
G36*
X152146000Y-77724000D02*
G01*
X150749000Y-77724000D01*
X150749000Y-70104000D01*
X152146000Y-70104000D01*
X152146000Y-77724000D01*
G37*
X152146000Y-77724000D02*
X150749000Y-77724000D01*
X150749000Y-70104000D01*
X152146000Y-70104000D01*
X152146000Y-77724000D01*
D11*
X91550000Y-95856000D03*
X91550000Y-95356000D03*
X91550000Y-94856000D03*
X91550000Y-94356000D03*
X91550000Y-93856000D03*
X91550000Y-93356000D03*
X91550000Y-92856000D03*
X91550000Y-92356000D03*
X91550000Y-91856000D03*
X91550000Y-91356000D03*
X91550000Y-90856000D03*
X91550000Y-90356000D03*
X91550000Y-89856000D03*
X91550000Y-89356000D03*
X91550000Y-88856000D03*
X91550000Y-88356000D03*
X91550000Y-87856000D03*
X91550000Y-87356000D03*
X91550000Y-86856000D03*
X91550000Y-86356000D03*
X91550000Y-85856000D03*
X91550000Y-85356000D03*
X91550000Y-84856000D03*
X91550000Y-84356000D03*
X91550000Y-83856000D03*
X91550000Y-83356000D03*
X91550000Y-82856000D03*
X91550000Y-82356000D03*
X91550000Y-81856000D03*
X91550000Y-81356000D03*
X91550000Y-80856000D03*
X91550000Y-80356000D03*
X91550000Y-79856000D03*
X91550000Y-79356000D03*
X91550000Y-78856000D03*
X91550000Y-78356000D03*
X91550000Y-77856000D03*
X91550000Y-77356000D03*
X91550000Y-76856000D03*
X91550000Y-76356000D03*
D12*
X89450000Y-98006000D03*
X89450000Y-74206000D03*
D13*
X138210000Y-103501000D03*
X123410000Y-103501000D03*
D14*
X136060000Y-101151000D03*
X135560000Y-101151000D03*
X135060000Y-101151000D03*
X134560000Y-101151000D03*
X134060000Y-101151000D03*
X133560000Y-101151000D03*
X133060000Y-101151000D03*
X132560000Y-101151000D03*
X132060000Y-101151000D03*
X131560000Y-101151000D03*
X131060000Y-101151000D03*
X130560000Y-101151000D03*
X130060000Y-101151000D03*
X129560000Y-101151000D03*
X129060000Y-101151000D03*
X128560000Y-101151000D03*
X128060000Y-101151000D03*
X127560000Y-101151000D03*
X127060000Y-101151000D03*
X126560000Y-101151000D03*
X126060000Y-101151000D03*
X125560000Y-101151000D03*
D13*
X111540000Y-103120000D03*
X96740000Y-103120000D03*
D14*
X109390000Y-100770000D03*
X108890000Y-100770000D03*
X108390000Y-100770000D03*
X107890000Y-100770000D03*
X107390000Y-100770000D03*
X106890000Y-100770000D03*
X106390000Y-100770000D03*
X105890000Y-100770000D03*
X105390000Y-100770000D03*
X104890000Y-100770000D03*
X104390000Y-100770000D03*
X103890000Y-100770000D03*
X103390000Y-100770000D03*
X102890000Y-100770000D03*
X102390000Y-100770000D03*
X101890000Y-100770000D03*
X101390000Y-100770000D03*
X100890000Y-100770000D03*
X100390000Y-100770000D03*
X99890000Y-100770000D03*
X99390000Y-100770000D03*
X98890000Y-100770000D03*
D15*
X146744000Y-95801000D03*
X146744000Y-95301000D03*
X146744000Y-94801000D03*
X146744000Y-94301000D03*
X146744000Y-93801000D03*
X146744000Y-93301000D03*
X146744000Y-92801000D03*
X146744000Y-92301000D03*
X146744000Y-91801000D03*
X146744000Y-91301000D03*
X146744000Y-90801000D03*
X146744000Y-90301000D03*
X146744000Y-89801000D03*
X146744000Y-89301000D03*
X146744000Y-88801000D03*
X146744000Y-88301000D03*
X146744000Y-87801000D03*
X146744000Y-87301000D03*
X146744000Y-86801000D03*
X146744000Y-86301000D03*
X146744000Y-85801000D03*
X146744000Y-85301000D03*
D16*
X149094000Y-97951000D03*
X149094000Y-83151000D03*
D17*
X93980000Y-79375000D03*
X93980000Y-78359000D03*
D18*
X94056200Y-98620580D03*
X96266000Y-97665540D03*
X96266000Y-99568000D03*
X142529560Y-99568000D03*
X142529560Y-101470460D03*
X144739360Y-100515420D03*
D19*
X145000000Y-92250000D03*
X145000000Y-77750000D03*
X135000000Y-92250000D03*
D20*
X135600000Y-78175000D03*
X136400000Y-78175000D03*
X137200000Y-78175000D03*
X138000000Y-78175000D03*
X138800000Y-78175000D03*
X141200000Y-78175000D03*
X142000000Y-78175000D03*
X142800000Y-78175000D03*
X143600000Y-78175000D03*
X144400000Y-78175000D03*
X135600000Y-91175000D03*
X136400000Y-91175000D03*
X137200000Y-91175000D03*
X138000000Y-91175000D03*
X138800000Y-91175000D03*
X141200000Y-91175000D03*
X142000000Y-91175000D03*
X142800000Y-91175000D03*
X143600000Y-91175000D03*
X144400000Y-91175000D03*
X135600000Y-91825000D03*
X136400000Y-91825000D03*
X137200000Y-91825000D03*
X138000000Y-91825000D03*
X138800000Y-91825000D03*
X141200000Y-91825000D03*
X142000000Y-91825000D03*
X142800000Y-91825000D03*
X143600000Y-91825000D03*
X144400000Y-91825000D03*
X135600000Y-78825000D03*
X136400000Y-78825000D03*
X137200000Y-78825000D03*
X138000000Y-78825000D03*
X138800000Y-78825000D03*
X141200000Y-78825000D03*
X142000000Y-78825000D03*
X142800000Y-78825000D03*
X143600000Y-78825000D03*
X144400000Y-78825000D03*
X135600000Y-79475000D03*
X136400000Y-79475000D03*
X137200000Y-79475000D03*
X138000000Y-79475000D03*
X138800000Y-79475000D03*
X141200000Y-79475000D03*
X142000000Y-79475000D03*
X142800000Y-79475000D03*
X143600000Y-79475000D03*
X144400000Y-79475000D03*
X135600000Y-80125000D03*
X136400000Y-80125000D03*
X137200000Y-80125000D03*
X138000000Y-80125000D03*
X138800000Y-80125000D03*
X141200000Y-80125000D03*
X142000000Y-80125000D03*
X142800000Y-80125000D03*
X143600000Y-80125000D03*
X144400000Y-80125000D03*
X135600000Y-80775000D03*
X136400000Y-80775000D03*
X137200000Y-80775000D03*
X138000000Y-80775000D03*
X138800000Y-80775000D03*
X141200000Y-80775000D03*
X142000000Y-80775000D03*
X142800000Y-80775000D03*
X143600000Y-80775000D03*
X144400000Y-80775000D03*
X135600000Y-81425000D03*
X136400000Y-81425000D03*
X137200000Y-81425000D03*
X138000000Y-81425000D03*
X138800000Y-81425000D03*
X141200000Y-81425000D03*
X142000000Y-81425000D03*
X142800000Y-81425000D03*
X143600000Y-81425000D03*
X144400000Y-81425000D03*
X135600000Y-82075000D03*
X136400000Y-82075000D03*
X137200000Y-82075000D03*
X138000000Y-82075000D03*
X138800000Y-82075000D03*
X141200000Y-82075000D03*
X142000000Y-82075000D03*
X142800000Y-82075000D03*
X143600000Y-82075000D03*
X144400000Y-82075000D03*
X135600000Y-82725000D03*
X136400000Y-82725000D03*
X137200000Y-82725000D03*
X138000000Y-82725000D03*
X138800000Y-82725000D03*
X141200000Y-82725000D03*
X142000000Y-82725000D03*
X142800000Y-82725000D03*
X143600000Y-82725000D03*
X144400000Y-82725000D03*
X135600000Y-83375000D03*
X136400000Y-83375000D03*
X137200000Y-83375000D03*
X138000000Y-83375000D03*
X138800000Y-83375000D03*
X141200000Y-83375000D03*
X142000000Y-83375000D03*
X142800000Y-83375000D03*
X143600000Y-83375000D03*
X144400000Y-83375000D03*
X135600000Y-84025000D03*
X136400000Y-84025000D03*
X137200000Y-84025000D03*
X138000000Y-84025000D03*
X138800000Y-84025000D03*
X141200000Y-84025000D03*
X142000000Y-84025000D03*
X142800000Y-84025000D03*
X143600000Y-84025000D03*
X144400000Y-84025000D03*
X135600000Y-85975000D03*
X136400000Y-85975000D03*
X137200000Y-85975000D03*
X138000000Y-85975000D03*
X138800000Y-85975000D03*
X141200000Y-85975000D03*
X142000000Y-85975000D03*
X142800000Y-85975000D03*
X143600000Y-85975000D03*
X144400000Y-85975000D03*
X135600000Y-86625000D03*
X136400000Y-86625000D03*
X137200000Y-86625000D03*
X138000000Y-86625000D03*
X138800000Y-86625000D03*
X141200000Y-86625000D03*
X142000000Y-86625000D03*
X142800000Y-86625000D03*
X143600000Y-86625000D03*
X144400000Y-86625000D03*
X135600000Y-87275000D03*
X136400000Y-87275000D03*
X137200000Y-87275000D03*
X138000000Y-87275000D03*
X138800000Y-87275000D03*
X141200000Y-87275000D03*
X142000000Y-87275000D03*
X142800000Y-87275000D03*
X143600000Y-87275000D03*
X144400000Y-87275000D03*
X135600000Y-87925000D03*
X136400000Y-87925000D03*
X137200000Y-87925000D03*
X138000000Y-87925000D03*
X138800000Y-87925000D03*
X141200000Y-87925000D03*
X142000000Y-87925000D03*
X142800000Y-87925000D03*
X143600000Y-87925000D03*
X144400000Y-87925000D03*
X135600000Y-88575000D03*
X136400000Y-88575000D03*
X137200000Y-88575000D03*
X138000000Y-88575000D03*
X138800000Y-88575000D03*
X141200000Y-88575000D03*
X142000000Y-88575000D03*
X142800000Y-88575000D03*
X143600000Y-88575000D03*
X144400000Y-88575000D03*
X135600000Y-89225000D03*
X136400000Y-89225000D03*
X137200000Y-89225000D03*
X138000000Y-89225000D03*
X138800000Y-89225000D03*
X141200000Y-89225000D03*
X142000000Y-89225000D03*
X142800000Y-89225000D03*
X143600000Y-89225000D03*
X144400000Y-89225000D03*
X135600000Y-89875000D03*
X136400000Y-89875000D03*
X137200000Y-89875000D03*
X138000000Y-89875000D03*
X138800000Y-89875000D03*
X141200000Y-89875000D03*
X142000000Y-89875000D03*
X142800000Y-89875000D03*
X143600000Y-89875000D03*
X144400000Y-89875000D03*
X135600000Y-90525000D03*
X136400000Y-90525000D03*
X137200000Y-90525000D03*
X138000000Y-90525000D03*
X138800000Y-90525000D03*
X141200000Y-90525000D03*
X142000000Y-90525000D03*
X142800000Y-90525000D03*
X143600000Y-90525000D03*
X144400000Y-90525000D03*
D21*
X102870000Y-85090000D03*
D22*
X120650000Y-102870000D03*
X143510000Y-102870000D03*
X92710000Y-102870000D03*
X115570000Y-102870000D03*
X87630000Y-73660000D03*
X87630000Y-96520000D03*
D23*
X85090000Y-105410000D03*
X151130000Y-105410000D03*
X151130000Y-64770000D03*
D24*
X87630000Y-102870000D03*
X148590000Y-102870000D03*
X148590000Y-67310000D03*
X87630000Y-67310000D03*
D25*
X84836000Y-70485000D03*
D26*
X140081000Y-93472000D03*
X141859000Y-93472000D03*
X103632000Y-86868000D03*
X103632000Y-88646000D03*
X103251000Y-82042000D03*
X105029000Y-82042000D03*
X100076000Y-77470000D03*
X101854000Y-77470000D03*
X100076000Y-78994000D03*
X101854000Y-78994000D03*
X104902000Y-85852000D03*
X106680000Y-85852000D03*
X106172000Y-84328000D03*
X104394000Y-84328000D03*
X99568000Y-85725000D03*
X101346000Y-85725000D03*
X102108000Y-89408000D03*
X102108000Y-87630000D03*
X97282000Y-85598000D03*
X95504000Y-85598000D03*
X111887000Y-86741000D03*
X110109000Y-86741000D03*
X111887000Y-85217000D03*
X110109000Y-85217000D03*
X110109000Y-83058000D03*
X111887000Y-83058000D03*
D22*
X115570000Y-67310000D03*
X92710000Y-67310000D03*
X120650000Y-67310000D03*
X143510000Y-67310000D03*
D25*
X138811000Y-94081600D03*
X93218000Y-80391000D03*
X96393000Y-84201000D03*
D17*
X146050000Y-83312000D03*
X146050000Y-84328000D03*
D19*
X131869580Y-85119010D03*
D27*
G36*
X131851902Y-84675937D02*
G01*
X132312653Y-85136688D01*
X131887258Y-85562083D01*
X131426507Y-85101332D01*
X131851902Y-84675937D01*
X131851902Y-84675937D01*
G37*
D19*
X132588000Y-84400590D03*
D27*
G36*
X132605678Y-84843663D02*
G01*
X132144927Y-84382912D01*
X132570322Y-83957517D01*
X133031073Y-84418268D01*
X132605678Y-84843663D01*
X132605678Y-84843663D01*
G37*
D17*
X139192000Y-76835000D03*
X139192000Y-75819000D03*
X140462000Y-75819000D03*
X140462000Y-76835000D03*
D28*
X96393000Y-88011000D03*
X97409000Y-88011000D03*
X97409000Y-86995000D03*
X96393000Y-86995000D03*
D29*
X117000000Y-86500000D03*
X121500000Y-86500000D03*
X116500000Y-86500000D03*
X130000000Y-86500000D03*
X130500000Y-86500000D03*
X125500000Y-86500000D03*
X123000000Y-86500000D03*
X124000000Y-86500000D03*
X126500000Y-87000000D03*
X130000000Y-87000000D03*
X119500000Y-87000000D03*
X128000000Y-87000000D03*
X117500000Y-87000000D03*
X117000000Y-87000000D03*
X124000000Y-87000000D03*
X129000000Y-87000000D03*
X127500000Y-87000000D03*
X120000000Y-87000000D03*
X124500000Y-87000000D03*
X121000000Y-87000000D03*
X116500000Y-87000000D03*
X122500000Y-87000000D03*
X122000000Y-87000000D03*
X121500000Y-87000000D03*
X125500000Y-87000000D03*
X123000000Y-87000000D03*
X119000000Y-87000000D03*
X127000000Y-87000000D03*
X120500000Y-87000000D03*
X118000000Y-87000000D03*
X126000000Y-87000000D03*
X118500000Y-87000000D03*
X130500000Y-87000000D03*
X125000000Y-87000000D03*
X128500000Y-87000000D03*
X129500000Y-87000000D03*
X121500000Y-87500000D03*
X123500000Y-87500000D03*
X126000000Y-87500000D03*
X123000000Y-87500000D03*
X130500000Y-87500000D03*
X125500000Y-87500000D03*
X124000000Y-87500000D03*
X116500000Y-87500000D03*
X121000000Y-87500000D03*
X130000000Y-87500000D03*
X117000000Y-87500000D03*
X119500000Y-88000000D03*
X127500000Y-88000000D03*
X128000000Y-88000000D03*
X120000000Y-88000000D03*
X129000000Y-88000000D03*
X118500000Y-88000000D03*
X125500000Y-88000000D03*
X130000000Y-88000000D03*
X121500000Y-88000000D03*
X129500000Y-88000000D03*
X126000000Y-88000000D03*
X116500000Y-88000000D03*
X128500000Y-88000000D03*
X121000000Y-88000000D03*
X127000000Y-88000000D03*
X117000000Y-88000000D03*
X130500000Y-88000000D03*
X119000000Y-88000000D03*
X117500000Y-88000000D03*
X123000000Y-88000000D03*
X124000000Y-88000000D03*
X118000000Y-88000000D03*
X130500000Y-88500000D03*
X127000000Y-88500000D03*
X125000000Y-88500000D03*
X120000000Y-88500000D03*
X130000000Y-88500000D03*
X117000000Y-88500000D03*
X126000000Y-88500000D03*
X123000000Y-88500000D03*
X116500000Y-88500000D03*
X124000000Y-88500000D03*
X122000000Y-88500000D03*
X121000000Y-88500000D03*
X128500000Y-89000000D03*
X118500000Y-89000000D03*
X119000000Y-89000000D03*
X120000000Y-89000000D03*
X130500000Y-89000000D03*
X129000000Y-89000000D03*
X127000000Y-89000000D03*
X125000000Y-89000000D03*
X117000000Y-89000000D03*
X130000000Y-89000000D03*
X118000000Y-89000000D03*
X128000000Y-89000000D03*
X124000000Y-89000000D03*
X122000000Y-89000000D03*
X121000000Y-89000000D03*
X123000000Y-89000000D03*
X116500000Y-89000000D03*
X126000000Y-89000000D03*
X129500000Y-89000000D03*
X117500000Y-89000000D03*
X126000000Y-89500000D03*
X123000000Y-89500000D03*
X116500000Y-89500000D03*
X128000000Y-89500000D03*
X124000000Y-89500000D03*
X122000000Y-89500000D03*
X121000000Y-89500000D03*
X120000000Y-89500000D03*
X130500000Y-89500000D03*
X125000000Y-89500000D03*
X127000000Y-89500000D03*
X130000000Y-89500000D03*
X117000000Y-89500000D03*
X119000000Y-89500000D03*
X117500000Y-90000000D03*
X129500000Y-90000000D03*
X126000000Y-90000000D03*
X123000000Y-90000000D03*
X116500000Y-90000000D03*
X128000000Y-90000000D03*
X124000000Y-90000000D03*
X122000000Y-90000000D03*
X121000000Y-90000000D03*
X118000000Y-90000000D03*
X120000000Y-90000000D03*
X130500000Y-90000000D03*
X125000000Y-90000000D03*
X129000000Y-90000000D03*
X127000000Y-90000000D03*
X130000000Y-90000000D03*
X117000000Y-90000000D03*
X119000000Y-90000000D03*
D30*
X131000000Y-77500000D03*
X116000000Y-77500000D03*
X116000000Y-92500000D03*
D29*
X125000000Y-90500000D03*
X118000000Y-90500000D03*
X127000000Y-90500000D03*
X122000000Y-90500000D03*
X117000000Y-90500000D03*
X121000000Y-90500000D03*
X124000000Y-90500000D03*
X130000000Y-90500000D03*
X128000000Y-90500000D03*
X120000000Y-90500000D03*
X129000000Y-90500000D03*
X130500000Y-90500000D03*
X116500000Y-90500000D03*
X119000000Y-90500000D03*
X123000000Y-90500000D03*
X126000000Y-90500000D03*
X119000000Y-91000000D03*
X122000000Y-91000000D03*
X129000000Y-91000000D03*
X118000000Y-91000000D03*
X123000000Y-91000000D03*
X127000000Y-91000000D03*
X116500000Y-91000000D03*
X125000000Y-91000000D03*
X124000000Y-91000000D03*
X117000000Y-91000000D03*
X130000000Y-91000000D03*
X120000000Y-91000000D03*
X128000000Y-91000000D03*
X126000000Y-91000000D03*
X121000000Y-91000000D03*
X130500000Y-91000000D03*
X126500000Y-91500000D03*
X130000000Y-91500000D03*
X119500000Y-91500000D03*
X128000000Y-91500000D03*
X117500000Y-91500000D03*
X117000000Y-91500000D03*
X124000000Y-91500000D03*
X129000000Y-91500000D03*
X127500000Y-91500000D03*
X120000000Y-91500000D03*
X124500000Y-91500000D03*
X121000000Y-91500000D03*
X116500000Y-91500000D03*
X122500000Y-91500000D03*
X122000000Y-91500000D03*
X121500000Y-91500000D03*
X125500000Y-91500000D03*
X123500000Y-91500000D03*
X123000000Y-91500000D03*
X119000000Y-91500000D03*
X127000000Y-91500000D03*
X120500000Y-91500000D03*
X118000000Y-91500000D03*
X126000000Y-91500000D03*
X118500000Y-91500000D03*
X130500000Y-91500000D03*
X125000000Y-91500000D03*
X128500000Y-91500000D03*
X129500000Y-91500000D03*
X119500000Y-92000000D03*
X118000000Y-92000000D03*
X119000000Y-92000000D03*
X117000000Y-92000000D03*
X117500000Y-92000000D03*
X118500000Y-92000000D03*
X120000000Y-92000000D03*
X120500000Y-92000000D03*
X116500000Y-92000000D03*
X121000000Y-92000000D03*
X124500000Y-92000000D03*
X123000000Y-92000000D03*
X124000000Y-92000000D03*
X122000000Y-92000000D03*
X122500000Y-92000000D03*
X123500000Y-92000000D03*
X125000000Y-92000000D03*
X125500000Y-92000000D03*
X121500000Y-92000000D03*
X126000000Y-92000000D03*
X126500000Y-92000000D03*
X127000000Y-92000000D03*
X127500000Y-92000000D03*
X128000000Y-92000000D03*
X128500000Y-92000000D03*
X129000000Y-92000000D03*
X129500000Y-92000000D03*
X130000000Y-92000000D03*
X130500000Y-92000000D03*
X129500000Y-86000000D03*
X128000000Y-86000000D03*
X130500000Y-86000000D03*
X127500000Y-86000000D03*
X126500000Y-86000000D03*
X122500000Y-86000000D03*
X121500000Y-86000000D03*
X121000000Y-86000000D03*
X116500000Y-86000000D03*
X124000000Y-86000000D03*
X118000000Y-86000000D03*
X128500000Y-86000000D03*
X120000000Y-86000000D03*
X120500000Y-86000000D03*
X123000000Y-86000000D03*
X119000000Y-86000000D03*
X130000000Y-86000000D03*
X124500000Y-86000000D03*
X126000000Y-86000000D03*
X127000000Y-86000000D03*
X123500000Y-86000000D03*
X122000000Y-86000000D03*
X125000000Y-86000000D03*
X125500000Y-86000000D03*
X119500000Y-86000000D03*
X129000000Y-86000000D03*
X118500000Y-86000000D03*
X117500000Y-86000000D03*
X117000000Y-86000000D03*
X121500000Y-85500000D03*
X130000000Y-85500000D03*
X124000000Y-85500000D03*
X117000000Y-85500000D03*
X125500000Y-85500000D03*
X130500000Y-85500000D03*
X116500000Y-85500000D03*
X123000000Y-85500000D03*
X116500000Y-85000000D03*
X121000000Y-85000000D03*
X126500000Y-85000000D03*
X123000000Y-85000000D03*
X127000000Y-85000000D03*
X129500000Y-85000000D03*
X128000000Y-85000000D03*
X118000000Y-85000000D03*
X126000000Y-85000000D03*
X127500000Y-85000000D03*
X118500000Y-85000000D03*
X128500000Y-85000000D03*
X119000000Y-85000000D03*
X121500000Y-85000000D03*
X120000000Y-85000000D03*
X129000000Y-85000000D03*
X125500000Y-85000000D03*
X122000000Y-85000000D03*
X119500000Y-85000000D03*
X124000000Y-85000000D03*
X117000000Y-85000000D03*
X120500000Y-85000000D03*
X117500000Y-85000000D03*
X122500000Y-85000000D03*
X130500000Y-85000000D03*
X125000000Y-85000000D03*
X130000000Y-85000000D03*
X124500000Y-85000000D03*
X130500000Y-84500000D03*
X121500000Y-84500000D03*
X117000000Y-84500000D03*
X130000000Y-84500000D03*
X125500000Y-84500000D03*
X116500000Y-84500000D03*
X124000000Y-84500000D03*
X123000000Y-84500000D03*
X121000000Y-84000000D03*
X117000000Y-84000000D03*
X124000000Y-84000000D03*
X119000000Y-84000000D03*
X116500000Y-84000000D03*
X123000000Y-84000000D03*
X128500000Y-84000000D03*
X123500000Y-84000000D03*
X124500000Y-84000000D03*
X130000000Y-84000000D03*
X120000000Y-84000000D03*
X126000000Y-84000000D03*
X127000000Y-84000000D03*
X122000000Y-84000000D03*
X120500000Y-84000000D03*
X118500000Y-84000000D03*
X121500000Y-84000000D03*
X118000000Y-84000000D03*
X129000000Y-84000000D03*
X119500000Y-84000000D03*
X125500000Y-84000000D03*
X125000000Y-84000000D03*
X127500000Y-84000000D03*
X117500000Y-84000000D03*
X126500000Y-84000000D03*
X122500000Y-84000000D03*
X129500000Y-84000000D03*
X128000000Y-84000000D03*
X130500000Y-84000000D03*
X123000000Y-83500000D03*
X130000000Y-83500000D03*
X116500000Y-83500000D03*
X130500000Y-83500000D03*
X117000000Y-83500000D03*
X125500000Y-83500000D03*
X121500000Y-83500000D03*
X124000000Y-83500000D03*
X116500000Y-83000000D03*
X121000000Y-83000000D03*
X126500000Y-83000000D03*
X123000000Y-83000000D03*
X127000000Y-83000000D03*
X129500000Y-83000000D03*
X128000000Y-83000000D03*
X118000000Y-83000000D03*
X126000000Y-83000000D03*
X127500000Y-83000000D03*
X118500000Y-83000000D03*
X128500000Y-83000000D03*
X119000000Y-83000000D03*
X121500000Y-83000000D03*
X120000000Y-83000000D03*
X129000000Y-83000000D03*
X125500000Y-83000000D03*
X122000000Y-83000000D03*
X119500000Y-83000000D03*
X124000000Y-83000000D03*
X117000000Y-83000000D03*
X120500000Y-83000000D03*
X117500000Y-83000000D03*
X122500000Y-83000000D03*
X130500000Y-83000000D03*
X125000000Y-83000000D03*
X130000000Y-83000000D03*
X124500000Y-83000000D03*
X125500000Y-82500000D03*
X124000000Y-82500000D03*
X130500000Y-82500000D03*
X117000000Y-82500000D03*
X123000000Y-82500000D03*
X123500000Y-82500000D03*
X121500000Y-82500000D03*
X126000000Y-82500000D03*
X130000000Y-82500000D03*
X116500000Y-82500000D03*
X121000000Y-82500000D03*
X127500000Y-82000000D03*
X129500000Y-82000000D03*
X126000000Y-82000000D03*
X116500000Y-82000000D03*
X119500000Y-82000000D03*
X130000000Y-82000000D03*
X121500000Y-82000000D03*
X128000000Y-82000000D03*
X120000000Y-82000000D03*
X118000000Y-82000000D03*
X125500000Y-82000000D03*
X128500000Y-82000000D03*
X121000000Y-82000000D03*
X119000000Y-82000000D03*
X117500000Y-82000000D03*
X123000000Y-82000000D03*
X124000000Y-82000000D03*
X129000000Y-82000000D03*
X118500000Y-82000000D03*
X127000000Y-82000000D03*
X117000000Y-82000000D03*
X130500000Y-82000000D03*
X121000000Y-81500000D03*
X122000000Y-81500000D03*
X124000000Y-81500000D03*
X120000000Y-81500000D03*
X123000000Y-81500000D03*
X126000000Y-81500000D03*
X116500000Y-81500000D03*
X117000000Y-81500000D03*
X130000000Y-81500000D03*
X130500000Y-81500000D03*
X127000000Y-81500000D03*
X125000000Y-81500000D03*
X127000000Y-81000000D03*
X128500000Y-81000000D03*
X118500000Y-81000000D03*
X129000000Y-81000000D03*
X130500000Y-81000000D03*
X119000000Y-81000000D03*
X117500000Y-81000000D03*
X129500000Y-81000000D03*
X126000000Y-81000000D03*
X116500000Y-81000000D03*
X123000000Y-81000000D03*
X121000000Y-81000000D03*
X122000000Y-81000000D03*
X124000000Y-81000000D03*
X128000000Y-81000000D03*
X118000000Y-81000000D03*
X130000000Y-81000000D03*
X117000000Y-81000000D03*
X125000000Y-81000000D03*
X120000000Y-81000000D03*
X120000000Y-80500000D03*
X130500000Y-80500000D03*
X125000000Y-80500000D03*
X127000000Y-80500000D03*
X130000000Y-80500000D03*
X117000000Y-80500000D03*
X119000000Y-80500000D03*
X122000000Y-80500000D03*
X124000000Y-80500000D03*
X128000000Y-80500000D03*
X116500000Y-80500000D03*
X123000000Y-80500000D03*
X126000000Y-80500000D03*
X121000000Y-80500000D03*
X117500000Y-80000000D03*
X129500000Y-80000000D03*
X126000000Y-80000000D03*
X123000000Y-80000000D03*
X116500000Y-80000000D03*
X128000000Y-80000000D03*
X124000000Y-80000000D03*
X122000000Y-80000000D03*
X121000000Y-80000000D03*
X118000000Y-80000000D03*
X119000000Y-80000000D03*
X130000000Y-80000000D03*
X117000000Y-80000000D03*
X129000000Y-80000000D03*
X127000000Y-80000000D03*
X130500000Y-80000000D03*
X125000000Y-80000000D03*
X120000000Y-80000000D03*
X125000000Y-79500000D03*
X117000000Y-79500000D03*
X121000000Y-79500000D03*
X124000000Y-79500000D03*
X127000000Y-79500000D03*
X122000000Y-79500000D03*
X118000000Y-79500000D03*
X130000000Y-79500000D03*
X128000000Y-79500000D03*
X120000000Y-79500000D03*
X129000000Y-79500000D03*
X130500000Y-79500000D03*
X116500000Y-79500000D03*
X119000000Y-79500000D03*
X123000000Y-79500000D03*
X126000000Y-79500000D03*
X129000000Y-79000000D03*
X116500000Y-79000000D03*
X120000000Y-79000000D03*
X122000000Y-79000000D03*
X118000000Y-79000000D03*
X127000000Y-79000000D03*
X125000000Y-79000000D03*
X130500000Y-79000000D03*
X119000000Y-79000000D03*
X124000000Y-79000000D03*
X128000000Y-79000000D03*
X130000000Y-79000000D03*
X123000000Y-79000000D03*
X126000000Y-79000000D03*
X121000000Y-79000000D03*
X117000000Y-79000000D03*
X130000000Y-78500000D03*
X129500000Y-78500000D03*
X129000000Y-78500000D03*
X119500000Y-78500000D03*
X118000000Y-78500000D03*
X119000000Y-78500000D03*
X117000000Y-78500000D03*
X117500000Y-78500000D03*
X118500000Y-78500000D03*
X120000000Y-78500000D03*
X120500000Y-78500000D03*
X116500000Y-78500000D03*
X121000000Y-78500000D03*
X124500000Y-78500000D03*
X123000000Y-78500000D03*
X124000000Y-78500000D03*
X122000000Y-78500000D03*
X122500000Y-78500000D03*
X123500000Y-78500000D03*
X128500000Y-78500000D03*
X128000000Y-78500000D03*
X127000000Y-78500000D03*
X126500000Y-78500000D03*
X126000000Y-78500000D03*
X121500000Y-78500000D03*
X125000000Y-78500000D03*
X125500000Y-78500000D03*
X127500000Y-78500000D03*
X130500000Y-78500000D03*
X118000000Y-78000000D03*
X119000000Y-78000000D03*
X117000000Y-78000000D03*
X117500000Y-78000000D03*
X118500000Y-78000000D03*
X120000000Y-78000000D03*
X120500000Y-78000000D03*
X116500000Y-78000000D03*
X121000000Y-78000000D03*
X124500000Y-78000000D03*
X123000000Y-78000000D03*
X124000000Y-78000000D03*
X122000000Y-78000000D03*
X122500000Y-78000000D03*
X123500000Y-78000000D03*
X128500000Y-78000000D03*
X128000000Y-78000000D03*
X127000000Y-78000000D03*
X126500000Y-78000000D03*
X126000000Y-78000000D03*
X121500000Y-78000000D03*
X125000000Y-78000000D03*
X125500000Y-78000000D03*
X127500000Y-78000000D03*
X130500000Y-78000000D03*
X130000000Y-78000000D03*
X129500000Y-78000000D03*
X129000000Y-78000000D03*
X119500000Y-78000000D03*
D25*
X120269000Y-104394000D03*
X92583000Y-97409000D03*
X109728000Y-95377000D03*
X113665000Y-83439000D03*
X98552000Y-90424000D03*
X103251000Y-78867000D03*
D31*
X98298000Y-88061800D03*
X98298000Y-87630000D03*
D17*
X93599000Y-101473000D03*
X93599000Y-100457000D03*
D32*
X92202000Y-104648000D03*
X93726000Y-104648000D03*
D33*
X148590000Y-90170000D03*
X148590000Y-80010000D03*
D17*
X122682000Y-69723000D03*
X122682000Y-68707000D03*
X123825000Y-68707000D03*
X123825000Y-69723000D03*
D25*
X84836000Y-99822000D03*
D34*
X142369540Y-98130360D03*
X141414500Y-95920560D03*
X143316960Y-95920560D03*
D28*
X140335000Y-100457000D03*
X141351000Y-100457000D03*
X140208000Y-97155000D03*
X139192000Y-97155000D03*
D17*
X145415000Y-97663000D03*
X145415000Y-98679000D03*
D28*
X144399000Y-96774000D03*
X145415000Y-96774000D03*
D18*
X141173200Y-103444040D03*
X141173200Y-105346500D03*
X143383000Y-104391460D03*
D34*
X95183960Y-74711560D03*
X93281500Y-74711560D03*
X94236540Y-76921360D03*
M02*
